<svg xmlns="http://www.w3.org/2000/svg" width="1024" height="1024" viewBox="0 0 1024 1024" version="1.1"><path d="M 486.479 182.801 C 479.293 185.286, 475.809 188.111, 472.449 194.176 L 469.500 199.500 469 334 C 468.544 456.695, 468.355 468.763, 466.845 471.500 C 463.379 477.782, 458.012 481, 451 481 C 443.480 481, 438.125 477.510, 434.890 470.500 C 433.128 466.683, 433.043 461.055, 433.022 347.432 C 432.998 216.401, 433.276 222.392, 426.850 214.621 C 422.251 209.061, 415.147 206.022, 406.718 206.010 C 402.988 206.004, 398.455 206.619, 396.645 207.375 C 391.951 209.336, 386.242 214.638, 383.691 219.405 L 381.500 223.500 381 346 C 380.538 459.236, 380.370 468.737, 378.786 471.631 C 376.385 476.016, 371.573 479.802, 367.407 480.583 C 358.524 482.250, 350.892 478.539, 347.102 470.711 C 345.024 466.418, 345 465.526, 345 392.343 C 345 331.935, 344.744 317.466, 343.606 313.687 C 336.617 290.464, 302.357 289.895, 294.528 312.872 C 293.187 316.806, 293 333.688, 293 450.454 C 293 537.609, 293.363 586.478, 294.053 592.026 C 297.759 621.852, 307.368 648.834, 323.672 675.191 C 335.038 693.565, 350.371 710.527, 371 727.546 C 387.476 741.138, 393.123 748.696, 396.505 761.680 C 397.665 766.134, 398.001 773.929, 398.006 796.460 C 398.009 813.350, 398.443 827.056, 399.044 829.219 C 400.426 834.193, 404.527 838.880, 409.459 841.120 C 413.272 842.853, 418.090 842.957, 494.934 842.978 C 575.897 843, 576.394 842.988, 580.750 840.879 C 583.387 839.603, 586.201 837.144, 587.816 834.705 L 590.500 830.653 591.065 797.576 C 591.541 769.748, 591.912 763.627, 593.401 759 C 597.151 747.349, 603.169 739.857, 619.283 726.785 C 651.415 700.717, 674.728 667.496, 686.899 630.430 C 695.835 603.217, 697.247 587.069, 696.816 517 C 696.527 469.960, 696.344 465.154, 694.699 461.500 C 689.476 449.897, 675.828 443.548, 663.516 446.996 C 658.038 448.529, 650.739 454.705, 647.708 460.372 C 645.513 464.476, 645.497 464.870, 645 528.500 C 644.513 590.791, 644.445 592.593, 642.446 595.997 C 635.559 607.720, 618.441 607.720, 611.554 595.997 C 609.527 592.545, 609.494 591.154, 609 488.542 L 608.500 384.585 601 383.405 C 586.961 381.198, 573.104 376.583, 562.178 370.476 C 559.741 369.114, 557.580 368, 557.374 368 C 557.168 368, 556.990 390.163, 556.978 417.250 C 556.958 462.993, 556.825 466.785, 555.110 470.500 C 549.102 483.517, 532.178 484.780, 524.251 472.804 L 521.500 468.648 521 400.574 L 520.500 332.500 516.578 326.529 C 508.222 313.808, 501.804 294.821, 499.815 276.939 C 497.048 252.049, 503.400 224.485, 517.154 201.703 L 519.447 197.906 517.045 193.378 C 513.202 186.136, 503.972 180.969, 495 181.038 C 493.075 181.053, 489.241 181.847, 486.479 182.801 M 603.500 182.484 C 577.839 187.261, 556.369 203.126, 544.519 226.068 C 537.457 239.742, 535.538 247.934, 535.517 264.500 C 535.498 280.296, 536.935 287.473, 542.594 299.840 C 552.866 322.286, 571.530 338.087, 596.636 345.592 C 608.617 349.174, 627.299 349.400, 639.500 346.111 C 670.653 337.713, 694.156 312.672, 700.550 281.066 C 703.157 268.176, 702.200 251.434, 698.145 239 C 688.490 209.393, 663.795 187.811, 633.533 182.534 C 623.093 180.713, 613.099 180.697, 603.500 182.484" stroke="none" fill="#000000" fill-rule="evenodd"/></svg>