<svg xmlns="http://www.w3.org/2000/svg" width="1024" height="1024" viewBox="0 0 1024 1024" version="1.1"><path d="M 179.910 142.371 C 174.295 144.378, 169.581 148.525, 166.411 154.246 L 163.500 159.500 163.184 182.750 L 162.867 206 508.434 206 L 854 206 853.994 184.250 C 853.991 172.287, 853.523 160.824, 852.954 158.775 C 851.371 153.075, 846.093 146.914, 840.118 143.793 L 834.772 141 509.136 141.044 C 246.735 141.079, 182.803 141.337, 179.910 142.371 M 163 414 L 163 593 508.500 593 L 854 593 854 414 L 854 235 508.500 235 L 163 235 163 414 M 479.500 288.944 C 439.287 297.353, 406.985 322.206, 388.935 358.624 C 380.424 375.797, 377.005 389.563, 376.299 409.500 C 375.672 427.198, 377.167 437.759, 382.595 454 C 388.928 472.948, 399.314 489.328, 414.500 504.321 C 433.203 522.785, 456.758 535.157, 481.385 539.452 C 492.949 541.469, 515.236 541.470, 526.140 539.455 C 551.650 534.741, 574.670 522.476, 593.517 503.556 C 618.765 478.210, 631 449.173, 631 414.596 C 631 379.302, 618.660 349.536, 593.593 324.365 C 576.688 307.389, 558.358 296.887, 534.207 290.340 C 525.751 288.047, 522.181 287.667, 506.500 287.385 C 491.817 287.122, 486.842 287.409, 479.500 288.944 M 485.334 311.416 C 475.037 313.377, 465.730 316.618, 456 321.631 C 447.586 325.966, 436.043 333.820, 436.015 335.230 C 436.007 335.632, 439.317 339.232, 443.371 343.230 C 451.178 350.929, 460.405 364.145, 464.606 373.645 C 472.322 391.091, 474.984 414.973, 471.223 433 C 467.067 452.917, 457.387 470.788, 443.103 484.911 L 435.608 492.322 439.554 495.750 C 441.724 497.635, 446.649 501.023, 450.497 503.277 C 487.573 524.999, 533.034 522.305, 567.042 496.370 L 571.977 492.607 563.665 484.053 C 553.940 474.046, 550.900 469.776, 544.553 457.211 C 537.273 442.798, 534.736 431.632, 534.736 414 C 534.736 401.701, 535.117 398.056, 537.250 389.989 C 542.048 371.834, 549.768 358.358, 563.572 344.038 L 572.131 335.160 566.816 331.271 C 554.297 322.112, 543.845 317.066, 528.500 312.773 C 519.305 310.201, 495.622 309.456, 485.334 311.416 M 415.333 358.693 C 402.976 378.011, 397.115 403.058, 399.841 424.901 C 400.522 430.361, 401.982 438.130, 403.084 442.164 C 405.308 450.303, 413.562 467.878, 417.304 472.441 L 419.716 475.382 425.479 469.941 C 435.980 460.026, 443.283 448.048, 447.201 434.309 C 448.969 428.111, 449.428 423.921, 449.428 414 C 449.428 396.630, 445.933 384.796, 436.729 371 C 433.528 366.203, 421.085 353, 419.764 353 C 419.330 353, 417.336 355.562, 415.333 358.693 M 582.703 357.031 C 572.509 366.003, 563.081 382.026, 559.478 396.500 C 557.026 406.352, 557.191 423.127, 559.839 433.136 C 562.550 443.379, 567.656 453.222, 574.881 462.133 C 582.351 471.347, 587.826 475.859, 589.132 473.881 C 597.304 461.502, 602.011 451.092, 605.229 438.274 C 607.027 431.111, 607.432 426.654, 607.432 414 C 607.432 396.400, 605.773 387.712, 599.635 373.173 C 596.277 365.217, 589.177 353.027, 587.891 353.009 C 587.556 353.004, 585.221 354.814, 582.703 357.031 M 163 646.818 C 163 674.976, 163.664 678.911, 169.585 685.828 C 171.581 688.161, 175.079 691.066, 177.357 692.284 L 181.500 694.500 507.397 694.756 L 833.294 695.012 838.397 692.665 C 841.204 691.374, 845.175 688.585, 847.221 686.468 C 853.479 679.993, 854 677.024, 854 647.822 L 854 622 508.500 622 L 163 622 163 646.818 M 451.675 718.658 C 451.304 719.030, 451 729.383, 451 741.667 L 451 764 393.750 764.066 C 362.262 764.103, 333.575 764.356, 330 764.628 C 322.828 765.174, 318.791 767.050, 315.605 771.320 C 313.674 773.906, 313.474 775.667, 313.188 792.570 L 312.876 811 505.438 811 L 698 811 698 793.148 C 698 776.281, 697.876 775.113, 695.750 771.990 C 694.513 770.172, 692.229 767.743, 690.676 766.592 C 687.887 764.526, 687.077 764.498, 626.176 764.359 L 564.500 764.217 564 741.359 L 563.500 718.500 507.925 718.242 C 477.359 718.100, 452.046 718.287, 451.675 718.658" stroke="none" fill="#000000" fill-rule="evenodd"/></svg>