<svg xmlns="http://www.w3.org/2000/svg" width="1024" height="1024" viewBox="0 0 1024 1024" version="1.1"><path d="M 359.500 164.126 C 329.047 167.022, 296.974 178.456, 271 195.676 C 222.791 227.637, 192.459 275.143, 182.361 334.500 C 180.246 346.932, 179.955 381.574, 181.866 393.500 C 185.365 415.343, 192.270 436.706, 202.068 456.006 C 207.995 467.679, 219.464 486, 220.845 486 C 221.261 486, 224.053 483.836, 227.050 481.192 C 258.788 453.191, 297.946 434.466, 340.690 426.848 C 351.929 424.846, 356.749 424.568, 380 424.588 C 402.521 424.607, 408.152 424.921, 417.500 426.680 C 423.550 427.818, 428.804 428.469, 429.176 428.125 C 429.548 427.781, 432.192 423, 435.050 417.500 C 461.017 367.542, 505.231 327.526, 556.500 307.580 C 562 305.441, 566.882 303.355, 567.349 302.946 C 568.752 301.717, 558.073 276.486, 550.709 263.634 C 534.858 235.966, 514.912 214.521, 488.583 196.840 C 450.301 171.131, 405.427 159.759, 359.500 164.126 M 331 218.395 C 295.840 230.944, 262.884 260.318, 246.287 293.898 C 242.113 302.342, 241.539 304.284, 241.521 310 C 241.495 317.962, 244.668 324.112, 251.101 328.570 C 254.942 331.232, 256.085 331.500, 263.578 331.500 C 275.133 331.500, 278.534 329.052, 285.870 315.454 C 300.793 287.796, 318.701 271.623, 345.628 261.488 C 354.604 258.109, 358.724 254.789, 361.598 248.617 C 365.735 239.733, 364.482 231.101, 357.985 223.720 C 351.159 215.966, 342.559 214.269, 331 218.395 M 620.054 326.078 C 584.415 330.093, 545.878 346.420, 516.921 369.775 C 506.233 378.395, 487.646 398.005, 480.177 408.542 C 472.938 418.753, 463 436.028, 463 438.400 C 463 439.280, 463.625 440, 464.389 440 C 466.963 440, 495.423 454.707, 504.500 460.727 C 525.521 474.670, 545.650 492.747, 559.928 510.505 C 575.513 529.890, 591.711 558.700, 599.334 580.593 C 608.380 606.577, 612.348 630.867, 612.303 660 C 612.272 680.872, 610.925 692.662, 606.323 712.344 C 604.929 718.308, 604.173 723.548, 604.644 723.988 C 606.534 725.754, 628.509 728, 643.898 728 C 675.720 728, 700.563 722.436, 728.795 708.985 C 754.640 696.671, 775.879 680.490, 794.293 659.083 C 828.055 619.835, 845.529 570.811, 843.689 520.500 C 842.235 480.715, 830.709 445.069, 808.930 413 C 777.951 367.384, 730.455 336.691, 676.500 327.422 C 665.594 325.548, 631.885 324.746, 620.054 326.078 M 674.500 378.504 C 669.387 380.313, 662.493 387.562, 661.095 392.597 C 658.434 402.179, 660.839 411.249, 667.494 416.734 C 669.558 418.436, 674.903 421.209, 679.373 422.897 C 705.553 432.786, 727.610 453.093, 739.399 478.161 C 747.138 494.619, 765.577 498.101, 777.129 485.287 C 784.813 476.765, 784.826 468.962, 777.186 453.591 C 765.878 430.843, 746.648 409.560, 724 394.728 C 710.027 385.577, 689.333 376.937, 681.645 377.044 C 679.915 377.068, 676.700 377.725, 674.500 378.504 M 358 459.103 C 254.495 470.740, 176.439 561.193, 180.324 665 C 181.205 688.553, 185.172 708.780, 192.989 729.593 C 213.671 784.653, 256.920 828.083, 311.318 848.414 C 391.984 878.563, 481.585 852.440, 535.688 783 C 548.774 766.204, 561.761 741.949, 568.348 722 C 576.395 697.634, 580.051 668.634, 578.129 644.422 C 570.412 547.221, 496.414 469.993, 400.500 459.044 C 390.075 457.854, 368.847 457.883, 358 459.103 M 332 512.603 C 296.994 524.512, 264.143 553.159, 247.450 586.332 C 242.528 596.114, 242 597.790, 242 603.631 C 242 617.094, 250.864 626, 264.264 626 C 272.689 626, 278.616 622.426, 282.830 614.805 C 291.145 599.769, 297.274 590.863, 304.735 582.976 C 316.565 570.470, 327.722 563.133, 347.199 555.051 C 359.120 550.104, 363.980 543.453, 363.994 532.066 C 364.006 523.047, 356.364 513.336, 347.499 511.104 C 341.508 509.595, 340.574 509.686, 332 512.603" stroke="none" fill="#000000" fill-rule="evenodd"/></svg>