<svg xmlns="http://www.w3.org/2000/svg" width="1024" height="1024" viewBox="0 0 1024 1024" version="1.1"><path d="M 435.337 203.514 C 432.630 205.137, 430.443 207.518, 429.087 210.321 C 427.021 214.587, 427 215.499, 427 299.423 C 427 379.767, 427.092 384.179, 428.750 383.538 C 435.290 381.014, 455.198 375.569, 465.367 373.524 C 484.356 369.705, 497.912 368.668, 520.369 369.316 C 545.843 370.051, 565.948 373.613, 588.925 381.463 C 593.009 382.858, 596.496 384, 596.675 384 C 596.854 384, 597 345.892, 597 299.316 C 597 215.382, 596.981 214.593, 594.904 210.302 C 593.506 207.415, 591.394 205.143, 588.566 203.486 L 584.324 201 511.912 201.009 L 439.500 201.019 435.337 203.514 M 487 408.520 C 450.541 413.044, 415.796 427.149, 386.597 449.280 C 376.201 457.159, 358.587 474.254, 350.308 484.500 C 320.536 521.344, 304.041 567.940, 304.008 615.289 C 303.986 647.451, 310.766 676.730, 324.959 705.760 C 355.412 768.046, 417.082 812.601, 485.305 821.603 C 500.246 823.574, 533.865 823.039, 546.811 820.623 C 581.837 814.087, 613.869 799.401, 642.036 776.964 C 651.649 769.306, 670.179 750.559, 677.088 741.500 C 698.466 713.470, 711.889 682.768, 717.527 649 C 719.767 635.582, 720.537 608.837, 719.083 594.944 C 714.777 553.789, 698.675 514.834, 673.054 483.592 C 665.158 473.962, 647.283 456.769, 637.313 449.212 C 594.544 416.795, 539.782 401.970, 487 408.520 M 488.870 458.475 C 470.661 461.447, 460.169 464.854, 442.500 473.535 C 400.881 493.981, 370.040 531.622, 358.960 575.493 C 354.661 592.515, 353.665 602.255, 354.306 621 C 355.377 652.302, 363.333 677.154, 380.711 703.472 C 389.579 716.903, 410.764 738.152, 424 746.892 C 442.165 758.887, 463.887 767.629, 485.500 771.643 C 500.222 774.377, 527.795 774.147, 541.664 771.175 C 556.845 767.922, 569.126 763.655, 582.500 756.986 C 598.426 749.045, 611.232 739.778, 624 726.954 C 654.532 696.287, 670.234 658.474, 670.282 615.500 C 670.314 586.549, 662.740 558.958, 648.021 534.405 C 640.438 521.755, 635.030 514.917, 623.554 503.471 C 610.587 490.536, 597.717 481.362, 581.500 473.494 C 556.924 461.571, 542.405 458.043, 515.500 457.457 C 503.045 457.186, 494.841 457.500, 488.870 458.475 M 493.749 496.556 C 482.621 498.288, 465.660 503.942, 456 509.140 C 449.127 512.838, 433.446 523.469, 432.423 525.125 C 432.186 525.509, 434.837 527.414, 438.315 529.359 C 457.697 540.199, 473.406 556.718, 482.056 575.357 C 493.049 599.047, 493.800 626.642, 484.128 651.500 C 477.144 669.451, 460.777 688.385, 442.704 699.424 C 431.223 706.436, 431.038 705.581, 446.207 715.684 C 474.387 734.453, 509.990 740.287, 542.775 731.509 C 558.886 727.195, 571.248 721.120, 585.324 710.600 C 591.187 706.218, 591.902 705.359, 590.403 704.500 C 589.444 703.950, 584.123 700.507, 578.579 696.849 C 531.388 665.710, 519.462 606.377, 551.152 560.395 C 559.387 548.447, 573.986 535.611, 586.682 529.155 C 588.982 527.985, 591.139 526.584, 591.474 526.041 C 592.371 524.590, 577.719 514.090, 567.257 508.687 C 544.632 497.002, 518.544 492.696, 493.749 496.556 M 404.127 562.775 C 390.525 589.842, 388.098 624.735, 397.841 653.121 C 399.423 657.729, 402.013 664.309, 403.597 667.742 C 406.920 674.948, 406.141 674.891, 418.774 668.866 C 433.249 661.962, 445.562 648.103, 450.638 633 C 453.248 625.234, 453.230 606.674, 450.605 599 C 443.920 579.458, 430.375 565.937, 409.551 558.019 C 407.149 557.106, 406.838 557.379, 404.127 562.775 M 608.097 561.013 C 590.707 569.422, 579.856 581.131, 574.285 597.500 C 570.652 608.175, 570.498 623.040, 573.918 633 C 579.926 650.495, 592.584 663.818, 610.034 671.014 C 614.017 672.656, 617.389 674, 617.529 674 C 618.528 674, 626.596 653.157, 628.656 645.249 C 633.755 625.685, 632.848 598.044, 626.465 578.490 C 623.666 569.916, 618.016 557, 617.063 557 C 616.695 557, 612.660 558.806, 608.097 561.013" stroke="none" fill="#000000" fill-rule="evenodd"/></svg>