<svg xmlns="http://www.w3.org/2000/svg" width="1024" height="1024" viewBox="0 0 1024 1024" version="1.1"><path d="M 197.491 181.865 C 195.287 182.867, 192.036 185.334, 190.268 187.347 C 183.480 195.079, 183.971 167.104, 184.248 530.511 L 184.500 859.500 207.250 859.769 L 230 860.038 230 528.487 C 230 252.592, 229.774 196.396, 228.652 193.718 C 226.583 188.781, 222.011 183.910, 217.541 181.880 C 212.226 179.465, 202.789 179.458, 197.491 181.865 M 681 206.108 C 643.443 209.399, 606.902 217.615, 534 239.158 C 505.001 247.727, 461.908 258.489, 444.932 261.400 C 373.800 273.602, 320.015 267.874, 267.127 242.464 C 260.872 239.459, 255.583 237, 255.375 237 C 255.166 237, 255.109 337.912, 255.248 461.250 L 255.500 685.500 263.500 689.699 C 280.625 698.688, 306.490 707.657, 327.639 711.939 C 361.337 718.764, 404.793 718.788, 445.204 712.006 C 470.785 707.713, 492.166 702.376, 547.668 686.431 C 621.363 665.259, 654.765 658.386, 695.646 655.983 C 744.630 653.103, 791.850 662.281, 831.950 682.475 C 837.070 685.053, 839.179 685.693, 839.529 684.774 C 839.795 684.073, 839.897 582.925, 839.756 460 L 839.500 236.500 830 231.794 C 802.415 218.131, 775.295 210.122, 744.367 206.504 C 730.487 204.880, 697.368 204.673, 681 206.108 M 533.265 319.032 C 509.913 321.487, 485.912 330.618, 465.500 344.814 C 454.307 352.598, 436.772 370.491, 429.165 381.892 C 406.165 416.360, 399.001 456.720, 409 495.498 C 422.776 548.930, 464.544 589.052, 519 601.164 C 533.003 604.279, 561.730 604.516, 574.973 601.626 C 630.143 589.587, 672.853 548.284, 686.644 493.635 C 690.137 479.794, 691.051 454.057, 688.571 439.394 C 679.051 383.107, 637.102 337.043, 582.609 323.037 C 565.575 318.659, 549.346 317.342, 533.265 319.032 M 532.500 350.077 C 515.579 352.408, 496.568 359.802, 483.707 369.053 L 477.913 373.220 480.453 376.360 C 495.471 394.925, 504.668 414.075, 509.601 437.053 C 512.137 448.863, 512.180 474.253, 509.683 486 C 507.438 496.564, 502.711 510.602, 498.743 518.490 C 495.231 525.469, 485.361 540.380, 480.857 545.510 C 479.139 547.467, 477.906 549.221, 478.117 549.409 C 480.059 551.140, 494.616 560.301, 498.693 562.357 C 505.313 565.696, 516.876 569.581, 525.748 571.447 C 554.091 577.409, 583.980 571.471, 608.685 554.970 C 612.983 552.099, 616.649 549.620, 616.831 549.461 C 617.013 549.301, 615.021 546.545, 612.404 543.336 C 598.918 526.797, 590.649 509.532, 585.847 487.886 C 582.803 474.165, 582.603 450.152, 585.419 436.500 C 589.943 414.568, 599.550 394.720, 614.538 376.344 L 617.112 373.187 613.667 370.560 C 603.202 362.577, 584.905 354.443, 570.534 351.385 C 561.676 349.499, 541.683 348.812, 532.500 350.077 M 452.329 401.700 C 446.691 410.513, 441.288 422.786, 438.270 433.630 C 435.743 442.709, 435.523 444.942, 435.517 461.500 C 435.511 481.251, 436.812 488.481, 443.086 503.553 C 445.933 510.390, 455.535 527, 456.641 527 C 458.814 527, 470.118 509.671, 473.950 500.466 C 485.453 472.834, 484.396 442.655, 470.991 416 C 466.871 407.808, 458.605 396, 456.990 396 C 456.432 396, 454.334 398.565, 452.329 401.700 M 632.412 402.183 C 626.301 410.426, 618.564 426.435, 615.827 436.500 C 613.992 443.248, 613.652 447.162, 613.652 461.500 C 613.652 481.754, 615.175 488.822, 622.930 504.557 C 627.352 513.527, 635.769 526.028, 637.896 526.782 C 639.997 527.527, 650.608 507.286, 654.974 494.203 C 664.443 465.834, 660.274 431.005, 644.233 404.454 C 641.630 400.145, 638.959 396.451, 638.298 396.243 C 637.636 396.035, 634.988 398.708, 632.412 402.183" stroke="none" fill="#000000" fill-rule="evenodd"/></svg>