<svg xmlns="http://www.w3.org/2000/svg" width="1024" height="1024" viewBox="0 0 1024 1024" version="1.1"><path d="M 493.500 102.666 C 419.522 106.221, 348.645 129.704, 286.682 171.187 C 201.218 228.405, 139.442 315.405, 114.917 413.086 C 105.135 452.051, 100.645 496.751, 102.924 532.500 C 106.622 590.498, 119.547 640.111, 143.827 689.500 C 184.126 771.476, 250.868 838.488, 332.500 878.938 C 390.852 907.852, 447.934 921.280, 512.500 921.280 C 565.280 921.280, 608.893 913.061, 658.126 893.837 C 730.211 865.690, 794.017 816.990, 840.681 754.500 C 866.298 720.195, 887.451 679.855, 900.582 640.266 C 922.411 574.452, 927.200 507.551, 914.960 439.409 C 904.222 379.627, 876.827 317.136, 840.003 268.420 C 772.186 178.703, 672.153 119.571, 564.500 105.562 C 543.128 102.781, 514.993 101.634, 493.500 102.666 M 494 134.586 C 491.525 134.799, 483.650 135.465, 476.500 136.068 C 416.080 141.155, 352.017 164.616, 300.385 200.564 C 222.307 254.923, 168.942 331.195, 146.085 421.096 C 132.069 476.227, 130.866 533.372, 142.574 588 C 146.527 606.444, 147.740 610, 150.074 610 C 151.184 610, 157.922 608.368, 165.046 606.374 C 179.853 602.229, 179.122 603.240, 176.047 591.167 C 168.474 561.434, 164.998 524.459, 166.960 494.500 C 170.029 447.628, 180.668 405.772, 199.580 366.164 C 206.134 352.439, 215.205 335.938, 217.406 333.737 C 219.204 331.939, 240.806 333.257, 253.958 335.968 C 274.476 340.196, 290.956 346.388, 308.500 356.463 C 353.531 382.321, 384.976 424.913, 395.564 474.390 C 407.704 531.125, 392.392 587.562, 352.712 632.324 C 345.777 640.148, 330.837 652.949, 320.258 660.132 C 304.002 671.171, 283.930 680.238, 264.427 685.354 C 246.936 689.941, 236.320 691.130, 209.500 691.504 C 195.750 691.696, 183.938 691.886, 183.250 691.926 C 180.945 692.062, 182.062 694.426, 191.319 709 L 200.529 723.500 210.514 723.808 C 288.720 726.223, 364.351 684.105, 403.624 616.268 C 441.161 551.432, 440.700 469.591, 402.437 405.432 C 384.859 375.957, 357.683 348.640, 328.500 331.111 C 306.111 317.663, 277.995 307.280, 252.500 303.045 C 241.962 301.295, 241 301.042, 241 300.019 C 241 299.500, 244.301 295.121, 248.336 290.288 C 275.107 258.221, 308.900 230.498, 347.500 208.936 C 385.747 187.570, 432.156 172.862, 477 167.892 C 491.694 166.264, 534.475 166.252, 547.500 167.872 C 594.148 173.676, 636.122 186.729, 673.500 207.054 C 689.780 215.907, 714.115 232.093, 728.500 243.638 C 742.561 254.922, 764.856 276.670, 775.341 289.330 C 779.828 294.749, 783.650 299.591, 783.833 300.091 C 784.017 300.591, 781.755 301, 778.807 301 C 756.265 301, 722 309.957, 697.500 322.254 C 675.738 333.177, 658.016 345.671, 642.131 361.289 C 616.714 386.279, 599.460 413.348, 589.090 444.500 C 567.137 510.451, 577.709 578.920, 618.696 636.244 C 625.759 646.121, 645.621 666.918, 655.937 675.238 C 680.439 694.998, 710.478 709.862, 741.080 717.371 C 759.810 721.967, 770.101 723.114, 797.500 723.661 L 823.500 724.180 827.428 717.840 C 839.074 699.039, 842.082 693.746, 841.726 692.678 C 841.437 691.810, 833.069 691.475, 809.917 691.404 C 774.972 691.298, 766.096 690.475, 746.500 685.526 C 701.051 674.047, 663.311 646.800, 637.042 606.500 C 626.640 590.541, 617.047 566.584, 612.892 546.188 C 610.297 533.448, 609.274 504.913, 610.927 491.379 C 615.965 450.144, 634.013 413.711, 663.643 384.967 C 675.799 373.173, 683.188 367.266, 694.760 360.089 C 729.928 338.277, 762.638 330.966, 819.250 332.264 C 838.826 332.713, 842 332.581, 842 331.318 C 842 327.851, 823.559 299.263, 810.509 282.500 C 746.414 200.168, 653.951 147.748, 553 136.509 C 539.719 135.031, 502.810 133.827, 494 134.586" stroke="none" fill="#000000" fill-rule="evenodd"/></svg>