<svg xmlns="http://www.w3.org/2000/svg" width="1024" height="1024" viewBox="0 0 1024 1024" version="1.1"><path d="M 266.860 182.568 C 260.280 184.594, 252.928 191.540, 249.662 198.817 C 247.169 204.374, 246.763 204.768, 243.031 205.269 C 234.774 206.377, 227.382 213.730, 226.282 221.931 L 225.736 226.005 409.618 225.753 L 593.500 225.500 593.164 222.500 C 592.276 214.582, 584.429 206.647, 576.079 205.225 C 571.942 204.520, 571.561 204.183, 570.164 199.991 C 567.848 193.045, 558.843 184.592, 551.477 182.450 C 543.748 180.203, 533.972 180.875, 527.521 184.096 C 521.496 187.106, 515.478 193.884, 513.241 200.184 L 511.512 205.052 497.588 204.776 L 483.664 204.500 482.167 200.005 C 479.999 193.496, 471.056 184.844, 464.111 182.537 C 452.781 178.774, 438.390 182.236, 431.166 190.464 C 427.659 194.458, 424 201.094, 424 203.460 C 424 204.776, 421.889 205, 409.500 205 C 397.138 205, 395 204.774, 395 203.467 C 395 200.756, 390.280 192.595, 386.839 189.358 C 380.424 183.321, 375.506 181.514, 365.500 181.516 C 357.659 181.518, 355.839 181.866, 351.362 184.219 C 345.072 187.526, 339.490 193.853, 337.217 200.252 L 335.512 205.052 321.598 204.776 L 307.683 204.500 306.092 200 C 303.851 193.664, 294.922 184.835, 288.572 182.676 C 282.646 180.661, 273.208 180.614, 266.860 182.568 M 226 261.847 C 226 263.962, 226.452 276, 227.004 288.597 C 227.555 301.194, 228.894 333.775, 229.978 361 C 231.062 388.225, 232.229 414.675, 232.570 419.777 L 233.191 429.054 370.845 428.737 C 494.251 428.452, 509.189 428.250, 515.152 426.782 C 530.018 423.124, 544.732 415.500, 556.783 405.211 C 566.705 396.740, 577.981 380.601, 582.656 368.181 C 588.103 353.711, 588.910 347.650, 591.006 305.500 C 592.099 283.500, 592.996 263.813, 592.997 261.750 L 593 258 409.500 258 L 226 258 226 261.847 M 799.929 408.312 C 784.853 412.560, 772.547 426.701, 769.964 442.745 C 765.861 468.218, 785.961 492, 811.592 492 C 823.554 492, 836.752 485.870, 843.876 477.005 C 861.632 454.910, 854.502 422.558, 829.274 410.745 C 823.495 408.040, 821.178 407.533, 813.500 407.299 C 808.309 407.140, 802.565 407.569, 799.929 408.312 M 694.562 432.491 C 691.643 433.530, 685.103 439.409, 669.311 455.189 C 657.589 466.902, 647.323 477.906, 646.499 479.643 C 640.642 491.985, 651.478 505.175, 664.733 501.837 C 668.638 500.854, 671.677 498.169, 690.826 478.788 C 702.747 466.723, 713.047 455.872, 713.715 454.676 C 715.375 451.702, 715.307 443.490, 713.595 440.200 C 711.660 436.481, 708.139 433.491, 704.101 432.139 C 699.906 430.734, 699.446 430.751, 694.562 432.491 M 234.564 461.896 C 234.239 462.423, 234.634 476.949, 235.443 494.177 C 236.252 511.405, 238.294 558.800, 239.981 599.500 C 241.668 640.200, 243.288 676.200, 243.580 679.500 L 244.111 685.500 259.305 685.586 C 272.826 685.662, 275.485 685.970, 283.438 688.386 C 295.101 691.928, 307.662 698.488, 317 705.913 C 340.367 724.495, 354.664 757.014, 352.540 786.750 L 351.879 796 422.738 796 L 493.596 796 494.707 787.197 C 497.080 768.400, 504.643 752.566, 517.500 739.477 C 531.345 725.383, 548.889 716.640, 565.969 715.323 L 574.069 714.698 573.759 623.599 L 573.449 532.500 571.190 525.137 C 561.299 492.905, 541.019 472.404, 510.500 463.787 L 502.500 461.528 368.828 461.233 C 284.350 461.046, 234.939 461.290, 234.564 461.896 M 733.184 510.105 C 730.773 510.822, 721.491 519.558, 699.184 542.103 C 682.308 559.159, 667.712 574.544, 666.750 576.291 C 664.449 580.470, 664.536 585.410, 667 590.500 C 670.842 598.436, 681.602 601.490, 689 596.745 C 694.276 593.361, 751.700 534.922, 752.930 531.685 C 757.782 518.917, 746.180 506.238, 733.184 510.105 M 813.390 547.938 C 808.941 549.014, 808.570 549.345, 785.879 572.500 C 763.837 594.991, 762.209 597.360, 763.508 605.048 C 764.862 613.063, 774.134 619.119, 782.654 617.551 C 785.970 616.941, 789.495 613.863, 808.232 595.220 C 820.184 583.327, 830.698 572.049, 831.596 570.157 C 833.676 565.774, 833.026 557.853, 830.285 554.176 C 826.491 549.085, 819.428 546.477, 813.390 547.938 M 249.547 718.067 C 226.594 721.582, 206.785 738.126, 198.958 760.317 C 195.940 768.871, 195.193 785.901, 197.419 795.387 C 202.874 818.638, 223.052 838.045, 246.421 842.516 C 256.122 844.372, 261.609 844.365, 270.500 842.485 C 294.289 837.453, 313.230 818.855, 318.975 794.887 C 322.580 779.850, 321.001 766.655, 313.841 752 C 302.343 728.464, 275.200 714.138, 249.547 718.067 M 559.762 749.942 C 537.934 756.920, 523.146 780.562, 526.804 802.634 C 530.218 823.238, 546.320 839.714, 566.335 843.084 C 578.416 845.118, 591.850 841.893, 601.796 834.571 C 633.350 811.342, 625.300 761.447, 588.145 749.964 C 579.946 747.430, 567.649 747.421, 559.762 749.942" stroke="none" fill="#000000" fill-rule="evenodd"/><path d="M 1 512 L 1 1023 512 1023 L 1023 1023 1023 512 L 1023 1 512 1 L 1 1 1 512 M 266.860 182.568 C 260.280 184.594, 252.928 191.540, 249.662 198.817 C 247.169 204.374, 246.763 204.768, 243.031 205.269 C 234.775 206.376, 227.382 213.730, 226.283 221.928 L 225.737 226 409.368 226 L 593 226 592.984 222.750 C 592.946 215.258, 584.680 206.690, 576.079 205.225 C 571.942 204.520, 571.561 204.183, 570.164 199.991 C 567.848 193.045, 558.843 184.592, 551.477 182.450 C 543.748 180.203, 533.972 180.875, 527.521 184.096 C 521.496 187.106, 515.478 193.884, 513.241 200.184 L 511.512 205.052 497.588 204.776 L 483.664 204.500 482.167 200.005 C 479.999 193.496, 471.056 184.844, 464.111 182.537 C 452.781 178.774, 438.390 182.236, 431.166 190.464 C 427.659 194.458, 424 201.094, 424 203.460 C 424 204.776, 421.889 205, 409.500 205 C 397.138 205, 395 204.774, 395 203.467 C 395 200.756, 390.280 192.595, 386.839 189.358 C 380.424 183.321, 375.506 181.514, 365.500 181.516 C 357.659 181.518, 355.839 181.866, 351.362 184.219 C 345.072 187.526, 339.490 193.853, 337.217 200.252 L 335.512 205.052 321.598 204.776 L 307.683 204.500 306.092 200 C 303.851 193.664, 294.922 184.835, 288.572 182.676 C 282.646 180.661, 273.208 180.614, 266.860 182.568 M 226 261.847 C 226 263.962, 226.452 276, 227.004 288.597 C 227.555 301.194, 228.894 333.775, 229.978 361 C 231.062 388.225, 232.229 414.675, 232.570 419.777 L 233.191 429.054 370.845 428.737 C 494.251 428.452, 509.189 428.250, 515.152 426.782 C 530.018 423.124, 544.732 415.500, 556.783 405.211 C 566.705 396.740, 577.981 380.601, 582.656 368.181 C 588.103 353.711, 588.910 347.650, 591.006 305.500 C 592.099 283.500, 592.996 263.813, 592.997 261.750 L 593 258 409.500 258 L 226 258 226 261.847 M 799.929 408.312 C 784.853 412.560, 772.547 426.701, 769.964 442.745 C 765.861 468.218, 785.961 492, 811.592 492 C 823.554 492, 836.752 485.870, 843.876 477.005 C 861.632 454.910, 854.502 422.558, 829.274 410.745 C 823.495 408.040, 821.178 407.533, 813.500 407.299 C 808.309 407.140, 802.565 407.569, 799.929 408.312 M 694.562 432.491 C 691.643 433.530, 685.103 439.409, 669.311 455.189 C 657.589 466.902, 647.323 477.906, 646.499 479.643 C 640.642 491.985, 651.478 505.175, 664.733 501.837 C 668.638 500.854, 671.677 498.169, 690.826 478.788 C 702.747 466.723, 713.047 455.872, 713.715 454.676 C 715.375 451.702, 715.307 443.490, 713.595 440.200 C 711.660 436.481, 708.139 433.491, 704.101 432.139 C 699.906 430.734, 699.446 430.751, 694.562 432.491 M 234.564 461.896 C 234.239 462.423, 234.635 476.949, 235.444 494.177 C 236.254 511.405, 238.301 559.025, 239.994 600 C 241.688 640.975, 243.307 676.808, 243.593 679.630 L 244.114 684.760 259.307 685.251 C 277.104 685.825, 286.799 688.218, 300.938 695.525 C 334.178 712.702, 355.178 749.827, 352.540 786.750 L 351.879 796 422.738 796 L 493.596 796 494.707 787.197 C 497.080 768.400, 504.643 752.566, 517.500 739.477 C 531.345 725.383, 548.889 716.640, 565.969 715.323 L 574.069 714.698 573.759 623.599 L 573.449 532.500 571.190 525.137 C 561.299 492.905, 541.019 472.404, 510.500 463.787 L 502.500 461.528 368.828 461.233 C 284.350 461.046, 234.939 461.290, 234.564 461.896 M 733.184 510.105 C 730.773 510.822, 721.491 519.558, 699.184 542.103 C 682.308 559.159, 667.712 574.544, 666.750 576.291 C 664.449 580.470, 664.536 585.410, 667 590.500 C 670.842 598.436, 681.602 601.490, 689 596.745 C 694.276 593.361, 751.700 534.922, 752.930 531.685 C 757.782 518.917, 746.180 506.238, 733.184 510.105 M 813.390 547.938 C 808.941 549.014, 808.570 549.345, 785.879 572.500 C 763.837 594.991, 762.209 597.360, 763.508 605.048 C 764.862 613.063, 774.134 619.119, 782.654 617.551 C 785.970 616.941, 789.495 613.863, 808.232 595.220 C 820.184 583.327, 830.698 572.049, 831.596 570.157 C 833.676 565.774, 833.026 557.853, 830.285 554.176 C 826.491 549.085, 819.428 546.477, 813.390 547.938 M 249.547 718.067 C 226.594 721.582, 206.785 738.126, 198.958 760.317 C 195.940 768.871, 195.193 785.901, 197.419 795.387 C 202.874 818.638, 223.052 838.045, 246.421 842.516 C 256.122 844.372, 261.609 844.365, 270.500 842.485 C 294.289 837.453, 313.230 818.855, 318.975 794.887 C 322.580 779.850, 321.001 766.655, 313.841 752 C 302.343 728.464, 275.200 714.138, 249.547 718.067 M 559.762 749.942 C 537.934 756.920, 523.146 780.562, 526.804 802.634 C 530.218 823.238, 546.320 839.714, 566.335 843.084 C 578.416 845.118, 591.850 841.893, 601.796 834.571 C 633.350 811.342, 625.300 761.447, 588.145 749.964 C 579.946 747.430, 567.649 747.421, 559.762 749.942" stroke="none" fill="#ffffff" fill-rule="evenodd"/></svg>