<svg xmlns="http://www.w3.org/2000/svg" width="1024" height="1024" viewBox="0 0 1024 1024" version="1.1"><path d="M 570 256.765 L 570 336.531 575.250 338.366 C 600.936 347.346, 629.249 366.926, 649.190 389.500 C 687.207 432.538, 703.283 492.280, 691.940 548.371 C 679.953 607.652, 638.885 658.007, 582.500 682.564 L 570.500 687.790 570.244 768.895 L 569.988 850 653.994 850 L 738 850 738 513.500 L 738 177 654 177 L 570 177 570 256.765 M 492.265 358.961 C 460.804 362.576, 429.850 376.920, 405.518 399.157 L 399.826 404.360 402.163 406.234 C 403.448 407.264, 412.214 413.237, 421.642 419.506 C 441.196 432.510, 448.884 439.184, 457.213 450.388 C 482.873 484.908, 484.274 532.393, 460.695 568.410 C 451.881 581.874, 442.039 590.991, 421.834 604.410 C 412.300 610.742, 403.438 616.767, 402.139 617.799 L 399.779 619.675 406.465 625.588 C 428.203 644.809, 452.571 657.075, 481 663.108 C 496.559 666.410, 524.036 666.417, 539.480 663.123 C 566.313 657.400, 588.862 646.236, 610.750 627.835 C 615.288 624.021, 619 620.510, 619 620.034 C 619 618.735, 613.155 614.402, 596 602.986 C 587.475 597.313, 577.249 589.530, 573.274 585.690 C 560.063 572.926, 550.249 555.988, 545.354 537.500 C 541.707 523.726, 541.461 502.046, 544.800 488.660 C 552.263 458.745, 565.017 441.863, 595.784 421.180 C 619.773 405.053, 618.972 405.635, 618.987 404.319 C 619.007 402.487, 604.569 390.337, 594.535 383.743 C 578.013 372.883, 558.575 364.796, 539.688 360.924 C 528.238 358.577, 504.250 357.584, 492.265 358.961 M 377.219 434.250 C 368.082 450.261, 362.668 464.350, 358.870 482 C 356.961 490.874, 356.611 495.520, 356.611 512 C 356.611 528.480, 356.961 533.126, 358.870 542 C 362.126 557.131, 365.200 565.795, 372.529 580.500 C 381.827 599.155, 380.571 598.242, 388.704 592.254 C 392.442 589.502, 401.429 583.344, 408.676 578.569 C 424.745 567.982, 433.689 559.016, 439.694 547.473 C 449.979 527.702, 451.452 506.256, 443.939 485.671 C 437.823 468.911, 427.734 457.718, 406 443.578 C 398.575 438.748, 390.208 433.042, 387.408 430.898 C 384.607 428.754, 382.100 427, 381.836 427 C 381.572 427, 379.495 430.262, 377.219 434.250 M 630.479 432.106 C 626.640 434.914, 617.650 441.054, 610.500 445.750 C 589.351 459.641, 580.055 471.117, 573.843 491 C 571.890 497.251, 571.500 500.664, 571.501 511.500 C 571.502 519.187, 572.064 526.748, 572.876 530 C 576.209 543.341, 585.781 559.290, 595.238 567.259 C 598.132 569.698, 608.085 576.825, 617.355 583.097 C 626.625 589.368, 635.042 595.104, 636.059 595.841 C 637.734 597.057, 638.228 596.682, 641.319 591.841 C 658.125 565.523, 666.606 528.270, 663.024 496.500 C 661.485 482.844, 657.303 465.936, 652.632 454.479 C 648.978 445.515, 639.167 427, 638.071 427 C 637.734 427, 634.317 429.298, 630.479 432.106" stroke="none" fill="#000000" fill-rule="evenodd"/></svg>