<svg xmlns="http://www.w3.org/2000/svg" width="1024" height="1024" viewBox="0 0 1024 1024" version="1.1"><path d="M 472.629 157.550 C 450.072 160.622, 432.471 166.142, 410.500 177.033 C 400.046 182.215, 391.037 187.560, 384.509 192.454 C 379.015 196.573, 374.392 200.325, 374.236 200.792 C 374.080 201.259, 377.676 204.522, 382.227 208.044 C 435.160 249.013, 460.804 318.302, 446.897 382.786 C 437.931 424.362, 415.613 459.750, 381.500 486.482 C 378.750 488.637, 376.092 490.741, 375.592 491.158 C 372.236 493.960, 402.410 514.106, 422.688 522.602 C 474.121 544.150, 530.280 542.849, 579.500 518.970 C 595.154 511.375, 620.069 494.912, 619.974 492.227 C 619.960 491.827, 617.614 489.925, 614.760 488 C 611.907 486.075, 605.134 480.249, 599.709 475.054 C 572.103 448.613, 554.423 416.871, 546.871 380.188 C 543.965 366.072, 543.244 338.036, 545.413 323.500 C 547.223 311.371, 551.076 295.764, 554.548 286.496 C 566.088 255.695, 587.992 226.332, 613.501 207.467 L 621.363 201.653 617.431 198.233 C 615.269 196.353, 608.834 191.686, 603.130 187.863 C 565.776 162.822, 517.040 151.502, 472.629 157.550 M 352.003 222.714 C 343.994 231.426, 331.459 250.338, 325.084 263.333 C 304.651 304.978, 300.522 356.470, 313.982 401.779 C 321.442 426.888, 336.084 452.864, 354.356 473.402 L 358.718 478.305 367.109 471.964 C 395.368 450.608, 415.398 422.032, 424.513 390.066 C 428.703 375.372, 430.253 363.713, 430.239 347 C 430.209 310.650, 419.677 279.924, 397.502 251.500 C 388.314 239.723, 372.116 224.731, 360.871 217.597 L 358.242 215.929 352.003 222.714 M 626.402 222.643 C 596.498 244.956, 574.814 279.043, 566.875 316.218 C 564.255 328.486, 563.321 352.552, 564.958 365.624 C 570.258 407.960, 592.052 445.375, 626.585 471.422 L 635.353 478.036 638.285 475.268 C 642.871 470.937, 653.477 457.048, 659.394 447.624 C 687.853 402.295, 695.412 345.048, 679.879 292.500 C 671.789 265.132, 659.278 241.938, 641.495 221.340 C 638.959 218.403, 636.529 216, 636.095 216 C 635.660 216, 631.299 218.989, 626.402 222.643 M 194.500 486.431 C 189.263 488.345, 183.621 494.746, 181.900 500.724 C 181.143 503.351, 180.598 508.425, 180.689 512 C 180.888 519.918, 194.240 600.559, 197.070 610.941 C 198.381 615.749, 205.679 631.497, 217.692 655.441 C 245.897 711.658, 249.639 717.908, 261.713 728.977 C 268.961 735.622, 289.693 750.635, 320.500 771.547 C 342.790 786.678, 351.961 795.176, 356.831 805.213 C 361.932 815.725, 362.963 822.685, 362.983 846.750 L 363 868 424.884 868 L 486.767 868 487.485 832.750 C 488.868 764.772, 485.403 736.738, 472.397 710.675 C 466.015 697.888, 462.969 693.830, 450.069 680.937 C 440.587 671.460, 435.217 667.175, 420.304 657.189 C 394.546 639.940, 384.120 631.283, 362.521 609.206 C 334.610 580.678, 326.669 575.029, 314.446 575.010 C 298.711 574.984, 288.762 587.725, 292.025 603.722 C 293.981 613.309, 299.433 622.268, 310.970 634.854 C 337.681 663.994, 355 685.309, 355 689.043 C 355 691.682, 353.361 691.520, 344.518 688.007 C 330.348 682.378, 310.330 671.492, 300.755 664.207 C 294.175 659.200, 275.854 633.164, 256.332 601.075 C 248.992 589.010, 247.477 584.488, 241.900 558 C 233.721 519.149, 229.587 506.227, 222.233 496.532 C 215.013 487.013, 203.939 482.980, 194.500 486.431 M 812.419 487.386 C 804.607 491.023, 797.635 500.632, 792.673 514.600 C 791.286 518.505, 787.397 534.373, 784.030 549.862 C 774.778 592.428, 776.478 588.511, 749.291 629.896 C 730.857 657.957, 728.448 660.911, 718.730 667.368 C 704.534 676.801, 675.541 691, 670.474 691 C 669.663 691, 669 690.286, 669 689.413 C 669 685.488, 686.600 663.695, 713.563 634.234 C 729.583 616.730, 734.854 604.865, 732.093 592.524 C 729.564 581.223, 721.601 575, 709.671 575 C 697.538 575, 686.816 582.752, 660.532 610.525 C 643.576 628.441, 631.593 638.358, 605.757 655.854 C 575.520 676.331, 561.031 691.290, 550.892 712.500 C 542.284 730.507, 538.598 747.380, 537.007 776.051 C 535.865 796.624, 535.747 821.120, 536.658 848.339 L 537.317 868 599.158 868 L 661 868 661.017 846.750 C 661.037 822.632, 662.073 815.675, 667.203 805.213 C 672.504 794.402, 681.016 786.807, 709.934 767.089 C 758.690 733.843, 765.951 727.895, 775.736 713.189 C 783.408 701.658, 822.404 624.705, 826 614 C 829.804 602.673, 844.438 513.722, 843.499 507.629 C 842.332 500.061, 839.988 494.380, 836.728 491.225 C 829.994 484.708, 821.164 483.313, 812.419 487.386" stroke="none" fill="#000000" fill-rule="evenodd"/></svg>