<svg xmlns="http://www.w3.org/2000/svg" width="1024" height="1024" viewBox="0 0 1024 1024" version="1.1"><path d="M 570.500 172.618 C 500.632 179.838, 440.066 214.574, 399.830 270.500 C 378.019 300.817, 363.951 336.135, 357.810 376 C 355.836 388.813, 356.128 429.723, 358.288 442.901 C 363.980 477.630, 376.456 509.339, 395.605 537.742 C 405.895 553.006, 414.598 563.428, 427.157 575.527 C 472.965 619.657, 529.808 643, 591.465 643 C 629.191 643, 662.084 635.249, 696 618.366 C 740.298 596.315, 777.592 560.049, 800.454 516.791 C 820.417 479.018, 830.214 433.797, 827.165 393.500 C 822.505 331.921, 798.646 280.054, 755.858 238.488 C 731.301 214.632, 702.959 196.793, 671.745 185.547 C 646.960 176.617, 625.558 172.908, 596.500 172.508 C 584.400 172.341, 572.700 172.390, 570.500 172.618 M 521.077 228.589 C 512.999 235.386, 521.536 248.394, 530.897 243.553 C 536.713 240.546, 537.927 233.200, 533.364 228.636 C 529.869 225.142, 525.195 225.123, 521.077 228.589 M 550.923 228.923 C 546.369 233.477, 547.686 241.169, 553.472 243.805 C 557.389 245.590, 559.519 245.276, 562.923 242.411 C 565.511 240.233, 566 239.114, 566 235.366 C 566 226.487, 557.144 222.702, 550.923 228.923 M 581.495 228.414 C 578.132 231.777, 577.508 235.160, 579.483 239.323 C 583.590 247.977, 595.400 245.894, 596.688 236.288 C 597.186 232.575, 596.903 231.749, 594.202 229.048 C 590.274 225.120, 585.050 224.859, 581.495 228.414 M 611.455 228.455 C 608.110 231.799, 608.082 237.822, 611.394 241.672 C 613.307 243.896, 614.633 244.455, 618 244.455 C 623.528 244.455, 627 240.767, 627 234.896 C 627 226.872, 617.128 222.781, 611.455 228.455 M 641.923 228.923 C 635.954 234.892, 639.596 244.455, 647.837 244.455 C 653.652 244.455, 657 241.102, 657 235.280 C 657 226.486, 648.109 222.737, 641.923 228.923 M 494 255.706 C 488.552 257.698, 485.906 263.984, 488.447 268.897 C 491.597 274.989, 499.132 276.009, 503.411 270.923 C 507.750 265.766, 505.954 258.225, 499.881 256.108 C 496.431 254.906, 496.228 254.892, 494 255.706 M 522.775 256.559 C 514.277 261.171, 517.518 274, 527.182 274 C 532.401 274, 536 270.523, 536 265.480 C 536 260.583, 534.479 258.098, 530.452 256.415 C 526.348 254.701, 526.194 254.703, 522.775 256.559 M 552.826 256.712 C 547.343 260.114, 546.480 266.633, 550.923 271.077 C 556.960 277.114, 566.455 273.401, 566.455 265.004 C 566.455 261.520, 565.896 260.296, 563.211 257.898 C 559.546 254.623, 556.715 254.299, 552.826 256.712 M 584.500 255.945 C 578.110 258.561, 576.338 267.313, 581.328 271.606 C 585.504 275.198, 591.058 274.908, 594.411 270.923 C 595.835 269.231, 597 266.734, 597 265.374 C 597 261.727, 594.513 257.555, 591.528 256.195 C 588.540 254.833, 587.322 254.790, 584.500 255.945 M 614.357 255.992 C 608.757 258.252, 607.090 267.181, 611.455 271.545 C 616.955 277.046, 627 273.009, 627 265.298 C 627 260.821, 625.609 258.366, 622.020 256.510 C 618.756 254.822, 617.470 254.735, 614.357 255.992 M 644.500 256.120 C 638.600 259.486, 637.343 265.877, 641.589 270.923 C 646.220 276.427, 654.648 274.627, 656.953 267.641 C 658.210 263.835, 657.305 260.469, 654.299 257.762 C 651.770 255.484, 647.011 254.687, 644.500 256.120 M 674.329 256.435 C 668.229 259.132, 667.065 266.219, 671.923 271.077 C 678.109 277.263, 687 273.514, 687 264.720 C 687 257.558, 680.863 253.546, 674.329 256.435 M 704.476 256.373 C 698.596 258.979, 697.298 266.452, 701.923 271.077 C 707.081 276.235, 714.691 274.496, 716.953 267.641 C 719.511 259.891, 711.948 253.062, 704.476 256.373 M 460.495 287.414 C 459.168 288.742, 457.787 291, 457.427 292.433 C 456.033 297.990, 461.170 304, 467.315 304 C 470.708 304, 474.724 300.535, 475.517 296.922 C 477.456 288.094, 466.653 281.256, 460.495 287.414 M 491.831 286.530 C 486.065 289.661, 486.205 299.503, 492.059 302.530 C 496.486 304.820, 499.804 304.350, 503.202 300.952 C 505.904 298.250, 506.186 297.427, 505.687 293.703 C 504.700 286.346, 498.285 283.024, 491.831 286.530 M 520.923 287.923 C 518.759 290.087, 518 291.795, 518 294.500 C 518 297.205, 518.759 298.913, 520.923 301.077 C 524.650 304.803, 528.756 304.918, 532.923 301.411 C 535.412 299.317, 536 298.060, 536 294.834 C 536 289.674, 531.723 285, 527 285 C 524.848 285, 522.918 285.928, 520.923 287.923 M 550.923 287.923 C 548.759 290.087, 548 291.795, 548 294.500 C 548 302.561, 557.998 307.093, 563.545 301.545 C 565.439 299.652, 566 298.041, 566 294.500 C 566 285.488, 557.198 281.648, 550.923 287.923 M 582.831 286.530 C 579.197 288.503, 577.374 294.075, 579.044 298.106 C 580.425 301.440, 584.544 304, 588.527 304 C 592.545 304, 597 299.005, 597 294.500 C 597 291.795, 596.241 290.087, 594.077 287.923 C 590.810 284.656, 587.122 284.199, 582.831 286.530 M 611.923 287.923 C 609.759 290.087, 609 291.795, 609 294.500 C 609 297.205, 609.759 298.913, 611.923 301.077 C 615.650 304.803, 619.756 304.918, 623.923 301.411 C 626.412 299.317, 627 298.060, 627 294.834 C 627 289.674, 622.723 285, 618 285 C 615.848 285, 613.918 285.928, 611.923 287.923 M 641.923 287.923 C 636.339 293.507, 639.241 302.390, 647.055 303.633 C 649.923 304.089, 651.207 303.696, 653.696 301.602 C 657.637 298.287, 658.503 294.863, 656.481 290.600 C 653.581 284.491, 646.633 283.213, 641.923 287.923 M 674.357 285.992 C 668.506 288.353, 667.213 296.367, 671.923 301.077 C 678.969 308.123, 690.093 300.871, 686.931 291.292 C 685.262 286.235, 679.633 283.862, 674.357 285.992 M 703.304 286.956 C 694.874 292.096, 700.794 306.026, 710.385 303.618 C 718.694 301.533, 720.346 290.299, 712.909 286.453 C 709.168 284.518, 707.127 284.625, 703.304 286.956 M 734.110 286.396 C 731.452 287.869, 729.090 291.548, 729.035 294.300 C 728.977 297.292, 731.690 301.538, 734.472 302.805 C 738.733 304.747, 741.928 304.226, 745.077 301.077 C 749.814 296.340, 748.852 289.526, 743.020 286.510 C 739.477 284.678, 737.260 284.650, 734.110 286.396 M 429.923 317.923 C 426.386 321.460, 426.102 325.589, 429.131 329.440 C 435.098 337.025, 446 333.168, 446 323.473 C 446 319.455, 441.005 315, 436.500 315 C 433.795 315, 432.087 315.759, 429.923 317.923 M 460.328 317.394 C 454.987 321.989, 457.585 331.675, 464.633 333.444 C 467.897 334.263, 473.436 331.534, 474.861 328.405 C 476.747 324.266, 476.198 321.045, 473.077 317.923 C 469.324 314.170, 464.318 313.962, 460.328 317.394 M 491.750 316.080 C 489.623 317.319, 487 322.174, 487 324.874 C 487 325.959, 488.165 328.231, 489.589 329.923 C 491.650 332.373, 492.959 333, 496.007 333 C 501.228 333, 502.826 332.238, 504.537 328.928 C 506.792 324.568, 506.344 321.190, 503.077 317.923 C 499.991 314.837, 495.218 314.060, 491.750 316.080 M 520.636 317.636 C 516.073 322.200, 517.287 329.546, 523.103 332.553 C 529.395 335.807, 536 331.333, 536 323.817 C 536 315.765, 526.379 311.894, 520.636 317.636 M 550.923 317.923 C 545.765 323.081, 547.504 330.691, 554.359 332.953 C 560.860 335.099, 566 330.859, 566 323.350 C 566 319.999, 565.465 318.725, 563.365 317.073 C 559.470 314.008, 554.498 314.348, 550.923 317.923 M 582.299 316.503 C 577.640 319.767, 577.296 327.335, 581.635 331.132 C 587.739 336.473, 597 332.175, 597 324 C 597 321.126, 594.424 316.377, 592.455 315.621 C 589.582 314.519, 584.503 314.960, 582.299 316.503 M 611.455 317.455 C 609.648 319.261, 609 320.990, 609 324 C 609 329.789, 612.347 333, 618.382 333 C 622.023 333, 623.240 332.510, 624.927 330.365 C 627.887 326.603, 627.710 320.619, 624.545 317.455 C 621.134 314.044, 614.866 314.044, 611.455 317.455 M 641.923 317.923 C 638.656 321.190, 638.208 324.568, 640.463 328.928 C 642.168 332.225, 643.774 333, 648.907 333 C 655.382 333, 659.222 326.860, 656.629 320.654 C 653.953 314.249, 646.905 312.941, 641.923 317.923 M 671.923 317.923 C 665.831 324.015, 669.618 333, 678.278 333 C 685.397 333, 689.347 327.160, 686.629 320.654 C 683.953 314.249, 676.905 312.941, 671.923 317.923 M 701.923 317.923 C 698.197 321.650, 698.082 325.756, 701.589 329.923 C 703.727 332.464, 704.913 333, 708.400 333 C 715.720 333, 719.846 326.471, 716.553 320.103 C 713.475 314.150, 706.705 313.141, 701.923 317.923 M 732.328 317.394 C 726.258 322.616, 730.093 333, 738.093 333 C 743.226 333, 744.832 332.225, 746.537 328.928 C 748.792 324.568, 748.344 321.190, 745.077 317.923 C 741.324 314.170, 736.318 313.962, 732.328 317.394 M 429.589 348.077 C 426.082 352.244, 426.197 356.350, 429.923 360.077 C 432.087 362.241, 433.795 363, 436.500 363 C 439.205 363, 440.913 362.241, 443.077 360.077 C 446.803 356.350, 446.918 352.244, 443.411 348.077 C 441.256 345.515, 440.099 345, 436.500 345 C 432.901 345, 431.744 345.515, 429.589 348.077 M 459.947 347.556 C 454.387 353.475, 458.510 363, 466.633 363 C 471.312 363, 476 358.496, 476 354 C 476 346.278, 465.215 341.949, 459.947 347.556 M 490.712 347.012 C 487.336 349.668, 486.434 354.004, 488.447 357.897 C 491.525 363.850, 498.295 364.859, 503.077 360.077 C 506.803 356.350, 506.918 352.244, 503.411 348.077 C 500.241 344.309, 494.734 343.848, 490.712 347.012 M 520.455 347.455 C 516.939 350.970, 517.030 357.197, 520.646 360.548 C 526.626 366.090, 536 361.982, 536 353.818 C 536 348.382, 532.549 345, 527 345 C 523.990 345, 522.261 345.648, 520.455 347.455 M 550.589 348.077 C 547.082 352.244, 547.197 356.350, 550.923 360.077 C 555.905 365.059, 562.953 363.751, 565.629 357.346 C 568.321 350.903, 564.393 345, 557.415 345 C 553.911 345, 552.730 345.533, 550.589 348.077 M 581.320 347.401 C 575.477 352.427, 579.333 363, 587.009 363 C 593.334 363, 597 359.297, 597 352.907 C 597 345.729, 587.246 342.304, 581.320 347.401 M 611.455 347.455 C 609.648 349.261, 609 350.990, 609 354 C 609 359.629, 612.371 363, 618 363 C 623.629 363, 627 359.629, 627 354 C 627 348.371, 623.629 345, 618 345 C 614.990 345, 613.261 345.648, 611.455 347.455 M 641.636 347.636 C 638.142 351.131, 638.123 355.805, 641.589 359.923 C 645.868 365.009, 653.403 363.989, 656.553 357.897 C 661.264 348.788, 648.953 340.320, 641.636 347.636 M 671.455 347.455 C 663.951 354.958, 674.981 367.605, 683.701 361.497 C 686.617 359.454, 688.335 354.011, 687.093 350.745 C 684.829 344.790, 675.981 342.928, 671.455 347.455 M 702.913 346.282 C 698.219 349.886, 698.096 357.358, 702.672 360.957 C 708.293 365.378, 716.498 362.080, 717.633 354.945 C 718.093 352.055, 717.695 350.791, 715.510 348.195 C 713.267 345.529, 712.133 345.005, 708.661 345.032 C 706.372 345.049, 703.786 345.612, 702.913 346.282 M 732.328 347.394 C 730.104 349.307, 729.545 350.633, 729.545 354 C 729.545 362.401, 739.038 366.116, 745.077 360.077 C 749.190 355.964, 748.752 349.864, 744.087 346.282 C 741.358 344.187, 735.402 344.750, 732.328 347.394 M 762.455 347.455 C 758.939 350.970, 759.030 357.197, 762.646 360.548 C 766.342 363.973, 771.833 363.894, 775.364 360.364 C 778.858 356.869, 778.877 352.195, 775.411 348.077 C 772.004 344.028, 766.161 343.748, 762.455 347.455 M 401.775 375.559 C 398.425 377.377, 397 379.899, 397 384.011 C 397 387.997, 401.716 393, 405.473 393 C 415.750 393, 419.546 379.859, 410.507 375.570 C 406.480 373.659, 405.278 373.658, 401.775 375.559 M 431.304 375.956 C 422.708 381.197, 428.532 394.436, 438.602 392.547 C 446.808 391.007, 448.385 379.319, 440.909 375.453 C 437.168 373.518, 435.127 373.625, 431.304 375.956 M 462.110 375.396 C 459.452 376.869, 457.090 380.548, 457.035 383.300 C 456.925 388.920, 463.139 393.787, 468.830 392.537 C 476.872 390.771, 478.273 379.261, 470.909 375.453 C 467.475 373.677, 465.237 373.663, 462.110 375.396 M 492.303 375.197 C 491.094 375.781, 489.377 377.793, 488.488 379.667 C 484.020 389.083, 495.722 397.432, 503.077 390.077 C 510.502 382.652, 501.786 370.615, 492.303 375.197 M 523.357 374.992 C 517.506 377.353, 516.213 385.367, 520.923 390.077 C 524.650 393.803, 528.756 393.918, 532.923 390.411 C 540.837 383.752, 532.990 371.104, 523.357 374.992 M 552.775 375.559 C 547.061 378.659, 546.264 385.418, 551.048 390.202 C 553.749 392.903, 554.575 393.186, 558.288 392.688 C 567.489 391.454, 569.974 379.623, 561.909 375.453 C 558.411 373.644, 556.258 373.669, 552.775 375.559 M 582.675 376.041 C 578.820 379.073, 577.666 382.458, 579.053 386.661 C 580.269 390.346, 584.237 393, 588.527 393 C 592.480 393, 597 388.002, 597 383.633 C 597 376.103, 588.394 371.542, 582.675 376.041 M 614.357 374.954 C 611.152 376.304, 609 379.991, 609 384.134 C 609 387.025, 609.665 388.382, 612.077 390.411 C 615.554 393.337, 618.797 393.674, 622.928 391.537 C 626.225 389.832, 627 388.226, 627 383.093 C 627 376.944, 620.131 372.522, 614.357 374.954 M 644.357 374.992 C 638.506 377.353, 637.213 385.367, 641.923 390.077 C 648.972 397.126, 660.136 390.001, 656.987 380.462 C 655.308 375.374, 649.569 372.888, 644.357 374.992 M 673.775 375.518 C 668.127 378.667, 667.268 385.422, 671.923 390.077 C 676.808 394.961, 684.808 393.143, 686.947 386.661 C 689.578 378.690, 681.041 371.468, 673.775 375.518 M 703.888 375.500 C 698.383 378.492, 697.731 387.070, 702.712 390.988 C 705.623 393.278, 708.728 393.537, 712.528 391.805 C 715.214 390.581, 718 386.353, 718 383.500 C 718 380.647, 715.214 376.419, 712.528 375.195 C 709.169 373.664, 707.133 373.736, 703.888 375.500 M 734.110 375.396 C 731.452 376.869, 729.090 380.548, 729.035 383.300 C 728.938 388.244, 734.026 393, 739.412 393 C 747.987 393, 750.824 379.546, 743.093 375.548 C 739.478 373.679, 737.275 373.641, 734.110 375.396 M 766 374.669 C 762.188 376.157, 760 379.366, 760.032 383.424 C 760.101 392.247, 768.981 396.173, 775.077 390.077 C 778.766 386.388, 779.040 381.293, 775.750 377.555 C 773.483 374.979, 768.776 373.586, 766 374.669 M 399.923 406.923 C 392.295 414.551, 401.148 426.594, 410.738 421.636 C 414.254 419.817, 416.492 415.096, 415.573 411.433 C 413.709 404.007, 405.271 401.575, 399.923 406.923 M 430.672 406.043 C 422.780 412.251, 429.705 425.233, 439.230 422.089 C 445.968 419.865, 448.002 411.848, 443.077 406.923 C 439.516 403.363, 434.530 403.009, 430.672 406.043 M 459.923 406.923 C 458.176 408.670, 457 410.903, 457 412.473 C 457 422.602, 470.098 426.512, 474.636 417.738 C 479.594 408.148, 467.551 399.295, 459.923 406.923 M 491.750 405.080 C 488.952 406.710, 486.793 411.783, 487.510 415.046 C 488.245 418.393, 493.236 423, 496.126 423 C 498.951 423, 503.764 420.309, 504.970 418.055 C 509.279 410.004, 499.603 400.506, 491.750 405.080 M 521.077 406.589 C 514.658 411.990, 518.458 422.455, 526.837 422.455 C 532.594 422.455, 536 419.094, 536 413.415 C 536 409.911, 535.467 408.730, 532.923 406.589 C 531.190 405.131, 528.603 404, 527 404 C 525.397 404, 522.810 405.131, 521.077 406.589 M 550.923 406.923 C 546.186 411.660, 547.148 418.474, 552.980 421.490 C 557.093 423.616, 559.396 423.379, 562.850 420.473 C 566.650 417.275, 567.636 413.130, 565.553 409.103 C 562.475 403.150, 555.705 402.141, 550.923 406.923 M 582.301 405.772 C 579.504 407.970, 577.821 412.437, 578.608 415.572 C 578.943 416.911, 580.607 419.174, 582.304 420.602 C 590.022 427.097, 600.210 418.139, 595.890 408.657 C 593.818 404.111, 586.415 402.539, 582.301 405.772 M 613.500 405.208 C 608.368 408.151, 607.371 414.995, 611.394 419.672 C 616.616 425.742, 627 421.907, 627 413.907 C 627 408.774, 626.225 407.168, 622.928 405.463 C 619.565 403.724, 616.245 403.634, 613.500 405.208 M 641.923 406.923 C 635.965 412.882, 639.596 422.455, 647.814 422.455 C 654.688 422.455, 659.043 416.691, 656.953 410.359 C 654.691 403.504, 647.081 401.765, 641.923 406.923 M 671.923 406.923 C 667.141 411.705, 668.150 418.475, 674.103 421.553 C 681.526 425.392, 690.135 417.568, 686.950 409.879 C 684.417 403.764, 676.617 402.229, 671.923 406.923 M 702.048 406.798 C 697.259 411.587, 698.677 419.381, 704.799 421.917 C 708.707 423.535, 712.476 422.412, 715.602 418.696 C 720.450 412.935, 717.078 405.357, 709.195 404.299 C 705.590 403.816, 704.729 404.117, 702.048 406.798 M 732.328 406.394 C 730.137 408.279, 729.545 409.648, 729.545 412.837 C 729.545 420.189, 736.613 424.803, 742.897 421.553 C 748.850 418.475, 749.859 411.705, 745.077 406.923 C 741.324 403.170, 736.318 402.962, 732.328 406.394 M 763.299 405.503 C 760.398 407.535, 758.666 412.991, 759.895 416.225 C 760.421 417.607, 762.122 419.737, 763.675 420.959 C 769.394 425.458, 778 420.897, 778 413.367 C 778 406.174, 769.122 401.425, 763.299 405.503 M 401.500 435.208 C 398.488 436.935, 397.067 439.190, 397.032 442.300 C 396.993 445.755, 399.374 450.546, 401.545 451.379 C 405.087 452.738, 409.931 451.964, 412.680 449.599 C 416.557 446.264, 416.501 439.688, 412.567 436.304 C 409.649 433.794, 404.802 433.314, 401.500 435.208 M 429.589 437.077 C 428.131 438.810, 427 441.397, 427 443 C 427 444.603, 428.131 447.190, 429.589 448.923 C 434.693 454.989, 444.367 451.902, 445.657 443.796 C 446.166 440.596, 445.832 439.679, 443.200 437.046 C 438.883 432.729, 433.237 432.742, 429.589 437.077 M 459.947 436.556 C 456.427 440.304, 456.605 446.403, 460.328 449.606 C 466.235 454.687, 474.376 451.620, 475.639 443.838 C 476.089 441.064, 475.673 439.765, 473.510 437.195 C 471.266 434.527, 470.123 434, 466.585 434 C 463.334 434, 461.790 434.595, 459.947 436.556 M 490.328 436.394 C 488.104 438.307, 487.545 439.633, 487.545 443 C 487.545 448.470, 491.241 452, 496.967 452 C 500.044 452, 501.345 451.379, 503.411 448.923 C 504.869 447.190, 506 444.603, 506 443 C 506 441.397, 504.869 438.810, 503.411 437.077 C 500.058 433.092, 494.504 432.802, 490.328 436.394 M 520.636 436.636 C 514.726 442.547, 518.642 452, 527 452 C 532.629 452, 536 448.629, 536 443 C 536 434.642, 526.547 430.726, 520.636 436.636 M 550.589 437.077 C 545.204 443.476, 548.940 451.897, 557.194 451.968 C 565.473 452.039, 569.692 442.559, 564.053 436.556 C 560.420 432.689, 554.075 432.934, 550.589 437.077 M 581.328 436.394 C 577.605 439.597, 577.427 445.696, 580.947 449.444 C 586.222 455.058, 597 451.401, 597 443.996 C 597 440.261, 594.680 435.475, 592.455 434.621 C 588.918 433.264, 584.070 434.036, 581.328 436.394 M 611.455 436.455 C 609.648 438.261, 609 439.990, 609 443 C 609 448.629, 612.371 452, 618 452 C 623.629 452, 627 448.629, 627 443 C 627 437.371, 623.629 434, 618 434 C 614.990 434, 613.261 434.648, 611.455 436.455 M 642.913 435.282 C 638.394 438.751, 637.704 445.794, 641.509 449.600 C 643.593 451.684, 644.804 452.057, 648.658 451.804 C 652.366 451.561, 653.711 450.946, 655.349 448.744 C 660.181 442.249, 656.151 433.963, 648.194 434.032 C 646.162 434.049, 643.786 434.612, 642.913 435.282 M 673.229 434.669 C 671.447 435.386, 669 440.422, 669 443.374 C 669 444.734, 670.165 447.231, 671.589 448.923 C 673.655 451.379, 674.956 452, 678.033 452 C 683.759 452, 687.455 448.470, 687.455 443 C 687.455 439.633, 686.896 438.307, 684.672 436.394 C 682.005 434.100, 676.650 433.293, 673.229 434.669 M 702.913 435.282 C 698.436 438.719, 697.874 444.509, 701.589 448.923 C 703.655 451.379, 704.956 452, 708.033 452 C 713.759 452, 717.455 448.470, 717.455 443 C 717.455 439.633, 716.896 438.307, 714.672 436.394 C 711.598 433.750, 705.642 433.187, 702.913 435.282 M 731.947 436.556 C 726.252 442.619, 730.516 452, 738.967 452 C 745.627 452, 749.994 444.612, 746.837 438.684 C 745.020 435.274, 742.837 434.066, 738.424 434.032 C 735.321 434.008, 733.776 434.610, 731.947 436.556 M 762.455 436.455 C 760.648 438.261, 760 439.990, 760 443 C 760 448.629, 763.371 452, 769 452 C 774.629 452, 778 448.629, 778 443 C 778 437.371, 774.629 434, 769 434 C 765.990 434, 764.261 434.648, 762.455 436.455 M 431.888 464.500 C 423.758 468.918, 427.205 482, 436.500 482 C 445.925 482, 449.250 468.766, 440.909 464.453 C 437.437 462.658, 435.257 462.669, 431.888 464.500 M 461.888 464.500 C 453.758 468.918, 457.205 482, 466.500 482 C 475.893 482, 479.183 469.493, 471.053 464.691 C 467.611 462.657, 465.364 462.611, 461.888 464.500 M 491.560 465.131 C 487.847 468.052, 486.679 471.496, 488.021 475.562 C 490.249 482.315, 498.024 484.130, 503.077 479.077 C 507.584 474.569, 506.488 467.338, 500.855 464.425 C 497.056 462.460, 494.731 462.637, 491.560 465.131 M 520.923 465.923 C 513.434 473.412, 522.048 485.773, 531.316 480.837 C 534.683 479.043, 535.933 476.849, 535.968 472.673 C 536.010 467.684, 531.667 463, 527 463 C 524.848 463, 522.918 463.928, 520.923 465.923 M 553.110 464.396 C 547.491 467.510, 546.436 474.590, 550.923 479.077 C 555.705 483.859, 562.475 482.850, 565.553 476.897 C 567.636 472.870, 566.650 468.725, 562.850 465.527 C 559.523 462.728, 556.709 462.401, 553.110 464.396 M 582.675 465.041 C 578.826 468.068, 577.666 471.458, 579.047 475.641 C 581.336 482.579, 588.918 484.235, 594.202 478.952 C 596.883 476.271, 597.184 475.410, 596.701 471.805 C 596.035 466.839, 593.534 464.123, 588.940 463.378 C 586.325 462.953, 584.822 463.352, 582.675 465.041 M 612.046 465.800 C 604.903 472.943, 610.812 484.021, 620.472 481.596 C 630.068 479.188, 628.758 464.929, 618.796 463.343 C 615.596 462.834, 614.679 463.168, 612.046 465.800 M 643.775 464.559 C 638.133 467.621, 637.266 474.419, 641.923 479.077 C 646.705 483.859, 653.475 482.850, 656.553 476.897 C 658.636 472.870, 657.650 468.725, 653.850 465.527 C 650.455 462.671, 647.736 462.409, 643.775 464.559 M 673.775 464.559 C 668.133 467.621, 667.266 474.419, 671.923 479.077 C 677.081 484.235, 684.691 482.496, 686.953 475.641 C 688.322 471.494, 687.178 468.072, 683.440 465.131 C 680.289 462.653, 677.583 462.493, 673.775 464.559 M 703.888 464.500 C 698.383 467.492, 697.731 476.070, 702.712 479.988 C 710.176 485.859, 720.627 477.757, 716.972 468.933 C 715.683 465.822, 711.486 462.969, 708.300 463.040 C 707.310 463.062, 705.325 463.719, 703.888 464.500 M 733.784 464.738 C 728.344 468.111, 727.759 474.850, 732.495 479.586 C 736 483.091, 741.276 482.878, 745.077 479.077 C 749.584 474.569, 748.488 467.338, 742.855 464.425 C 739.297 462.585, 737.135 462.660, 733.784 464.738 M 329.091 470.720 C 328.539 472.799, 326.298 483.282, 324.109 494.015 C 321.921 504.749, 319.433 516.674, 318.580 520.515 C 317.727 524.357, 314.082 541.675, 310.481 559 C 306.879 576.325, 301.220 603.325, 297.905 619 L 291.878 647.500 230.439 709.003 C 196.648 742.830, 169 770.952, 169 771.497 C 169 772.041, 181.710 785.203, 197.245 800.745 L 225.490 829.004 288.051 766.449 L 350.611 703.895 357.555 702.519 C 361.375 701.762, 377.775 698.602, 394 695.498 C 410.225 692.393, 437 687.204, 453.500 683.968 C 470 680.731, 493.175 676.242, 505 673.991 C 527.210 669.764, 531.722 668.590, 529 667.746 C 504.947 660.287, 490.350 654.861, 477.097 648.454 L 461.389 640.860 425.944 647.883 C 406.450 651.745, 381.835 656.602, 371.245 658.677 L 351.990 662.449 342.945 653.474 C 334.273 644.869, 333.926 644.356, 334.520 641 C 334.860 639.075, 339.222 617.700, 344.213 593.500 C 349.204 569.300, 353.960 545.972, 354.782 541.659 L 356.277 533.819 351.623 524.384 C 349.064 519.195, 345.428 511.225, 343.543 506.672 C 339.900 497.871, 332 472.643, 332 469.809 C 332 466.430, 330.068 467.034, 329.091 470.720 M 430.712 495.012 C 425.372 499.213, 426.404 507.540, 432.630 510.495 C 442.079 514.979, 450.453 503.299, 443.077 495.923 C 439.532 492.378, 434.529 492.010, 430.712 495.012 M 461.750 494.080 C 458.952 495.710, 456.793 500.783, 457.510 504.046 C 458.234 507.344, 463.222 512, 466.030 512 C 471.339 512, 476 507.079, 476 501.473 C 476 497.598, 470.996 492.992, 466.827 493.030 C 464.997 493.047, 462.712 493.519, 461.750 494.080 M 491.299 494.503 C 486.638 497.767, 486.298 505.283, 490.635 509.172 C 494.897 512.994, 502.384 511.889, 504.970 507.055 C 509.453 498.680, 499.016 489.098, 491.299 494.503 M 520.923 495.923 C 516.141 500.705, 517.150 507.475, 523.103 510.553 C 531.418 514.853, 539.068 505.834, 534.537 497.072 C 531.886 491.946, 525.444 491.402, 520.923 495.923 M 550.923 495.923 C 543.589 503.257, 551.528 514.924, 561.142 510.941 C 565.384 509.184, 567.517 504.096, 565.973 499.417 C 563.692 492.506, 556.102 490.744, 550.923 495.923 M 582.750 494.080 C 579.998 495.683, 577.794 500.787, 578.488 503.947 C 579.233 507.337, 582.554 510.617, 586.142 511.507 C 589.244 512.277, 594.434 509.925, 595.970 507.055 C 598.086 503.102, 596.726 497.076, 593.087 494.282 C 591.157 492.800, 585.149 492.683, 582.750 494.080 M 611.636 495.636 C 605.829 501.444, 609.754 511.455, 617.837 511.455 C 623.573 511.455, 627 508.091, 627 502.462 C 627 496.847, 623.341 493, 618 493 C 615.306 493, 613.542 493.731, 611.636 495.636 M 641.923 495.923 C 637.346 500.500, 638.370 507.588, 644.030 510.516 C 651.777 514.522, 660.017 506.764, 656.629 498.654 C 653.953 492.249, 646.905 490.941, 641.923 495.923 M 671.923 495.923 C 663.519 504.327, 675.418 516.960, 684.365 509.132 C 687.298 506.565, 688.204 503.147, 686.953 499.359 C 684.691 492.504, 677.081 490.765, 671.923 495.923 M 702.712 495.012 C 699.527 497.517, 698.411 502.165, 700.047 506.113 C 701.278 509.085, 705.464 512, 708.500 512 C 711.536 512, 715.722 509.085, 716.953 506.113 C 719.551 499.841, 715.141 493, 708.500 493 C 706.723 493, 704.119 493.905, 702.712 495.012 M 733.750 494.080 C 732.787 494.641, 731.296 496.460, 730.437 498.123 C 726.400 505.928, 735.062 514.605, 742.863 510.571 C 746.541 508.669, 748 506.231, 748 501.989 C 748 495.519, 739.438 490.767, 733.750 494.080 M 460.328 525.394 C 456.605 528.597, 456.427 534.696, 459.947 538.444 C 463.580 542.311, 469.925 542.066, 473.411 537.923 C 476.918 533.756, 476.803 529.650, 473.077 525.923 C 469.324 522.170, 464.318 521.962, 460.328 525.394 M 490.328 525.394 C 488.104 527.307, 487.545 528.633, 487.545 532 C 487.545 537.421, 491.257 541.016, 496.806 540.968 C 505.265 540.895, 509.026 531.872, 503.077 525.923 C 499.324 522.170, 494.318 521.962, 490.328 525.394 M 520.455 525.455 C 518.648 527.261, 518 528.990, 518 532 C 518 535.010, 518.648 536.739, 520.455 538.545 C 522.261 540.352, 523.990 541, 527 541 C 530.010 541, 531.739 540.352, 533.545 538.545 C 535.352 536.739, 536 535.010, 536 532 C 536 528.990, 535.352 527.261, 533.545 525.455 C 531.739 523.648, 530.010 523, 527 523 C 523.990 523, 522.261 523.648, 520.455 525.455 M 550.589 526.077 C 546.024 531.502, 547.915 538.827, 554.438 540.979 C 560.859 543.099, 566 538.817, 566 531.350 C 566 526.087, 562.656 523, 556.954 523 C 553.965 523, 552.638 523.641, 550.589 526.077 M 581.328 525.394 C 576.176 529.826, 578.156 538.569, 584.894 541.145 C 590.267 543.199, 597 538.113, 597 532 C 597 529.126, 594.424 524.377, 592.455 523.621 C 588.918 522.264, 584.070 523.036, 581.328 525.394 M 611.455 525.455 C 609.648 527.261, 609 528.990, 609 532 C 609 535.010, 609.648 536.739, 611.455 538.545 C 613.261 540.352, 614.990 541, 618 541 C 621.010 541, 622.739 540.352, 624.545 538.545 C 626.352 536.739, 627 535.010, 627 532 C 627 528.990, 626.352 527.261, 624.545 525.455 C 622.739 523.648, 621.010 523, 618 523 C 614.990 523, 613.261 523.648, 611.455 525.455 M 642.201 525.028 C 635.959 530.843, 639.561 541, 647.865 541 C 655.332 541, 659.796 534.374, 656.553 528.103 C 655.687 526.429, 654.114 524.596, 653.055 524.030 C 649.882 522.332, 644.570 522.820, 642.201 525.028 M 671.589 526.077 C 667.874 530.491, 668.436 536.281, 672.913 539.718 C 675.438 541.657, 681.421 541.244, 684.365 538.927 C 686.565 537.197, 687 536.054, 687 532 C 687 527.946, 686.565 526.803, 684.365 525.073 C 680.264 521.847, 674.786 522.277, 671.589 526.077 M 701.923 525.923 C 699.928 527.918, 699 529.848, 699 532 C 699 536.496, 703.688 541, 708.367 541 C 713.741 541, 717.455 537.322, 717.455 532 C 717.455 523.599, 707.962 519.884, 701.923 525.923 M 494 552.709 C 489.002 554.547, 486.422 559.718, 488.047 564.641 C 490.309 571.496, 497.919 573.235, 503.077 568.077 C 508.054 563.100, 506.357 555.366, 499.785 553.075 C 496.433 551.906, 496.221 551.893, 494 552.709 M 522.775 553.559 C 517.133 556.621, 516.266 563.419, 520.923 568.077 C 526.941 574.095, 536 570.076, 536 561.387 C 536 557.802, 534.388 555.252, 531.020 553.510 C 527.444 551.661, 526.259 551.668, 522.775 553.559 M 553.329 553.435 C 547.229 556.132, 546.065 563.219, 550.923 568.077 C 557.109 574.263, 566 570.514, 566 561.720 C 566 554.558, 559.863 550.546, 553.329 553.435 M 584.500 552.908 C 578.132 555.634, 576.430 564.393, 581.433 568.696 C 590.019 576.081, 602.219 564.042, 594.750 555.555 C 592.292 552.761, 587.645 551.561, 584.500 552.908 M 614.329 553.435 C 610.497 555.129, 609 557.671, 609 562.482 C 609 569.391, 616.179 573.028, 622.928 569.537 C 626.225 567.832, 627 566.226, 627 561.093 C 627 554.571, 620.561 550.679, 614.329 553.435 M 644.329 553.435 C 638.229 556.132, 637.065 563.219, 641.923 568.077 C 646.705 572.859, 653.475 571.850, 656.553 565.897 C 660.570 558.130, 652.445 549.846, 644.329 553.435 M 671.455 555.455 C 667.908 559.001, 668.103 564.257, 671.923 568.077 C 676.678 572.832, 684.035 571.555, 686.548 565.538 C 688.537 560.780, 688.398 559.627, 685.411 556.077 C 683.233 553.489, 682.114 553, 678.366 553 C 674.967 553, 673.326 553.583, 671.455 555.455 M 550.923 584.923 C 545.575 590.271, 548.007 598.709, 555.433 600.573 C 562.065 602.237, 568.208 595.190, 565.988 588.465 C 563.692 581.508, 556.119 579.727, 550.923 584.923 M 582.831 583.530 C 577.065 586.661, 577.205 596.503, 583.059 599.530 C 587.432 601.792, 590.807 601.347, 594.077 598.077 C 596.241 595.913, 597 594.205, 597 591.500 C 597 588.795, 596.241 587.087, 594.077 584.923 C 590.810 581.656, 587.122 581.199, 582.831 583.530 M 613.500 583.208 C 610.230 585.083, 609.065 587.264, 609.032 591.576 C 608.993 596.531, 611.968 599.796, 617.310 600.663 C 620.392 601.163, 621.344 600.810, 623.954 598.200 C 630.208 591.945, 626.402 581.918, 617.816 582.030 C 616.542 582.047, 614.600 582.577, 613.500 583.208" stroke="none" fill="#000000" fill-rule="evenodd"/></svg>