<svg xmlns="http://www.w3.org/2000/svg" width="1024" height="1024" viewBox="0 0 1024 1024" version="1.1"><path d="M 117 297 L 117 358 171.500 358 L 226 358 226 297 L 226 236 171.500 236 L 117 236 117 297 M 253.462 237.241 C 253.198 237.934, 253.098 265.275, 253.241 298 L 253.500 357.500 308 357.500 L 362.500 357.500 362.500 297 L 362.500 236.500 308.222 236.241 C 265.332 236.037, 253.843 236.247, 253.462 237.241 M 389.459 237.250 C 389.196 237.938, 389.098 265.275, 389.241 298 L 389.500 357.500 400.855 357.784 L 412.209 358.067 419.855 353.586 C 441.070 341.149, 467.238 332.425, 492.230 329.455 L 497.961 328.774 498.230 282.803 C 498.379 257.519, 498.313 236.645, 498.083 236.416 C 497.854 236.187, 473.428 236, 443.802 236 C 401.632 236, 389.833 236.271, 389.459 237.250 M 525.966 236.741 C 525.947 237.159, 525.939 257.975, 525.947 283 L 525.961 328.500 537.626 330.233 C 561.990 333.852, 583.921 341.626, 605.115 354.157 L 611.731 358.068 623.115 357.784 L 634.500 357.500 634.500 297 L 634.500 236.500 580.250 236.241 C 550.413 236.099, 525.985 236.324, 525.966 236.741 M 661.462 237.241 C 661.198 237.934, 661.098 265.275, 661.241 298 L 661.500 357.500 716 357.500 L 770.500 357.500 770.500 297 L 770.500 236.500 716.222 236.241 C 673.332 236.037, 661.843 236.247, 661.462 237.241 M 798 297 L 798 358 852.500 358 L 907 358 907 297 L 907 236 852.500 236 L 798 236 798 297 M 495.368 364.120 C 476.859 366.064, 452.730 374.225, 436.500 384.029 C 425.614 390.606, 410.041 402.511, 411.145 403.413 C 411.340 403.573, 414.167 404.907, 417.428 406.378 C 433.248 413.515, 451.292 429.115, 461.536 444.512 C 491.594 489.685, 485.837 547.954, 447.503 586.560 C 438.245 595.883, 427.812 603.211, 414.735 609.576 C 409.656 612.048, 405.500 614.454, 405.500 614.923 C 405.500 616.478, 420.370 629.170, 429.032 635.008 C 445.873 646.358, 467.290 655.085, 487 658.627 C 499.936 660.952, 524.284 660.962, 537 658.648 C 556.425 655.114, 577.943 646.420, 594.500 635.416 C 603.063 629.725, 619 616.429, 619 614.975 C 619 614.492, 615.113 612.275, 610.363 610.049 C 579.643 595.653, 555.289 567.031, 547.113 535.717 C 543.720 522.721, 542.550 508.561, 543.887 496.679 C 546.889 470, 556.347 449.128, 573.709 430.870 C 583.268 420.818, 593.995 412.708, 604.528 407.567 C 608.913 405.428, 612.648 403.564, 612.830 403.425 C 614.352 402.264, 590.007 384.571, 579.702 379.349 C 554.354 366.504, 524.313 361.080, 495.368 364.120 M 117 441.500 L 117 497 171.500 497 L 226 497 226 441.500 L 226 386 171.500 386 L 117 386 117 441.500 M 253.242 441.250 L 253.500 496.500 291.187 496.762 L 328.874 497.024 329.500 492.262 C 331.121 479.929, 334.336 465.255, 337.585 455.364 C 341.858 442.353, 350.927 423.387, 357.920 412.837 L 363 405.175 363 395.587 L 363 386 307.992 386 L 252.983 386 253.242 441.250 M 661 395.587 L 661 405.175 666.077 412.837 C 680.124 434.038, 690.887 464.098, 694.511 492.250 L 695.123 497 733.061 497 L 771 497 771 441.500 L 771 386 716 386 L 661 386 661 395.587 M 798 441.500 L 798 497 852.500 497 L 907 497 907 441.500 L 907 386 852.500 386 L 798 386 798 441.500 M 383.577 437.250 C 379.959 442.790, 371.911 461.305, 369.559 469.500 C 365.100 485.031, 363.681 495.293, 363.681 512 C 363.681 528.742, 365.110 539.048, 369.576 554.500 C 373.109 566.725, 379.791 581, 381.980 581 C 384.671 581, 395.933 577.063, 401.967 574.013 C 426.971 561.373, 443 535.196, 443 507 C 443 475.288, 422.848 446.947, 393.282 437.076 C 385.555 434.497, 385.373 434.500, 383.577 437.250 M 629.812 437.403 C 608.334 444.984, 591.737 462.269, 584.378 484.720 C 581.783 492.636, 581.500 494.828, 581.500 507 C 581.500 519.172, 581.783 521.364, 584.378 529.280 C 590.664 548.459, 603.355 563.713, 621 573.299 C 626.931 576.522, 639.411 581, 642.460 581 C 644.185 581, 651.373 565.195, 654.401 554.745 C 662.115 528.126, 662.756 503.612, 656.432 477.054 C 652.320 459.786, 641.463 434.974, 638.040 435.021 C 637.193 435.033, 633.490 436.105, 629.812 437.403 M 117 575.500 L 117 626 171.500 626 L 226 626 226 575.500 L 226 525 171.500 525 L 117 525 117 575.500 M 253.241 575.250 L 253.500 625.500 308 625.500 L 362.500 625.500 362.812 622.262 C 363.057 619.726, 361.824 616.950, 357.120 609.447 C 342.458 586.066, 333.242 560.661, 329.959 534.578 L 328.753 525 290.867 525 L 252.982 525 253.241 575.250 M 694.033 534.647 C 690.641 561.592, 680.243 589.603, 665.267 612.137 C 661.828 617.313, 660.927 619.515, 661.178 622.137 L 661.500 625.500 716 625.500 L 770.500 625.500 770.759 575.250 L 771.018 525 733.133 525 L 695.247 525 694.033 534.647 M 798 575.500 L 798 626 852.500 626 L 907 626 907 575.500 L 907 525 852.500 525 L 798 525 798 575.500 M 117 709 L 117 764 171.500 764 L 226 764 226 709 L 226 654 171.500 654 L 117 654 117 709 M 253 709 L 253 764 308 764 L 363 764 363 709 L 363 654 308 654 L 253 654 253 709 M 389 709 L 389 764 443.500 764 L 498 764 498 729.500 C 498 710.525, 497.808 695, 497.572 695 C 495.378 695, 480.027 692.614, 474.500 691.414 C 448.816 685.836, 419.243 672.151, 399.856 656.872 C 397.372 654.914, 395.065 654, 392.606 654 L 389 654 389 709 M 626.491 655.014 C 625.069 657.315, 600.759 672.539, 591.105 677.175 C 573.765 685.500, 544.969 693.968, 533.843 694.014 C 532.004 694.021, 529.487 694.299, 528.250 694.630 L 526 695.233 526 729.617 L 526 764 580.500 764 L 635 764 635 709 L 635 654 631.059 654 C 628.891 654, 626.836 654.456, 626.491 655.014 M 661 709 L 661 764 716 764 L 771 764 771 709 L 771 654 716 654 L 661 654 661 709 M 798 709 L 798 764 852.500 764 L 907 764 907 709 L 907 654 852.500 654 L 798 654 798 709" stroke="none" fill="#000000" fill-rule="evenodd"/></svg>