<svg xmlns="http://www.w3.org/2000/svg" width="1024" height="1024" viewBox="0 0 1024 1024" version="1.1"><path d="M 594.500 164.679 C 510.139 170.060, 434.727 220.515, 397.478 296.500 C 390.714 310.297, 382.559 331.225, 383.557 332.224 C 383.788 332.455, 386.345 332.304, 389.239 331.888 C 392.132 331.472, 402.375 330.817, 412 330.434 C 458.004 328.601, 502.053 337.798, 543.537 357.898 C 595.609 383.129, 636.864 421.709, 666.085 472.500 C 689.090 512.487, 703 564.014, 703 609.244 C 703 617.912, 703.377 623, 704.018 623 C 706.511 623, 726.619 612.032, 738.084 604.419 C 797.351 565.061, 836.264 501.745, 844.510 431.246 C 846.253 416.353, 846.451 391.026, 844.933 377.211 C 838.390 317.637, 810.392 262.822, 767 224.630 C 747.530 207.493, 735.164 199.081, 714.500 188.916 C 676.665 170.306, 635.775 162.047, 594.500 164.679 M 398.500 368.645 C 339.999 375.024, 290.084 398.830, 248.968 439.963 C 203.370 485.581, 178 547.413, 178 612.930 C 178 694.522, 220.438 772.614, 290.539 820.016 C 320.853 840.515, 359.741 854.784, 396.933 859.055 C 410.818 860.650, 447.358 859.759, 459.500 857.529 C 515.930 847.166, 564.903 819.514, 602.383 776.848 C 675.511 693.605, 686.399 579.481, 630.219 485.097 C 599.060 432.747, 544.677 391.642, 486 376.090 C 464.147 370.299, 452.806 368.855, 426.500 368.517 C 413.300 368.348, 400.700 368.405, 398.500 368.645 M 403 421.699 C 372.475 425.001, 337.791 438.144, 313.073 455.776 C 301.011 464.380, 283.796 480.821, 273.977 493.114 C 251.687 521.022, 237.666 555.530, 233.930 591.681 C 232.237 608.061, 232.884 616.715, 236.172 621.684 C 243.033 632.051, 259.908 632.140, 266.721 621.845 C 268.964 618.457, 269.424 616.161, 270.614 602.435 C 273.027 574.608, 279.320 553.735, 291.308 533.789 C 299.300 520.493, 305.581 512.341, 315.192 502.792 C 340.861 477.291, 373.813 462.198, 410.860 458.973 C 428.806 457.410, 429.139 457.334, 433.400 453.821 C 439.815 448.534, 441.775 440.183, 438.462 432.254 C 434.827 423.556, 429.604 420.942, 416.290 421.160 C 410.905 421.248, 404.925 421.490, 403 421.699 M 403.834 513.500 C 367.045 520.475, 337.063 548.561, 326.792 585.671 C 324.964 592.276, 324.623 596.159, 324.615 610.500 C 324.606 626.233, 324.811 628.168, 327.362 636.468 C 335.963 664.456, 353.450 685.694, 378 697.969 C 393.714 705.825, 404.814 708.431, 422.500 708.414 C 432.544 708.405, 437.518 707.899, 444.377 706.190 C 473.426 698.949, 498.141 678.342, 511.026 650.619 C 517.372 636.966, 519.440 626.881, 519.358 610 C 519.298 597.663, 518.894 594.016, 516.651 585.552 C 507.554 551.221, 480.298 523.780, 446.500 514.924 C 435.935 512.156, 414.669 511.446, 403.834 513.500 M 409.500 550.603 C 387.999 555.796, 371.466 570.829, 364.393 591.617 C 360.530 602.971, 360.521 617.177, 364.371 628.390 C 367.927 638.747, 371.128 644.042, 378.624 651.966 C 389.699 663.674, 402.919 669.814, 419 670.719 C 426.015 671.114, 430.200 670.821, 435 669.600 C 457.893 663.776, 474.891 646.786, 480.608 624.012 C 483.043 614.317, 482.132 598.725, 478.591 589.500 C 471.918 572.111, 459.455 559.505, 442.500 552.994 C 437.614 551.118, 434.179 550.637, 424 550.405 C 417.125 550.248, 410.600 550.337, 409.500 550.603" stroke="none" fill="#000000" fill-rule="evenodd"/></svg>