<svg xmlns="http://www.w3.org/2000/svg" width="1024" height="1024" viewBox="0 0 1024 1024" version="1.1"><path d="M 397.429 157.893 C 392.607 160.083, 387.346 166.108, 385.985 171 C 385.388 173.147, 385.009 208.225, 385.006 261.750 L 385 349 363.500 349 L 342 349 342 312 L 342 275 337.210 275 C 318.244 275, 301.439 287.732, 294.975 307 C 291.633 316.959, 292.511 333.529, 297.439 353.500 C 299.474 361.750, 303.779 379.907, 307.006 393.850 C 312.310 416.768, 313.238 419.746, 316.686 424.897 C 318.784 428.030, 329.206 443.511, 339.847 459.297 L 359.194 488 492.435 488 L 625.675 488 648.527 453.750 L 671.378 419.500 678.358 382.500 L 685.338 345.500 685.710 279.502 C 686.127 205.560, 686.360 208.268, 679.012 201.630 C 667.462 191.195, 648.541 196.237, 644.141 210.922 C 643.408 213.371, 643 224.427, 643 241.866 L 643 269 621.500 269 L 600 269 600 233.968 C 600 195.828, 599.850 194.652, 594.197 188.624 C 583.265 176.965, 562.703 181.698, 558.141 196.922 C 557.426 199.311, 557 209.550, 557 224.366 L 557 248 535.549 248 L 514.099 248 513.799 214.084 L 513.500 180.168 510.494 175.834 C 506.819 170.536, 498.535 165.995, 492.571 166.010 C 487.399 166.022, 479.016 169.894, 476.080 173.625 C 471.284 179.721, 471 181.679, 471 208.622 L 471 234 449.500 234 L 428 234 427.978 203.250 C 427.958 175.454, 427.778 172.116, 426.104 168.500 C 421.147 157.794, 408.196 153.003, 397.429 157.893 M 372 625.504 L 372 719.008 492.250 718.754 L 612.500 718.500 612.755 625.250 L 613.010 532 492.505 532 L 372 532 372 625.504 M 390 790 L 390 818 492.500 818 L 595 818 595 790 L 595 762 492.500 762 L 390 762 390 790" stroke="none" fill="#000000" fill-rule="evenodd"/></svg>