<svg xmlns="http://www.w3.org/2000/svg" width="1024" height="1024" viewBox="0 0 1024 1024" version="1.1"><path d="M 322 251.894 C 311.650 255.561, 303.783 267.988, 305.402 278.112 C 306.536 285.206, 308.791 288.245, 316.822 293.500 C 322.918 297.490, 325.403 299.917, 329.120 305.510 C 332.268 310.247, 335.430 313.590, 338.877 315.823 C 341.681 317.640, 344.661 320.106, 345.499 321.302 C 347.214 323.750, 346.532 324.071, 356.286 316.219 C 359.894 313.315, 363.994 308.979, 365.397 306.585 C 368.493 301.302, 376.136 294.267, 382.375 290.957 C 387.917 288.017, 390 283.706, 390 275.176 C 390 255.943, 369.975 244.423, 352.750 253.747 L 348 256.318 342.978 253.584 C 336.261 249.929, 329.162 249.357, 322 251.894 M 433.994 250.876 C 428.833 252.566, 425.114 255.063, 421.291 259.407 C 415.059 266.487, 413.311 275.740, 416.637 284.051 C 417.910 287.233, 419.663 289.020, 424.530 292.093 C 431.443 296.459, 437.475 302.556, 440.432 308.166 C 441.495 310.182, 444.252 313.025, 446.560 314.483 C 448.868 315.942, 452.020 318.455, 453.565 320.068 C 456.878 323.525, 458.525 323.744, 460.242 320.955 C 460.934 319.831, 463.698 317.495, 466.384 315.765 C 469.307 313.883, 472.620 310.506, 474.634 307.358 C 479.004 300.527, 484.218 295.493, 490.783 291.769 C 496.836 288.335, 498.710 285.365, 499.576 277.836 C 500.908 266.255, 492.948 254.785, 481.211 251.373 C 474.562 249.440, 469.483 250.069, 462.178 253.732 C 457.815 255.919, 456.555 256.180, 455.178 255.180 C 449.735 251.223, 439.366 249.117, 433.994 250.876 M 541.969 251.480 C 523.993 257.242, 518.072 282.892, 532.801 291.203 C 540.049 295.292, 545.842 300.751, 549.144 306.602 C 550.911 309.732, 553.668 312.866, 555.826 314.198 C 557.847 315.445, 561.207 318.005, 563.293 319.888 L 567.085 323.310 570.293 320.292 C 572.057 318.632, 575.186 316.160, 577.247 314.797 C 579.308 313.435, 582.722 309.645, 584.835 306.376 C 589.121 299.746, 594.870 294.408, 601.535 290.872 C 606.858 288.048, 609 283.623, 609 275.448 C 609 256.423, 588.738 244.333, 572.165 253.469 L 566.830 256.410 562.064 253.731 C 556.102 250.380, 548.174 249.492, 541.969 251.480 M 651.792 251.268 C 641.068 254.831, 634 264.349, 634 275.228 C 634 282.691, 636.011 287.452, 640.190 289.879 C 648.591 294.761, 653.389 299.010, 658.023 305.672 C 660.767 309.617, 664.472 313.748, 666.256 314.852 C 668.040 315.956, 670.822 318.241, 672.437 319.930 C 674.052 321.618, 675.854 323, 676.440 323 C 677.027 323, 678.824 321.604, 680.434 319.899 C 682.044 318.193, 685.063 315.723, 687.142 314.410 C 689.222 313.097, 692.542 309.494, 694.519 306.403 C 698.919 299.525, 702.855 295.767, 709.869 291.750 C 715.550 288.496, 717.396 285.630, 718.580 278.224 C 720.045 269.067, 713.691 257.503, 704.568 252.724 C 698.259 249.418, 689.090 249.694, 681.754 253.411 L 676.009 256.323 670.982 253.587 C 665.135 250.405, 657.258 249.453, 651.792 251.268 M 284.885 306.380 C 277.428 309.045, 272.171 314.316, 269.619 321.687 C 268.549 324.776, 267.278 325.986, 262.603 328.367 C 259.462 329.966, 255.739 332.787, 254.329 334.635 C 249.199 341.362, 247.610 350.737, 250.449 357.532 L 251.898 361 292.914 361 C 339.513 361, 335.528 361.800, 336.658 352.221 C 337.827 342.317, 332.649 332.932, 323.561 328.486 C 319.012 326.261, 317.968 325.204, 316.489 321.332 C 311.648 308.657, 297.390 301.911, 284.885 306.380 M 392.500 307.289 C 386.371 310.227, 380.525 316.517, 378.909 321.910 C 377.926 325.189, 377.050 326.159, 374.223 327.092 C 372.310 327.723, 368.593 330.323, 365.962 332.870 C 358.608 339.989, 356.581 348.893, 360.184 358.250 L 361.243 361 402.500 361 L 443.757 361 445.039 357.906 C 447 353.171, 446.559 344.016, 444.141 339.276 C 441.696 334.484, 435.034 328.496, 430.472 326.991 C 428.155 326.226, 427.075 325.152, 426.675 323.211 C 425.665 318.315, 420.345 311.287, 415.503 308.449 C 408.744 304.488, 399.333 304.013, 392.500 307.289 M 501.493 307.351 C 494.409 310.650, 490.382 315.533, 487.688 324.087 C 487.413 324.959, 484.667 326.907, 481.586 328.414 C 478.504 329.922, 474.809 332.694, 473.375 334.576 C 468.198 341.362, 466.599 350.712, 469.449 357.532 L 470.898 361 511.914 361 C 558.565 361, 554.523 361.825, 555.678 352.070 C 556.839 342.264, 551.591 332.904, 542.414 328.414 C 539.333 326.907, 536.587 324.959, 536.312 324.087 C 532.488 311.944, 523.659 305.020, 512 305.020 C 508.337 305.020, 504.827 305.799, 501.493 307.351 M 613.500 306.231 C 606.112 308.875, 599.926 315.178, 597.820 322.207 C 596.931 325.173, 595.982 326.181, 593.219 327.093 C 588.640 328.604, 582.373 334.353, 579.769 339.432 C 577.348 344.155, 576.955 353.062, 578.955 357.891 L 580.243 361 621.544 361 L 662.845 361 664.111 357.250 C 665.990 351.684, 665.609 344.115, 663.214 339.420 C 660.649 334.392, 654.371 328.608, 649.865 327.121 C 647.034 326.186, 646.170 325.157, 644.671 320.936 C 640.384 308.866, 625.611 301.897, 613.500 306.231 M 722.759 306.423 C 715.268 309.097, 710.232 314.140, 707.673 321.529 C 706.585 324.673, 705.288 325.938, 700.584 328.439 C 689.316 334.431, 684.061 347.030, 688.449 357.532 L 689.898 361 730.914 361 L 771.930 361 773.195 358.750 C 773.891 357.512, 774.456 353.350, 774.450 349.500 C 774.435 338.676, 770.317 332.240, 760.678 327.976 C 758.040 326.809, 755.641 325.099, 755.347 324.177 C 752.572 315.469, 748.619 310.663, 741.507 307.351 C 735.809 304.698, 728.594 304.341, 722.759 306.423 M 225.400 386.400 L 222 389.800 222 413 L 222 436.200 225.400 439.600 L 228.800 443 511.353 443 C 728.288 443, 794.515 442.723, 796.528 441.805 C 801.544 439.520, 802 437.072, 802 412.450 L 802 389.800 798.600 386.400 L 795.200 383 512 383 L 228.800 383 225.400 386.400 M 248 466.029 C 248 466.595, 248.677 476.158, 249.504 487.279 C 251.102 508.770, 255.055 567.039, 260.032 642.500 C 266.935 747.138, 267.886 759.514, 269.342 763.597 C 273.765 775.999, 280.139 783.477, 290.763 788.728 L 298.396 792.500 512.448 792.500 L 726.500 792.500 732.295 789.785 C 739.611 786.358, 748.753 777.296, 752.361 769.894 C 753.864 766.811, 755.528 761.411, 756.060 757.894 C 756.591 754.377, 758.827 723.825, 761.029 690 C 765.896 615.224, 774.728 483.407, 775.585 472.750 L 776.208 465 512.104 465 C 331.702 465, 248 465.326, 248 466.029 M 344 512.925 C 344 516.184, 344.673 531.822, 345.496 547.675 C 346.827 573.332, 352.805 694.236, 354.757 735 L 355.500 750.500 371.750 750.775 L 388 751.050 388 746.729 C 388 744.352, 387.549 733.204, 386.998 721.954 C 386.446 710.704, 384.861 678.100, 383.474 649.500 C 382.088 620.900, 380.066 580.175, 378.981 559 C 377.895 537.825, 377.006 517.462, 377.004 513.750 L 377 507 360.500 507 L 344 507 344 512.925 M 445.436 534.750 C 445.773 550.013, 446.479 592.200, 447.006 628.500 C 447.532 664.800, 448.252 707.212, 448.604 722.750 L 449.246 751 465.587 751 L 481.928 751 481.419 729.750 C 480.863 706.502, 477.997 525.943, 477.999 514.250 L 478 507 461.412 507 L 444.824 507 445.436 534.750 M 545.654 543.250 C 545.293 563.188, 544.550 611.225, 544.003 650 C 543.456 688.775, 542.855 727.362, 542.667 735.750 L 542.326 751 558.549 751 L 574.772 751 575.398 723.750 C 575.742 708.763, 576.461 668.825, 576.995 635 C 577.529 601.175, 578.251 558.538, 578.599 540.250 L 579.232 507 562.771 507 L 546.311 507 545.654 543.250 M 646.630 524.750 C 646.257 534.513, 645.068 559.600, 643.989 580.500 C 642.910 601.400, 640.911 642.350, 639.548 671.500 C 638.184 700.650, 636.774 730.462, 636.414 737.750 L 635.759 751 652.188 751 L 668.618 751 669.839 724.750 C 671.169 696.180, 676.350 590.334, 677.954 559 C 678.503 548.275, 679.254 532.188, 679.624 523.250 L 680.295 507 663.802 507 L 647.309 507 646.630 524.750" stroke="none" fill="#000000" fill-rule="evenodd"/></svg>