<svg xmlns="http://www.w3.org/2000/svg" width="1024" height="1024" viewBox="0 0 1024 1024" version="1.1"><path d="M 499.500 193.269 C 494.053 195.504, 492.205 196.933, 489.839 200.737 C 487.627 204.296, 487.473 205.660, 487 225.868 L 486.500 247.236 477.833 250.059 C 461.072 255.518, 445.563 265.444, 432.743 278.916 C 415.196 297.355, 403.965 318.853, 397.802 345.801 C 395.590 355.474, 395.583 355.809, 395.260 472.777 L 394.937 590.054 397.218 589.572 C 411.772 586.496, 549.056 585.278, 592 587.844 C 604.375 588.584, 614.950 589.259, 615.500 589.344 C 617.147 589.601, 616.842 366.706, 615.181 356 C 608.852 315.215, 589.862 283.279, 559.804 262.867 C 552.206 257.707, 539.416 251.675, 531.288 249.418 L 525.077 247.693 524.394 243.145 C 524.019 240.643, 524.001 232.893, 524.354 225.922 C 525.327 206.689, 522.890 198.580, 514.895 194.445 C 510.841 192.349, 503.171 191.763, 499.500 193.269 M 371.974 283.643 C 343.957 299.863, 325.627 314.460, 303.137 338.462 C 269.172 374.712, 243.561 424.715, 233.495 474.431 C 228.664 498.289, 228 508.779, 228 561.244 C 228 608.383, 228.063 610, 229.890 610 C 230.929 610, 235.316 609.333, 239.640 608.519 C 262.470 604.216, 316.103 596.772, 344.704 593.936 L 356.909 592.726 357.268 475.113 C 357.584 371.396, 357.822 356.378, 359.277 348 C 363.516 323.597, 371.080 302.609, 382.973 282.250 C 384.953 278.861, 385.581 277, 384.744 277 C 384.031 277, 378.285 279.989, 371.974 283.643 M 627.398 280.839 C 635.531 293.722, 643.783 313.323, 647.884 329.500 C 653.612 352.090, 653.390 346.600, 653.747 474.592 L 654.077 592.683 670.788 594.401 C 694.571 596.846, 735.438 602.403, 756.500 606.055 C 766.400 607.771, 776.686 609.423, 779.357 609.725 L 784.213 610.275 783.749 560.387 C 783.380 520.841, 782.929 507.909, 781.571 498 C 769.861 412.517, 725.675 340.540, 656.500 294.263 C 645.943 287.200, 628.066 277, 626.244 277 C 625.419 277, 625.823 278.343, 627.398 280.839 M 466 623.599 C 387.735 626.103, 318.987 632.855, 248.459 644.965 C 228.431 648.404, 227.398 648.744, 221.900 653.705 C 218.316 656.940, 214.716 663.555, 197.525 698.500 C 186.431 721.050, 174.492 745.232, 170.992 752.239 C 165.894 762.446, 164.551 766.122, 164.236 770.739 C 163.563 780.591, 169.337 788.398, 179.273 791.074 C 182.569 791.961, 186.923 791.542, 204.872 788.608 C 313.814 770.803, 423.531 762.683, 532 764.398 C 632.658 765.989, 713.275 773.216, 812.563 789.547 C 831.303 792.630, 835.907 791.976, 842.186 785.339 C 845.775 781.546, 847 777.980, 847 771.325 C 847 766.286, 845.985 763.719, 835.858 743.140 C 829.731 730.688, 817.857 706.511, 809.472 689.414 C 801.087 672.316, 792.823 656.729, 791.107 654.775 C 789.391 652.821, 786.493 650.513, 784.667 649.646 C 778.378 646.662, 717.974 637.154, 675.920 632.529 C 649.309 629.602, 609.448 626.447, 581 625.016 C 559.676 623.943, 484.283 623.014, 466 623.599" stroke="none" fill="#000000" fill-rule="evenodd"/></svg>