<svg xmlns="http://www.w3.org/2000/svg" width="1024" height="1024" viewBox="0 0 1024 1024" version="1.1"><path d="M 296.466 145.250 C 297.486 149.805, 305.239 198.272, 321.539 302 C 338.288 408.577, 340.551 420.817, 346.338 436.148 C 365.934 488.058, 407.346 527.205, 455.621 539.456 C 527.165 557.610, 601.026 515.956, 630.975 440.563 C 638.361 421.970, 638.750 419.946, 656.460 308 C 664.422 257.675, 673.425 201.025, 676.468 182.112 C 679.511 163.198, 682 146.661, 682 145.362 L 682 143 488.981 143 L 295.962 143 296.466 145.250 M 255.500 184.377 C 211.014 200.697, 179.329 234.986, 169.910 277 C 152.963 352.598, 213.091 423.817, 298.808 429.673 L 308.116 430.309 307.458 427.405 C 307.096 425.807, 306.418 422.925, 305.952 421 C 305.485 419.075, 304.394 413.225, 303.527 408 C 300.812 391.649, 301.819 393.320, 294.195 392.511 C 277.228 390.710, 257.307 383.171, 242.541 372.963 C 229.636 364.042, 217.161 349.396, 211.430 336.438 C 200.384 311.461, 202.112 283.260, 216.136 259.655 C 221.124 251.258, 232.966 238.627, 241.679 232.410 C 248.543 227.512, 267.366 218.038, 270.281 218.014 C 271.261 218.006, 272.262 217.438, 272.506 216.750 C 272.749 216.063, 271.716 207.855, 270.208 198.511 C 268.146 185.728, 267.100 181.466, 265.984 181.298 C 265.168 181.176, 260.450 182.561, 255.500 184.377 M 711.536 182.250 C 711.316 182.938, 710.187 189.800, 709.028 197.500 C 707.870 205.200, 706.696 212.660, 706.419 214.077 C 705.948 216.496, 706.424 216.853, 714.170 219.885 C 740.346 230.131, 761.920 251.500, 770.070 275.252 C 780.976 307.040, 773.580 337.676, 749.106 362.078 C 731.799 379.335, 709.037 390.067, 684.318 392.623 L 678.136 393.262 676.965 400.381 C 675.600 408.675, 672.205 425.711, 671.412 428.250 C 670.949 429.732, 671.530 430, 675.209 430 C 680.960 430, 694.700 428.264, 703.917 426.372 C 721.809 422.700, 745.174 412.370, 759.500 401.797 C 769.505 394.413, 784.729 378.821, 790.951 369.586 C 810.577 340.453, 816.502 306.998, 807.998 273.329 C 797.728 232.663, 765.817 199.296, 722.670 184.108 C 712.728 180.608, 712.097 180.503, 711.536 182.250 M 430 569.080 C 430 569.674, 431.296 573.837, 432.880 578.330 C 438.325 593.777, 439.500 601.025, 439.476 619 C 439.457 633.505, 439.133 636.775, 436.796 646.044 C 435.334 651.843, 432.982 659.659, 431.569 663.413 C 430.156 667.167, 429 670.410, 429 670.619 C 429 670.829, 456.225 671, 489.500 671 C 522.775 671, 550 670.812, 550 670.583 C 550 670.354, 548.453 665.516, 546.562 659.833 C 540.874 642.736, 539.492 634.374, 539.564 617.500 C 539.633 601.180, 541.018 593.506, 546.867 577.021 C 548.522 572.358, 549.707 568.374, 549.501 568.168 C 549.295 567.962, 545.611 568.954, 541.313 570.373 C 519.712 577.506, 498.025 580.132, 476.750 578.193 C 463.039 576.944, 446.852 573.670, 436.593 570.072 C 429.691 567.651, 430 567.697, 430 569.080 M 383 738 L 383 770 354 770 L 325 770 325 788 L 325 806 489.500 806 L 654 806 654 788 L 654 770 625 770 L 596 770 596 738 L 596 706 489.500 706 L 383 706 383 738" stroke="none" fill="#000000" fill-rule="evenodd"/></svg>