<svg xmlns="http://www.w3.org/2000/svg" width="1024" height="1024" viewBox="0 0 1024 1024" version="1.1"><path d="M 486 196.500 L 486 244 504 244 L 522 244 522 196.500 L 522 149 504 149 L 486 149 486 196.500 M 374.114 197.386 C 367.318 204.198, 361.924 210.229, 362.129 210.787 C 362.674 212.277, 424.809 275, 425.740 275 C 426.875 275, 451 250.660, 451 249.514 C 451 248.541, 387.965 185, 386.999 185 C 386.708 185, 380.910 190.574, 374.114 197.386 M 602.988 202.750 C 593.368 212.512, 578.979 227.137, 571.012 235.249 L 556.528 249.998 568.999 262.499 C 575.858 269.375, 581.927 275.002, 582.485 275.005 C 583.043 275.007, 597.752 260.495, 615.172 242.755 L 646.843 210.500 634.186 197.750 C 627.225 190.738, 621.293 185, 621.004 185 C 620.715 185, 612.608 192.988, 602.988 202.750 M 343 326.685 C 331.984 327.318, 320.250 329.156, 309 332.010 C 248.657 347.318, 200.717 391.766, 181.597 450.135 C 178.084 460.859, 174 479.629, 174 485.051 L 174 488 253.894 488 L 333.788 488 334.446 478.750 C 338.377 423.517, 358.212 376.379, 393.434 338.565 C 396.474 335.300, 398.858 332.534, 398.731 332.418 C 397.996 331.745, 376.461 327.963, 371 327.547 C 359.849 326.699, 348.723 326.356, 343 326.685 M 482 327.886 C 450.934 334.715, 421.881 355.799, 401.627 386.213 C 384.379 412.112, 372.949 446.076, 371.327 476.250 L 370.695 488 504 488 L 637.305 488 636.673 476.250 C 635.047 446.013, 623.442 411.375, 606.319 385.654 C 598.022 373.191, 581.768 356.244, 570.266 348.061 C 559.333 340.285, 544.232 332.819, 532.500 329.391 C 520.123 325.775, 495.006 325.026, 482 327.886 M 642 327.094 C 632.831 327.738, 611.248 331.419, 610.138 332.528 C 609.921 332.746, 613.110 336.653, 617.226 341.212 C 650.412 377.969, 669.858 425.251, 673.588 478.250 L 674.274 488 754.649 488 L 835.024 488 834.414 483.750 C 830.961 459.696, 821.816 433.219, 810.495 414.500 C 774.744 355.384, 710.884 322.257, 642 327.094 M 175.011 527.250 C 175.017 527.938, 177.717 539.040, 181.011 551.922 C 184.305 564.804, 187 575.492, 187 575.672 C 187 575.852, 222.100 576, 265 576 C 307.900 576, 342.997 575.888, 342.994 575.750 C 342.990 575.612, 341.643 564.925, 340 552 C 338.357 539.075, 337.010 527.938, 337.006 527.250 C 337.001 526.260, 320.130 526, 256 526 C 191.861 526, 175.002 526.260, 175.011 527.250 M 373.664 529.750 C 373.925 531.813, 375.344 542.950, 376.819 554.500 L 379.500 575.500 503.780 575.754 C 602.689 575.956, 628.151 575.752, 628.507 574.754 C 628.754 574.064, 630.088 564.275, 631.472 553 C 632.856 541.725, 634.237 531.038, 634.540 529.250 L 635.091 526 504.140 526 L 373.190 526 373.664 529.750 M 668.595 548.750 C 667.063 561.263, 665.579 572.513, 665.297 573.750 L 664.783 576 742.824 576 C 816.284 576, 820.896 575.897, 821.387 574.250 C 823.457 567.300, 833 529.039, 833 527.689 C 833 526.118, 827.364 526, 752.190 526 L 671.380 526 668.595 548.750 M 197.054 613.750 C 197.084 614.163, 199.935 625.300, 203.391 638.500 L 209.673 662.500 281.336 662.757 L 353 663.013 353 660.665 C 353 657.868, 348.207 618.487, 347.472 615.250 L 346.962 613 271.981 613 C 230.741 613, 197.024 613.337, 197.054 613.750 M 384.006 614.250 C 384.010 614.938, 385.357 626.075, 387 639 C 388.643 651.925, 389.990 662.612, 389.994 662.750 C 389.997 662.888, 441.260 663, 503.912 663 L 617.824 663 618.421 659.250 C 619.317 653.613, 624 615.947, 624 614.371 C 624 613.217, 604.997 613, 504 613 C 408.663 613, 384.001 613.257, 384.006 614.250 M 660.551 616.250 C 659.474 622.726, 655 658.627, 655 660.786 L 655 663 726.750 662.995 L 798.500 662.990 804.752 638.745 C 808.191 625.410, 811.003 614.163, 811.002 613.750 C 811.001 613.337, 777.270 613, 736.045 613 L 661.091 613 660.551 616.250 M 220 701.482 C 220 701.748, 222.699 712.210, 225.998 724.732 C 229.297 737.255, 231.997 748.063, 231.998 748.750 C 232 749.723, 225.234 750, 201.500 750 L 171 750 171 772 L 171 794 504 794 L 837 794 837 772 L 837 750 806.500 750 C 784.978 750, 776 749.676, 776 748.900 C 776 748.294, 778.700 737.728, 782 725.418 C 785.300 713.109, 788 702.579, 788 702.019 C 788 701.337, 765.214 701, 719.088 701 L 650.176 701 649.586 704.750 C 649.262 706.813, 647.852 717.275, 646.454 728 C 645.056 738.725, 643.721 748.063, 643.487 748.750 C 643.169 749.686, 638.675 750, 625.590 750 C 615.981 750, 607.883 749.619, 607.595 749.154 C 607.308 748.689, 608.406 738.297, 610.036 726.060 C 611.666 713.823, 613 703.179, 613 702.406 C 613 701.242, 609.304 701, 591.500 701 L 570 701 569.871 710.250 C 569.800 715.337, 569.462 726.250, 569.121 734.500 L 568.500 749.500 550.145 749.773 L 531.790 750.046 532.417 735.273 C 532.762 727.148, 533.307 716.112, 533.630 710.750 L 534.216 701 503.993 701 L 473.770 701 474.349 706.250 C 474.668 709.138, 475.227 720.163, 475.592 730.750 L 476.255 750 458.257 750 L 440.258 750 439.662 743.250 C 439.334 739.538, 438.766 728.513, 438.400 718.750 L 437.733 701 416.367 701 C 399.934 701, 395.003 701.289, 395.012 702.250 C 395.018 702.938, 396.356 713.615, 397.985 725.977 C 399.614 738.339, 400.588 748.812, 400.149 749.251 C 399.710 749.690, 391.511 749.925, 381.928 749.774 L 364.504 749.500 361.323 726 C 359.573 713.075, 358.109 702.163, 358.070 701.750 C 357.995 700.944, 220 700.677, 220 701.482" stroke="none" fill="#000000" fill-rule="evenodd"/></svg>