<svg xmlns="http://www.w3.org/2000/svg" width="1024" height="1024" viewBox="0 0 1024 1024" version="1.1"><path d="M 378.342 175.430 C 351.287 180.527, 329.810 196.271, 317.564 219.981 C 311.751 231.237, 309 241.204, 308.302 253.541 C 307.754 263.224, 309.310 275.423, 311.990 282.474 L 312.907 284.885 319.700 280.330 C 346.037 262.668, 380.546 253.894, 418 255.336 C 451.286 256.618, 478.543 264.821, 502.823 280.863 C 509.108 285.016, 509.179 284.961, 511.595 274.170 C 513.603 265.203, 513.082 245.627, 510.594 236.500 C 504.122 212.765, 486.398 191.857, 464.231 181.805 C 450.216 175.450, 445.316 174.727, 414 174.389 C 393.155 174.163, 383.577 174.443, 378.342 175.430 M 390 285.021 C 350.646 290.479, 322.359 307.577, 312.320 331.976 C 311.070 335.014, 310.037 338.512, 310.024 339.750 L 310 342 411 342 C 466.550 342, 512 341.620, 512 341.157 C 512 339.098, 507.749 328.247, 505.315 324.095 C 495.318 307.036, 471.973 293.182, 442.500 286.818 C 432.156 284.584, 400.869 283.513, 390 285.021 M 308.006 418.745 C 308.012 470.247, 308.521 477.338, 313.423 494.176 C 324.646 532.733, 354.347 563.667, 388.790 572.675 C 400.729 575.797, 418.478 576.224, 429.237 573.648 C 463.864 565.357, 492.907 537.707, 505.906 500.658 C 512.134 482.910, 512.770 475.914, 513.154 421 L 513.500 371.500 410.750 371.245 L 308 370.991 308.006 418.745 M 263.500 375.780 C 236.770 384.934, 218.100 400.830, 206.277 424.500 C 200.669 435.727, 197.916 446.449, 196.008 464.500 C 194.567 478.140, 192.518 486.016, 187.883 495.737 C 183.592 504.736, 175.118 514.717, 168.132 519 C 165.889 520.375, 164.042 521.772, 164.027 522.105 C 164.012 522.438, 167.713 523.556, 172.250 524.588 C 184.433 527.361, 207.581 527.153, 218.500 524.173 C 234.919 519.692, 252.933 508.775, 262.169 497.709 C 267.195 491.687, 274.605 480.087, 277.010 474.476 C 278.906 470.053, 279 467.529, 279 420.917 L 279 372 276.750 372.006 C 275.512 372.010, 269.550 373.708, 263.500 375.780 M 359.256 461.645 C 354.798 463.842, 352 468.709, 352 474.265 C 352 485.816, 367.962 505.933, 383.001 513.336 C 406.683 524.995, 434.702 520.639, 453.390 502.393 C 460.061 495.880, 466.527 486.105, 468.702 479.247 C 470.294 474.224, 470.282 473.786, 468.410 469.271 C 465.946 463.326, 461.315 460, 455.500 460 C 449.373 460, 445.179 463.247, 440.959 471.254 C 433.992 484.475, 425.852 490.056, 412.500 490.768 C 397.779 491.552, 388.101 485.597, 380.458 471.052 C 378.044 466.458, 375.476 463.042, 373.557 461.871 C 369.824 459.595, 363.614 459.497, 359.256 461.645 M 365 614.176 L 365 633.351 377.667 652.926 C 403.534 692.901, 410.231 703, 410.857 702.980 C 411.211 702.970, 421.735 687.107, 434.244 667.730 L 456.987 632.500 456.994 613.643 C 457 596.070, 456.881 594.836, 455.250 595.520 C 440.610 601.656, 428.853 603.919, 411.360 603.965 C 396.347 604.005, 385.564 602.280, 373.649 597.931 C 369.231 596.319, 365.478 595, 365.309 595 C 365.139 595, 365 603.629, 365 614.176 M 739.500 634.059 C 728.909 635.485, 715.543 639.579, 705.340 644.520 C 696.548 648.779, 682.693 658.327, 678.500 663.017 L 676.500 665.254 679.417 667.377 C 698.822 681.503, 711.306 699.119, 717.167 720.646 C 720.211 731.829, 720.202 752.175, 717.147 763.500 C 712.080 782.286, 701.095 798.987, 685.620 811.433 C 680.879 815.246, 677 818.679, 677 819.063 C 677 820.600, 693.607 832.791, 701.787 837.258 C 719.157 846.744, 736.854 850.636, 758.395 849.708 C 783.110 848.643, 806.830 839.062, 824.124 823.160 L 829.299 818.402 824.399 814.870 C 785.048 786.503, 774.375 737.298, 798.606 695.955 C 803.014 688.433, 814.688 675.970, 822.985 669.928 C 826.293 667.519, 828.972 665.313, 828.937 665.024 C 828.779 663.709, 815.444 653.154, 808.944 649.198 C 799.717 643.583, 784.670 637.583, 774.744 635.560 C 764.846 633.544, 748.497 632.847, 739.500 634.059 M 251.500 652.472 C 221.406 658.026, 198.153 678.869, 187.882 709.500 L 185.535 716.500 185.221 783.250 L 184.908 850 217.954 850 L 251 850 251.004 822.250 C 251.007 796.324, 251.138 794.286, 252.995 791.241 C 258.544 782.139, 270.861 781.660, 276.750 790.316 C 278.952 793.553, 279 794.226, 279 821.812 L 279 850 410.457 850 L 541.913 850 542.207 821.015 L 542.500 792.030 546.154 788.378 C 552.872 781.662, 562.972 782.986, 568.005 791.241 C 569.862 794.286, 569.993 796.324, 569.996 822.250 L 570 850 603 850 C 628.729 850, 636.002 849.725, 636.009 848.750 C 636.014 848.063, 636.093 839.983, 636.185 830.795 L 636.352 814.091 630.712 803.236 C 613.404 769.923, 610.539 735.371, 622.134 699.789 L 625.299 690.078 620.937 684.289 C 609.179 668.687, 594.083 658.438, 575.399 653.371 C 569.140 651.673, 564.342 651.500, 523.662 651.500 L 478.824 651.500 456.121 686.500 C 422.949 737.639, 421.826 739.268, 418 741.833 C 415.184 743.720, 413.558 744.090, 409.676 743.729 C 407.022 743.482, 403.683 742.407, 402.255 741.341 C 400.828 740.276, 394.414 731.325, 388.002 721.452 C 354.078 669.216, 343.744 653.397, 342.798 652.257 C 341.299 650.450, 261.437 650.639, 251.500 652.472 M 840.360 692.323 C 827.714 701.653, 819.614 713.369, 815.975 727.596 C 809.965 751.098, 819.103 775.774, 839.333 790.666 C 842.571 793.050, 845.783 795, 846.471 795 C 847.159 795, 849.351 791.436, 851.342 787.080 C 864.793 757.654, 864.674 725.004, 851.012 696.250 C 848.856 691.712, 846.896 688, 846.656 688 C 846.416 688, 843.583 689.945, 840.360 692.323 M 655.139 694.750 C 642.922 719.061, 640.652 748.453, 649.014 774.042 C 652.459 784.586, 657.557 795.004, 659.264 794.990 C 661.951 794.969, 674.187 784.539, 678.958 778.204 C 686.591 768.067, 690.191 757.945, 690.768 744.988 C 691.494 728.726, 687.532 716.410, 677.495 703.720 C 672.889 697.896, 661.956 689, 659.404 689 C 658.648 689, 656.729 691.587, 655.139 694.750" stroke="none" fill="#000000" fill-rule="evenodd"/></svg>