<svg xmlns="http://www.w3.org/2000/svg" width="1024" height="1024" viewBox="0 0 1024 1024" version="1.1"><path d="M 494 2.888 C 483.860 6.170, 477.723 10.045, 469.457 18.385 C 457.471 30.479, 452.048 43.326, 452.015 59.710 L 452 66.921 408.170 67.210 L 364.340 67.500 359.464 70.515 C 355.916 72.710, 353.828 74.987, 351.794 78.880 L 349 84.228 349 132.614 L 349 181 512 181 L 675 181 675 132.679 L 675 84.359 672.250 78.934 C 670.185 74.862, 668.274 72.761, 664.580 70.505 L 659.660 67.500 615.830 67.210 L 572 66.921 571.985 59.710 C 571.932 33.712, 554.154 10.060, 529.068 2.612 C 521.370 0.327, 501.427 0.484, 494 2.888 M 504.703 36.442 C 494.347 40.136, 488.200 47.660, 487.294 57.750 C 486.343 68.343, 490.804 77.457, 499.411 82.501 C 515.905 92.167, 537 79.820, 537 60.500 C 537 43.516, 520.121 30.943, 504.703 36.442 M 174.500 102.932 C 167.592 104.621, 161.121 109.933, 157.362 117 C 155.555 120.396, 155.492 133.551, 155.241 560 C 155.001 966.431, 155.106 999.897, 156.635 1004.773 C 158.576 1010.965, 164.589 1018.240, 170.082 1021.042 C 173.871 1022.975, 178.275 1023, 511.710 1022.978 C 836.692 1022.957, 849.652 1022.887, 853.500 1021.129 C 855.700 1020.124, 859.390 1017.244, 861.700 1014.728 C 869.746 1005.964, 869.039 1051.556, 868.754 559.979 L 868.500 120.500 866.284 116.357 C 865.066 114.079, 862.161 110.581, 859.828 108.585 C 852.020 101.901, 853.255 102, 777.318 102 L 709 102 709 125.500 L 709 149 765 149 L 821 149 821 563 L 821 977 512 977 L 203 977 203 563 L 203 149 259.018 149 L 315.037 149 314.768 125.750 L 314.500 102.500 246 102.349 C 208.325 102.266, 176.150 102.528, 174.500 102.932 M 493 310.655 C 468.712 312.983, 452.099 316.350, 431.853 323.049 C 350.456 349.979, 286.883 415.762, 263.397 497.358 C 237.769 586.396, 261.390 680.749, 325.988 747.373 C 369.086 791.824, 421.376 818.232, 482 826.167 C 494.521 827.805, 530.938 827.776, 543 826.117 C 574.546 821.779, 600.702 813.691, 627.728 799.919 C 678.727 773.931, 719.840 732.252, 744.541 681.500 C 759.062 651.663, 766.625 624.791, 769.970 591.144 C 773.981 550.811, 766.059 503.286, 748.911 464.800 C 714.532 387.643, 644.440 331.472, 562 315.012 C 540.940 310.807, 511.088 308.922, 493 310.655 M 489 350.056 C 461.224 353.493, 437.345 360.736, 412.839 373.157 C 400.511 379.406, 380 392.519, 380 394.151 C 380 394.684, 383.083 398.805, 386.850 403.310 C 431.510 456.706, 453.135 524.027, 446.980 590.500 C 441.981 644.481, 420.573 695.247, 385.628 735.986 C 382.797 739.286, 381.038 742.252, 381.211 743.431 C 381.923 748.267, 416.834 768.322, 438 776.055 C 450.571 780.648, 471.380 785.759, 484.526 787.482 C 499.640 789.464, 526.768 789.441, 541.148 787.436 C 566.413 783.912, 592.995 775, 616.500 762.174 C 627.505 756.168, 644 745.031, 644 743.605 C 644 742.960, 641.154 739.009, 637.675 734.825 C 602.864 692.954, 583.093 646.714, 577.463 594 C 570.281 526.746, 591.722 457.865, 636.638 403.899 C 640.687 399.034, 644 394.642, 644 394.139 C 644 392.192, 621.911 378.455, 607.565 371.480 C 586.519 361.248, 568.275 355.409, 545 351.457 C 533.739 349.545, 499.958 348.700, 489 350.056 M 343.292 428.705 C 316.991 460.882, 300.569 497.236, 294.329 537.096 C 291.889 552.685, 291.900 587.274, 294.350 601.457 C 299.256 629.858, 308.159 654.803, 321.561 677.700 C 332.196 695.871, 349.395 718, 352.882 718 C 355.040 718, 366.871 703.608, 375.810 690.111 C 379.310 684.825, 385.671 673.471, 389.944 664.880 C 416.204 612.083, 419.839 553.174, 400.332 496.553 C 395.363 482.131, 384.435 460.406, 375.153 446.500 C 366.207 433.097, 355.238 419.669, 352.860 419.211 C 351.899 419.026, 348.219 422.679, 343.292 428.705 M 666.578 423.046 C 654.264 436.675, 639.134 460.503, 630.440 479.954 C 596.381 556.161, 608.575 642.262, 663.056 710.250 C 666.599 714.670, 670.029 718, 671.041 718 C 674.284 718, 688.968 699.939, 699.286 683.259 C 744.357 610.396, 742.629 519.535, 694.804 447.500 C 686.755 435.378, 673.402 419, 671.567 419 C 670.833 419, 668.588 420.820, 666.578 423.046" stroke="none" fill="#000000" fill-rule="evenodd"/></svg>