<svg xmlns="http://www.w3.org/2000/svg" width="1024" height="1024" viewBox="0 0 1024 1024" version="1.1"><path d="M 741.752 470.750 L 741.500 759.500 452.750 759.752 L 164 760.003 164 801.002 L 164 842 494.500 842 L 825 842 825 512 L 825 182 783.502 182 L 742.003 182 741.752 470.750 M 481 349.537 C 460.554 355.253, 448.158 374.439, 451.113 395.796 C 454.393 419.498, 478.653 435.728, 501.650 429.605 C 516.629 425.617, 528.575 413.473, 531.961 398.791 C 536.260 380.157, 527.066 361.071, 509.658 352.490 C 500.863 348.154, 489.963 347.031, 481 349.537 M 556.217 434.815 C 552.417 440.679, 544.139 449.218, 538.881 452.697 C 536.747 454.110, 535 455.545, 535 455.887 C 535 456.229, 555.025 476.530, 579.500 501 C 603.975 525.470, 624 546.056, 624 546.746 C 624 547.436, 623.330 548, 622.512 548 C 619.269 548, 600.927 554.494, 591.035 559.144 C 585.280 561.850, 575.380 567.498, 569.035 571.695 C 553.404 582.037, 534.250 601.182, 525 615.708 C 521.425 621.322, 518.007 625.935, 517.405 625.958 C 516.802 625.981, 513.985 622.197, 511.144 617.548 C 490.431 583.651, 460.355 559.377, 423.228 546.590 C 405.285 540.410, 393.254 538.540, 371.500 538.548 C 350.088 538.556, 341.988 539.741, 323.009 545.639 C 280.872 558.734, 245.438 589.006, 226.020 628.500 C 216.448 647.968, 211.078 666.380, 209.540 685 C 209.199 689.125, 208.686 694.413, 208.399 696.750 L 207.877 701 226.341 701 L 244.804 701 245.461 694.750 C 249.257 658.651, 261.665 631.985, 285.144 609.464 C 308.675 586.893, 338.476 575, 371.500 575 C 418.383 575, 460.200 600.294, 482.425 642.097 C 490.529 657.340, 496.989 680.912, 496.997 695.272 L 497 701.043 516.250 700.772 L 535.500 700.500 536.199 692 C 541.120 632.138, 592.066 584.131, 654.538 580.489 C 670.942 579.533, 672.766 579.144, 676.593 575.784 C 678.523 574.089, 680.754 571.442, 681.551 569.901 C 683.480 566.171, 683.399 556.701, 681.404 552.700 C 679.971 549.828, 561.333 430, 559.922 430 C 559.600 430, 557.933 432.167, 556.217 434.815" stroke="none" fill="#000000" fill-rule="evenodd"/></svg>