<svg xmlns="http://www.w3.org/2000/svg" width="1024" height="1024" viewBox="0 0 1024 1024" version="1.1"><path d="M 383 158.626 C 352.106 162.272, 327.620 182.379, 317.733 212.220 C 314.750 221.224, 314.646 222.162, 314.221 243.750 C 313.980 255.988, 314.015 266, 314.299 266 C 314.583 266, 319.158 263.097, 324.465 259.549 C 342.124 247.742, 361.737 239.462, 382.739 234.947 C 398.162 231.632, 424.718 231.175, 441.500 233.936 C 464.019 237.640, 488.570 247.345, 506 259.431 C 510.125 262.291, 514.105 264.992, 514.845 265.434 C 515.961 266.099, 516.124 262.250, 515.800 242.868 C 515.426 220.414, 515.302 219.187, 512.632 211.500 C 503.807 186.094, 484.355 167.616, 459.287 160.828 C 452.231 158.918, 448.449 158.696, 419 158.466 C 401.125 158.327, 384.925 158.399, 383 158.626 M 402.646 264.073 C 385.711 265.798, 369.833 270.511, 354.500 278.366 C 345.476 282.989, 329.573 294.640, 323.383 301.162 C 317.741 307.108, 310 316.870, 310 318.039 C 310 318.648, 348.501 319, 415 319 C 493.865 319, 520 318.712, 520 317.842 C 520 314.113, 501.542 295.055, 489.850 286.712 C 465.906 269.627, 432.715 261.010, 402.646 264.073 M 314.235 408.750 C 314.562 464.288, 314.658 466.794, 316.730 474.187 C 329.165 518.531, 362.540 548.328, 405.011 553.001 C 435.800 556.389, 465.084 545.385, 487.242 522.100 C 501.303 507.325, 510.159 490.676, 514.090 471.627 C 515.802 463.331, 515.975 457.423, 515.987 406.750 L 516 351 414.948 351 L 313.895 351 314.235 408.750 M 251.205 390.894 C 241.128 394.375, 234.046 402.508, 231.810 413.168 C 229.511 424.130, 234.644 436.255, 244.323 442.723 C 251.055 447.222, 254.676 447.988, 269.250 447.994 L 282 448 282 418.500 L 282 389 269.250 389.033 C 259.560 389.057, 255.229 389.504, 251.205 390.894 M 548 418.592 L 548 448.183 562.750 447.824 C 579.452 447.418, 583.533 446.195, 590.258 439.583 C 595.637 434.294, 598.219 428.626, 598.775 420.884 C 599.475 411.133, 597.129 404.969, 590.009 397.849 C 582.523 390.363, 578.027 389, 560.818 389 L 548 389 548 418.592 M 364.984 438.852 C 357.123 443.029, 354.966 451.776, 358.946 463.342 C 364.662 479.956, 381.755 494.496, 401 499.115 C 408.074 500.813, 422.949 500.810, 430 499.109 C 437.537 497.290, 448.763 491.836, 454.814 487.053 C 465.195 478.847, 473.182 464.342, 473.386 453.324 C 473.514 446.374, 471.864 443.249, 465.908 439.161 C 459.186 434.547, 447.015 438.217, 444.255 445.689 C 443.684 447.235, 442.454 450.642, 441.522 453.259 C 438.156 462.713, 429.733 468.040, 417 468.767 C 402.872 469.574, 391.759 462.860, 388.465 451.528 C 384.879 439.193, 374.691 433.693, 364.984 438.852 M 454.758 579.082 C 435.247 586.805, 402.498 587.204, 379 580.006 C 375.425 578.911, 371.938 578.012, 371.250 578.008 C 370.302 578.002, 370.003 581.807, 370.011 593.750 L 370.021 609.500 381.177 626.500 C 387.313 635.850, 397.460 651.326, 403.726 660.890 C 409.992 670.455, 415.475 677.880, 415.910 677.390 C 416.344 676.901, 426.667 661.281, 438.850 642.680 L 461 608.860 461 592.930 C 461 584.168, 460.663 577.046, 460.250 577.102 C 459.837 577.159, 457.366 578.049, 454.758 579.082 M 734 617.435 C 716.680 621.060, 700.365 628.970, 686.750 640.345 C 684.138 642.527, 682 644.653, 682 645.069 C 682 645.484, 684.818 647.836, 688.263 650.294 C 714.648 669.122, 728.221 697.976, 724.888 728.155 C 722.072 753.664, 708.799 774.649, 685.173 790.950 L 681.846 793.246 685.151 796.655 C 693.946 805.730, 712.915 815.956, 728.616 820.088 C 739.934 823.066, 759.767 823.756, 771.326 821.573 C 782.955 819.378, 794.879 814.983, 804.904 809.199 C 812.446 804.847, 824.814 795.366, 824.944 793.838 C 824.975 793.474, 822.188 791.160, 818.750 788.696 C 806.357 779.813, 795.656 767.306, 789.493 754.500 C 777.603 729.797, 779.165 701.594, 793.807 676.612 C 798.424 668.734, 811.493 655.217, 819.598 649.936 C 825.903 645.828, 826.018 645.677, 824.281 643.752 C 820.404 639.457, 806.994 630.207, 798.939 626.272 C 783.714 618.833, 774.867 616.776, 756.500 616.401 C 745.676 616.180, 738.397 616.515, 734 617.435 M 258.651 631.597 C 227.895 637.154, 202.486 660.534, 192.806 692.185 C 190.610 699.365, 190.562 700.637, 190.241 761.250 L 189.914 823 221.392 823 L 252.869 823 253.185 799.250 C 253.489 776.334, 253.583 775.367, 255.851 771.719 C 261.998 761.832, 275.416 761.631, 281.839 771.330 L 284.500 775.348 284.815 799.174 L 285.131 823 415.565 823 L 546 823 546 799.148 C 546 776.059, 546.072 775.190, 548.250 771.990 C 552.013 766.461, 555.482 764.500, 561.500 764.500 C 567.518 764.500, 570.987 766.461, 574.750 771.990 C 576.928 775.190, 577 776.059, 577 799.148 L 577 823 609 823 L 641 823 641 808.044 C 641 793.586, 640.914 792.963, 638.404 789.294 C 634.311 783.311, 629.505 773.279, 626.048 763.500 C 615.966 734.989, 615.761 705.556, 625.445 677.145 L 627.952 669.791 625.086 665.645 C 615.501 651.782, 598.880 639.641, 582 634.172 C 570.700 630.511, 563.659 630.014, 523.500 630.045 L 484.500 630.076 450.500 682 C 431.800 710.558, 416.022 733.941, 415.438 733.962 C 414.854 733.983, 398.946 710.600, 380.086 682 L 345.797 630 306.148 630.090 C 276.615 630.157, 264.498 630.541, 258.651 631.597 M 658.381 678.552 C 651.938 692.497, 650.615 699.330, 650.554 719 C 650.510 733.175, 650.860 737.830, 652.396 743.498 C 654.501 751.271, 660.716 766.706, 662.079 767.549 C 663.533 768.448, 673.350 761.579, 679.255 755.530 C 698.835 735.477, 699.020 704, 679.678 683.861 C 675.117 679.112, 664.291 671, 662.515 671 C 662.160 671, 660.300 674.398, 658.381 678.552 M 837.939 674.963 C 825.872 683.343, 816.995 695.912, 813.986 708.881 C 812.274 716.259, 813.209 730.006, 815.906 737.105 C 819.953 747.760, 827.423 756.817, 838.195 764.132 C 841.327 766.260, 844.162 768, 844.494 768 C 845.706 768, 851.965 753.290, 854.068 745.500 C 857.302 733.518, 857.845 711.674, 855.225 698.995 C 852.654 686.561, 846.427 670.868, 844.135 671.051 C 843.786 671.079, 840.997 672.839, 837.939 674.963" stroke="none" fill="#000000" fill-rule="evenodd"/></svg>