<svg xmlns="http://www.w3.org/2000/svg" width="1024" height="1024" viewBox="0 0 1024 1024" version="1.1"><path d="M 180.569 172.649 C 147.623 179.711, 120.884 204.834, 110.257 238.712 L 107.500 247.500 107.196 507.500 C 106.972 698.376, 107.194 769.447, 108.030 774.823 C 113.807 811.971, 143.766 843.535, 180.429 851.102 C 189.140 852.899, 198.708 852.974, 421.578 852.987 L 653.657 853 654.822 847.952 C 658.415 832.385, 669.603 819.874, 684.413 814.860 L 689.500 813.138 689.500 512 L 689.500 210.862 684.214 209.073 C 677.519 206.806, 668.831 200.850, 664.489 195.551 C 660.401 190.563, 655.377 180.192, 654.482 174.894 L 653.824 171 420.662 171.082 C 218.398 171.152, 186.582 171.360, 180.569 172.649 M 743.430 173.750 C 739.653 190.840, 728.994 203.613, 713.925 209.108 L 707.997 211.269 708.248 512.211 L 708.500 813.153 714 815.087 C 728.176 820.071, 739.051 832.213, 742.350 846.741 L 743.658 852.500 789.079 852.775 C 839.072 853.077, 842.974 852.747, 857.984 846.934 C 879.255 838.696, 899.561 819.478, 909.008 798.643 C 915.906 783.430, 916.319 780.611, 916.753 745.757 L 917.149 714.013 844.324 713.757 L 771.500 713.500 771.227 695.250 L 770.955 677 843.977 677 L 917 677 917 650.007 L 917 623.013 844.250 622.757 L 771.500 622.500 771.227 604.250 L 770.955 586 843.977 586 L 917 586 917 559.007 L 917 532.013 844.250 531.757 L 771.500 531.500 771.227 513.250 L 770.955 495 843.977 495 L 917 495 917 468.007 L 917 441.013 844.250 440.757 L 771.500 440.500 771.227 422.250 L 770.955 404 843.977 404 L 917 404 917 366.500 L 917 329 844 329 L 771 329 771 311 L 771 293 844.095 293 L 917.190 293 916.742 270.250 C 916.232 244.354, 915.472 240.239, 908.408 225.148 C 897.897 202.692, 880.423 186.087, 857.825 177.080 C 843.456 171.352, 839.500 171, 789.561 171 L 744.038 171 743.430 173.750 M 385 333.028 C 348.602 338.035, 311.940 356.347, 285.269 382.841 C 259.834 408.106, 242.073 440.908, 235.096 475.500 C 230.143 500.057, 230.134 524.029, 235.067 548.393 C 249.421 619.289, 306.245 675.902, 377.443 690.240 C 392.099 693.192, 423.510 693.428, 437.500 690.692 C 461.217 686.054, 490.022 673.775, 508.876 660.265 C 539.231 638.516, 563.090 606.515, 575.471 570.946 C 585.594 541.862, 587.777 506.620, 581.412 475.046 C 573.409 435.353, 550.996 398.151, 519.074 371.573 C 497.933 353.972, 471.118 341.180, 442.264 334.933 C 434.571 333.267, 428.153 332.746, 412 332.476 C 400.725 332.288, 388.575 332.536, 385 333.028 M 398.500 368.609 C 378.003 370.654, 359.597 375.952, 343.139 384.543 C 326.900 393.021, 327.421 391.317, 337.820 401.925 C 349.687 414.032, 358.618 426.691, 366.446 442.500 C 373.586 456.920, 376.750 465.827, 380.190 481.184 C 382.204 490.177, 382.499 494.193, 382.496 512.500 C 382.492 529.218, 382.113 535.233, 380.637 542 C 374.001 572.410, 360.442 597.959, 339.146 620.184 C 327.215 632.634, 327.111 630.661, 340.110 638.424 C 359.427 649.961, 383.139 656.084, 408.500 656.084 C 435.333 656.084, 456.840 650.154, 480.022 636.364 C 484.410 633.754, 488 631.306, 488 630.924 C 488 630.542, 486.889 629.502, 485.532 628.613 C 481.617 626.048, 465.527 607.422, 459.580 598.572 C 448.395 581.927, 440.287 562.516, 435.846 541.749 C 432.639 526.755, 432.630 499.161, 435.826 483.172 C 442.090 451.836, 456.076 425.276, 478.177 402.746 L 487.853 392.881 482.230 389.284 C 468.643 380.593, 450.084 373.592, 432.513 370.532 C 423.881 369.028, 405 367.961, 398.500 368.609 M 297.233 423.250 C 284.024 440.544, 274.572 461.252, 269.817 483.312 C 268.001 491.733, 267.620 496.709, 267.620 512 C 267.620 527.291, 268.001 532.267, 269.817 540.688 C 272.474 553.016, 276.919 565.890, 282.028 576.053 C 286.503 584.955, 296.740 600.499, 300.351 603.873 L 302.891 606.246 308.996 600.423 C 331.084 579.354, 343.931 553.156, 347.123 522.673 C 349.856 496.572, 342.017 467.242, 325.939 443.407 C 320.659 435.579, 304.292 418, 302.284 418 C 301.712 418, 299.439 420.363, 297.233 423.250 M 504.346 427.250 C 479.436 453, 467.480 484.301, 469.331 518.916 C 471.031 550.704, 485.123 579.958, 509.373 602.043 L 514.245 606.481 518.185 602.041 C 527.419 591.637, 538.191 571.049, 543.412 553.831 C 551.020 528.742, 550.991 496.680, 543.337 470 C 540.500 460.111, 532.103 442.101, 525.752 432.284 C 521.066 425.040, 515.295 418, 514.043 418 C 513.631 418, 509.267 422.163, 504.346 427.250" stroke="none" fill="#000000" fill-rule="evenodd"/><path d="M 1 512 L 1 1023 512 1023 L 1023 1023 1023 512 L 1023 1 512 1 L 1 1 1 512 M 180.569 172.649 C 147.623 179.711, 120.884 204.834, 110.257 238.712 L 107.500 247.500 107.196 507.500 C 106.972 698.376, 107.194 769.447, 108.030 774.823 C 113.807 811.971, 143.766 843.535, 180.429 851.102 C 189.140 852.899, 198.708 852.974, 421.578 852.987 L 653.657 853 654.822 847.952 C 658.415 832.385, 669.603 819.874, 684.413 814.860 L 689.500 813.138 689.500 512 L 689.500 210.862 684.214 209.073 C 677.519 206.806, 668.831 200.850, 664.489 195.551 C 660.401 190.563, 655.377 180.192, 654.482 174.894 L 653.824 171 420.662 171.082 C 218.398 171.152, 186.582 171.360, 180.569 172.649 M 743.430 173.750 C 739.653 190.840, 728.994 203.613, 713.925 209.108 L 707.997 211.269 708.248 512.211 L 708.500 813.153 714 815.087 C 728.176 820.071, 739.051 832.213, 742.350 846.741 L 743.658 852.500 789.079 852.775 C 839.072 853.077, 842.974 852.747, 857.984 846.934 C 879.255 838.696, 899.561 819.478, 909.008 798.643 C 915.906 783.430, 916.319 780.611, 916.753 745.757 L 917.149 714.013 844.324 713.757 L 771.500 713.500 771.227 695.250 L 770.955 677 843.977 677 L 917 677 917 650.007 L 917 623.013 844.250 622.757 L 771.500 622.500 771.227 604.250 L 770.955 586 843.977 586 L 917 586 917 559.007 L 917 532.013 844.250 531.757 L 771.500 531.500 771.227 513.250 L 770.955 495 843.977 495 L 917 495 917 468.007 L 917 441.013 844.250 440.757 L 771.500 440.500 771.227 422.250 L 770.955 404 843.977 404 L 917 404 917 366.500 L 917 329 844 329 L 771 329 771 311 L 771 293 844.095 293 L 917.190 293 916.742 270.250 C 916.232 244.354, 915.472 240.239, 908.408 225.148 C 897.897 202.692, 880.423 186.087, 857.825 177.080 C 843.456 171.352, 839.500 171, 789.561 171 L 744.038 171 743.430 173.750 M 385 333.028 C 348.602 338.035, 311.940 356.347, 285.269 382.841 C 259.834 408.106, 242.073 440.908, 235.096 475.500 C 230.143 500.057, 230.134 524.029, 235.067 548.393 C 249.421 619.289, 306.245 675.902, 377.443 690.240 C 392.099 693.192, 423.510 693.428, 437.500 690.692 C 461.217 686.054, 490.022 673.775, 508.876 660.265 C 539.231 638.516, 563.090 606.515, 575.471 570.946 C 585.594 541.862, 587.777 506.620, 581.412 475.046 C 573.409 435.353, 550.996 398.151, 519.074 371.573 C 497.933 353.972, 471.118 341.180, 442.264 334.933 C 434.571 333.267, 428.153 332.746, 412 332.476 C 400.725 332.288, 388.575 332.536, 385 333.028 M 398.500 368.672 C 388.365 369.524, 373.635 372.497, 364.026 375.631 C 353.120 379.188, 332.403 389.415, 330.729 392.068 C 329.990 393.240, 331.712 395.582, 338.353 402.436 C 349.957 414.411, 358.738 426.935, 366.446 442.500 C 373.586 456.920, 376.750 465.827, 380.190 481.184 C 382.204 490.177, 382.499 494.193, 382.496 512.500 C 382.492 529.218, 382.113 535.233, 380.637 542 C 374.081 572.045, 360.494 597.840, 339.818 619.496 C 334.418 625.151, 330 630.288, 330 630.911 C 330 631.534, 332.813 633.863, 336.250 636.087 C 356.170 648.974, 381.975 656.133, 408.500 656.133 C 431.541 656.133, 453.052 650.955, 471.980 640.851 C 487.288 632.679, 489.191 630.849, 485.059 628.269 C 481.689 626.164, 465.230 606.981, 459.580 598.572 C 448.395 581.927, 440.287 562.516, 435.846 541.749 C 432.639 526.755, 432.630 499.161, 435.826 483.172 C 442.037 452.100, 455.893 425.649, 477.770 403.101 C 482.869 397.846, 486.863 393.086, 486.647 392.523 C 486.074 391.032, 472.312 383.347, 463.020 379.330 C 452.372 374.726, 435.029 370.443, 421.576 369.095 C 411.008 368.036, 406.959 367.962, 398.500 368.672 M 296.823 423.750 C 283.875 440.889, 274.507 461.550, 269.817 483.312 C 266.653 497.987, 266.653 526.013, 269.817 540.688 C 273.716 558.780, 280.151 574.543, 289.742 589.500 C 296.036 599.315, 300.841 605, 302.844 605 C 303.784 605, 307.521 601.962, 311.148 598.250 C 332.738 576.152, 344 552.491, 347.123 522.673 C 349.849 496.630, 342.011 467.227, 326.027 443.540 C 319.441 433.780, 305.244 419, 302.455 419 C 301.187 419, 299.049 420.803, 296.823 423.750 M 503.866 427.734 C 456.776 476.582, 457.488 551.015, 505.497 598.250 C 509.271 601.962, 513.167 605, 514.156 605 C 517.782 605, 530.975 585.244, 537.449 570.119 C 550.707 539.145, 552.821 503.394, 543.370 470 C 538.432 452.552, 519.880 419.983, 514.436 419.205 C 512.952 418.993, 509.981 421.390, 503.866 427.734" stroke="none" fill="#ffffff" fill-rule="evenodd"/></svg>