<svg xmlns="http://www.w3.org/2000/svg" width="1024" height="1024" viewBox="0 0 1024 1024" version="1.1"><path d="M 414.500 288.359 C 401.602 294.394, 391 311.675, 391 326.663 C 391 333.276, 392.821 340.994, 394.536 341.652 C 395.227 341.917, 398.608 340.712, 402.050 338.975 C 410.888 334.513, 427.132 329.383, 436.978 327.943 C 446.347 326.573, 461.853 327.185, 471.750 329.316 C 475.188 330.056, 478 330.326, 478 329.916 C 478 328.482, 432.469 288.712, 429.282 287.363 C 424.636 285.395, 420.195 285.694, 414.500 288.359 M 210.221 348.672 C 201.507 351.755, 193.386 362.415, 188.201 377.577 C 182.993 392.806, 177.737 418.918, 174.832 444 C 173.289 457.319, 173.145 511.242, 174.635 517.500 L 175.588 521.500 228.544 522.118 C 281.717 522.738, 295.137 523.374, 332.949 527.064 C 372.145 530.888, 405.757 535.942, 449 544.513 C 522.927 559.165, 567.888 563.835, 624 562.691 C 661.278 561.931, 687.553 559.497, 723.076 553.512 C 761.189 547.090, 809.520 533.245, 836.750 520.948 C 844.019 517.665, 844.167 517.147, 840.565 507.576 C 834.077 490.339, 821.275 478.455, 802.365 472.114 C 798.991 470.982, 785.930 468.692, 773.341 467.024 C 672.740 453.696, 638.662 442.109, 554 392.447 C 518.468 371.604, 510.571 367.193, 497.500 360.884 C 476.566 350.781, 457.795 346.775, 441.527 348.940 C 422.654 351.451, 407.317 358.187, 383.552 374.400 C 347.961 398.683, 328.234 407.400, 306 408.670 C 281.177 410.088, 263.429 398.792, 248.638 372.163 C 240.266 357.089, 237.589 353.950, 229.778 350.047 C 222.879 346.599, 217.206 346.201, 210.221 348.672 M 174.338 551.694 C 172.602 552.033, 171.474 554.125, 168.614 562.308 C 162.787 578.983, 161.756 584.320, 162.203 595.500 C 162.670 607.212, 164.591 612.431, 170.987 619.371 C 178.758 627.801, 191.411 634.203, 207.133 637.660 C 215.105 639.413, 225.126 639.500, 419.500 639.500 C 637.589 639.500, 636.187 639.528, 676.966 634.417 C 734.986 627.146, 784.811 611.128, 811.816 591.065 C 822.160 583.380, 832.897 571.650, 837.210 563.322 C 841.221 555.578, 842.604 551, 840.933 551 C 840.326 551, 833.230 553.473, 825.164 556.496 C 745.912 586.197, 641.857 598.680, 550.166 589.484 C 517.402 586.199, 497.173 583.090, 452.500 574.478 C 384.205 561.313, 334.129 554.973, 275.103 552.020 C 255.709 551.050, 178.913 550.802, 174.338 551.694" stroke="none" fill="#000000" fill-rule="evenodd"/></svg>