<svg xmlns="http://www.w3.org/2000/svg" width="1024" height="1024" viewBox="0 0 1024 1024" version="1.1"><path d="M 255.595 181.750 C 254.824 185.508, 219 400.450, 219 401.316 C 219 401.696, 278.512 401.893, 351.250 401.754 L 483.500 401.500 483.754 290.250 L 484.009 179 370.084 179 L 256.159 179 255.595 181.750 M 518 290.496 L 518 402 650 402 L 782 402 781.944 399.250 C 781.913 397.738, 773.701 347.675, 763.694 288 L 745.500 179.500 631.750 179.246 L 518 178.991 518 290.496 M 165 466.001 L 165 494.003 500.750 493.751 L 836.500 493.500 836.766 465.750 L 837.032 438 501.016 438 L 165 438 165 466.001 M 204.662 532.247 C 204.356 533.486, 200.911 552.500, 197.006 574.500 C 188.874 620.314, 166.252 746.132, 165.406 750.250 L 164.841 753 324.425 753 L 484.009 753 483.754 641.750 L 483.500 530.500 344.359 530.247 L 205.219 529.993 204.662 532.247 M 518 641.497 L 518 753 677 753 C 831.067 753, 836 752.943, 836 751.149 C 836 750.131, 833.527 735.879, 830.504 719.478 C 827.482 703.077, 819.806 660.598, 813.447 625.079 C 807.089 589.561, 800.664 553.750, 799.170 545.500 L 796.453 530.500 657.227 530.247 L 518 529.993 518 641.497 M 165 816.999 L 165 845 501.016 845 L 837.032 845 836.766 817.250 L 836.500 789.500 500.750 789.249 L 165 788.997 165 816.999" stroke="none" fill="#000000" fill-rule="evenodd"/></svg>