<svg xmlns="http://www.w3.org/2000/svg" width="1024" height="1024" viewBox="0 0 1024 1024" version="1.1"><path d="M 1 512 L 1 1023 512 1023 L 1023 1023 1023 512 L 1023 1 512 1 L 1 1 1 512 M 562 123.613 C 541.205 124.964, 514.407 130.424, 495.290 137.204 C 470.858 145.869, 442.465 162.035, 422.824 178.462 C 405.189 193.212, 383.649 218.622, 370.831 239.798 C 354.768 266.333, 342.223 301.939, 338.894 330.444 C 337.079 345.979, 338.271 386.543, 340.968 401 C 345.892 427.406, 355.625 453.506, 368.749 475.500 C 383.296 499.879, 399.698 519.809, 418.500 535.956 C 444.803 558.544, 468.297 572.289, 497.982 582.457 C 523.944 591.349, 555.937 596.047, 563.385 592.061 C 566.909 590.176, 567.457 587.458, 566.390 577.154 C 565.383 567.426, 566.588 568.669, 552.500 562.834 C 538.593 557.073, 523.524 543.813, 508.938 524.500 C 501.490 514.638, 492 498.186, 492 495.135 C 492 494.520, 493.487 492.069, 495.304 489.689 C 497.121 487.308, 499.185 483.968, 499.890 482.266 C 501.118 479.301, 502.412 478.506, 509.500 476.362 L 512.500 475.455 512.779 462.227 C 512.932 454.952, 512.860 449, 512.617 449 C 512.374 449, 508.707 449.664, 504.468 450.475 L 496.759 451.950 492.945 448.685 C 489.293 445.559, 483.438 442.234, 477.916 440.151 C 475.508 439.242, 475.117 438.127, 472.192 423.838 C 468.484 405.729, 467.229 396.086, 466.809 382.500 L 466.500 372.500 490.500 372 L 514.500 371.500 515.263 364.500 C 515.682 360.650, 515.762 355.137, 515.441 352.250 L 514.856 347 490.897 347 C 469.328 347, 466.873 346.831, 466.289 345.311 C 464.556 340.794, 472.721 288.362, 476.273 281.203 C 477.167 279.401, 479.170 278.221, 483.647 276.860 C 487.932 275.557, 491.320 273.619, 494.830 270.463 L 499.866 265.935 512.683 268.450 C 538.589 273.533, 559.570 275.969, 577.610 275.990 C 597.247 276.012, 633.988 270.791, 654.500 265.064 C 659.918 263.551, 661.761 263.380, 662.656 264.305 C 663.766 265.452, 672.004 288.284, 675.625 300.250 C 677.802 307.442, 679.274 307.591, 685.461 301.250 C 694.053 292.442, 694.760 290.518, 696.027 272.495 C 696.645 263.698, 697.467 255.212, 697.853 253.637 C 698.584 250.659, 703.684 247.346, 726.761 234.862 L 736.023 229.851 739.507 232.004 C 742.472 233.837, 743.480 233.997, 746.268 233.077 C 751.090 231.485, 762 222.046, 762 219.465 C 762 210.498, 729.505 179.255, 700.704 160.532 C 665.200 137.451, 624.779 124.952, 581.500 123.670 C 573.800 123.442, 565.025 123.416, 562 123.613 M 549.500 153.039 C 531.427 166.659, 514.069 186.440, 502.843 206.208 C 496.844 216.771, 495.198 221.592, 496.825 223.838 C 500.489 228.897, 502.124 231.865, 502.992 235.031 C 503.524 236.973, 504.531 239.328, 505.230 240.265 C 507.466 243.264, 532.006 248.319, 550.750 249.642 L 560 250.295 560.058 246.398 C 560.090 244.254, 560.071 222.700, 560.016 198.500 C 559.921 156.807, 559.560 146.994, 558.122 147.005 C 557.780 147.007, 553.900 149.723, 549.500 153.039 M 587.240 200.250 L 587.500 248.500 596.500 248.342 C 614.290 248.029, 655 238.798, 655 235.077 C 655 232.916, 648.648 218.093, 643.879 209.127 C 634.666 191.801, 620.321 172.793, 608.526 162.281 C 603.167 157.505, 592.434 152, 588.480 152 C 587.165 152, 587.013 157.925, 587.240 200.250 M 492.500 165.351 C 471.663 173.983, 450.019 188.186, 434 203.739 L 426.500 211.021 429.413 213.428 C 431.015 214.752, 436.036 217.779, 440.570 220.154 L 448.814 224.473 453.503 221.105 C 456.082 219.253, 460.736 216.984, 463.846 216.064 L 469.500 214.390 475 204.324 C 483.885 188.062, 487.641 182.046, 495.026 172.243 C 498.862 167.152, 502 162.764, 502 162.493 C 502 161.581, 500.536 162.022, 492.500 165.351 M 647 165.910 C 647 166.411, 648.798 169.095, 650.995 171.874 C 660.693 184.144, 674.090 207.173, 678.992 220 C 681.652 226.960, 682.148 227.131, 690.809 224.064 C 700.200 220.738, 712.803 214.540, 715.462 211.939 C 717.409 210.035, 717.392 209.986, 713.462 205.922 C 700.762 192.788, 675.984 176.222, 656.645 167.937 C 649.531 164.889, 647 164.357, 647 165.910 M 784.584 223.760 C 778.580 230.217, 759.880 249.900, 743.029 267.500 C 726.177 285.100, 701.621 310.975, 688.460 325 C 675.298 339.025, 661.510 353.648, 657.818 357.496 L 651.107 364.492 616.190 329.746 L 581.274 295 557.716 295 L 534.159 295 533.532 301.250 C 533.187 304.688, 533.039 345.750, 533.203 392.500 L 533.500 477.500 551.927 477.773 C 565.999 477.982, 570.544 477.746, 571.161 476.773 C 571.606 476.073, 571.976 445.913, 571.985 409.750 C 571.996 361.124, 572.298 344, 573.143 344 C 573.771 344, 591.316 360.875, 612.132 381.500 C 632.948 402.125, 650.578 419, 651.309 419 C 652.040 419, 656.440 415.063, 661.086 410.250 C 680.159 390.496, 712.186 356.844, 736.985 330.500 C 751.483 315.100, 769.384 296.087, 776.765 288.250 C 784.147 280.413, 790.528 274, 790.945 274 C 791.985 274, 797.124 285.346, 801.816 298 C 819.157 344.771, 821.386 397.665, 808.021 445.263 C 795.900 488.428, 768.207 531.988, 734.443 560.996 C 715.356 577.394, 698.069 588.937, 676.123 599.938 C 669.085 603.466, 664 606.617, 664 607.450 C 664 608.239, 671.032 613.884, 679.627 619.995 C 694.484 630.559, 695.404 631.055, 698.275 630.054 C 706.335 627.244, 729.779 612.808, 745.657 600.878 C 778.640 576.094, 806.992 541.397, 826.044 502.500 C 842.858 468.174, 850.849 436.910, 853.031 396.925 C 855.293 355.477, 848.588 315.013, 832.830 275.008 C 824.047 252.712, 800.980 211.987, 797.147 212.010 C 796.241 212.015, 790.588 217.302, 784.584 223.760 M 406.683 235.250 C 396.338 247.990, 382.991 271.677, 376.676 288.500 C 371.199 303.093, 366.009 324.557, 364.563 338.600 C 364.088 343.211, 364.277 344.985, 365.335 345.863 C 366.355 346.710, 376.604 346.954, 403.113 346.763 L 439.490 346.500 440.697 335.500 C 442.309 320.805, 445.467 301.950, 448.571 288.500 C 452.630 270.909, 452.658 272.140, 448.056 266.634 C 445.494 263.569, 443.409 259.684, 442.422 256.134 C 441.560 253.035, 440.516 249.387, 440.103 248.026 C 439.532 246.148, 436.115 243.802, 425.925 238.292 C 418.541 234.299, 411.968 231.025, 411.317 231.016 C 410.666 231.007, 408.581 232.912, 406.683 235.250 M 761.871 328.250 C 755.010 335.538, 746.158 345.014, 742.198 349.309 L 735 357.119 735 414.994 C 735 450.503, 735.380 473.869, 735.983 475.456 L 736.967 478.042 756.733 477.771 L 776.500 477.500 776.756 396.250 C 776.967 329.088, 776.781 315, 775.679 315 C 774.945 315, 768.732 320.962, 761.871 328.250 M 365.384 379.250 C 367.300 399.934, 375.697 429.291, 385.477 449.500 C 394.095 467.307, 408.074 487, 412.097 487 C 414.219 487, 430.191 479.712, 433.977 477.016 C 436.192 475.439, 437.108 473.561, 438.355 468.037 C 440.307 459.396, 443.135 453.622, 447.800 448.759 L 451.389 445.017 448.737 434.759 C 445.200 421.077, 441.253 397.729, 440.493 386 C 440.154 380.775, 439.672 375.488, 439.420 374.250 L 438.962 372 401.837 372 L 364.713 372 365.384 379.250 M 310.147 408.750 C 307.227 429.754, 301.803 476.863, 299.009 505.500 C 296.647 529.702, 292.665 559.162, 287.925 587.500 C 283.042 616.700, 276.718 640.374, 269.926 654.888 C 267.767 659.502, 266 663.843, 266 664.535 C 266 666.283, 314.669 713.432, 316.848 713.794 C 317.820 713.956, 322.190 712.564, 326.558 710.700 C 350.313 700.565, 392.515 690.328, 426.500 686.457 C 433.650 685.643, 442.790 684.466, 446.812 683.841 L 454.123 682.706 457.678 675.603 C 468.777 653.429, 480.196 639.424, 503.750 619.094 C 507.188 616.128, 509.991 612.980, 509.981 612.100 C 509.967 610.945, 506.974 609.569, 499.231 607.155 C 463.521 596.022, 425.776 574.166, 397.774 548.405 C 358.194 511.994, 333.041 468.814, 321.518 417.500 C 319.286 407.560, 316.088 389.680, 316.018 386.750 C 316.008 386.337, 315.395 386, 314.655 386 C 313.661 386, 312.486 391.929, 310.147 408.750 M 682.921 437.307 C 680.953 438.044, 678.382 439.319, 677.208 440.142 C 672.360 443.537, 668 451.458, 668 456.869 C 668 458.964, 667.071 460.567, 664.750 462.475 C 659.847 466.506, 633.806 482.994, 631.358 483.617 C 630.179 483.917, 627.704 483.369, 625.858 482.398 C 623.659 481.242, 620.236 480.625, 615.939 480.611 C 607.894 480.583, 601.406 483.919, 597.228 490.231 C 594.818 493.871, 594.500 495.301, 594.500 502.495 C 594.500 509.687, 594.819 511.120, 597.228 514.764 C 604.119 525.188, 616.255 527.255, 630.104 520.363 C 631.053 519.891, 662.184 538.439, 665.250 541.303 C 667.315 543.232, 668.002 544.823, 668.009 547.686 C 668.023 553.376, 672.961 561.307, 678.517 564.563 C 682.534 566.917, 683.860 567.172, 690.272 566.825 C 699.541 566.324, 704.759 563.131, 708.465 555.694 C 717.780 537.002, 699.254 516.813, 680.279 524.975 L 675.137 527.187 662.319 519.395 C 639.492 505.519, 639 505.163, 639 502.522 C 639 500.657, 640.539 499.065, 645.750 495.539 C 658.241 487.088, 675.845 476, 676.773 476 C 677.279 476, 679.175 476.739, 680.986 477.643 C 687.568 480.927, 699.138 479.015, 704.834 473.702 C 711.851 467.157, 713.597 455.068, 708.723 446.777 C 703.759 438.331, 691.858 433.964, 682.921 437.307 M 437.500 499.077 C 425.828 507.413, 426.088 506.732, 432.227 512.890 C 439.700 520.385, 455.088 531.799, 467.708 539.208 C 478.686 545.653, 494.048 553, 496.546 553 C 497.343 553, 495.157 549.098, 491.364 543.750 C 483.316 532.401, 476.344 520.616, 472.580 512 C 468.902 503.581, 467.764 502.378, 462.709 501.569 C 460.399 501.200, 455.734 499.346, 452.342 497.449 C 448.950 495.552, 445.798 494.017, 445.338 494.039 C 444.877 494.060, 441.350 496.327, 437.500 499.077 M 341.903 555.750 C 340.279 560.013, 332.577 587.617, 327.602 607 C 325.132 616.625, 321.736 629.818, 320.056 636.318 C 318.375 642.817, 317 649.163, 317 650.419 C 317 653.328, 321.471 661.961, 324.163 664.250 C 327.074 666.725, 329.949 666.469, 344.052 662.476 C 350.899 660.538, 367.525 656.449, 381 653.389 C 430.287 642.196, 434 641.082, 434 637.491 C 434 635.922, 430.338 633.365, 420 627.715 C 411.424 623.027, 401.438 615.520, 388.413 603.970 C 376.035 592.994, 367.006 583.012, 355.059 567.099 C 342.643 550.561, 343.574 551.364, 341.903 555.750 M 591.449 612.750 C 587.877 637.942, 575.900 665.094, 558.456 687.551 C 536.492 715.827, 501.759 735.567, 470.250 737.681 L 461 738.302 461 744.020 C 461 751.652, 463.389 764.950, 466.596 775.171 C 474.731 801.097, 490.842 823.453, 513.896 840.807 C 531.944 854.393, 559.343 864.268, 581.500 865.173 L 589.500 865.500 589.785 862 C 590.378 854.714, 593.255 841.227, 596.176 832.036 C 602.773 811.284, 614.581 791.511, 631.774 772.433 C 654.141 747.613, 677.774 733.253, 708.315 725.929 L 718.129 723.575 717.489 718.538 C 711.212 669.183, 675.888 627.870, 627.559 613.361 C 618.236 610.562, 603.587 608.010, 596.811 608.004 L 592.123 608 591.449 612.750 M 557.442 611.440 C 518.513 621.506, 485.527 650.347, 470.068 687.836 C 466.527 696.421, 461.592 715.495, 462.380 717.549 C 463.114 719.461, 469.247 719.434, 480.510 717.470 C 505.808 713.059, 533.686 693.416, 550.178 668.384 C 560.714 652.391, 570.245 628.826, 571.625 615.356 L 572.276 609 569.388 609.049 C 567.800 609.076, 562.424 610.152, 557.442 611.440 M 193.945 736.882 C 155.511 775.594, 132.043 798.498, 129.500 799.780 C 127.300 800.888, 123.280 803.753, 120.566 806.147 C 117.853 808.541, 113.353 811.640, 110.566 813.034 C 104.969 815.835, 103 818.824, 102.225 825.698 C 101.213 834.678, 103.160 837.406, 128.388 862.355 C 141.100 874.925, 152.948 885.837, 154.718 886.605 C 161.924 889.730, 168.755 887.224, 171.602 880.411 C 172.349 878.622, 174.755 875.885, 176.949 874.329 C 181.879 870.832, 182.232 870.097, 182.935 861.890 L 183.500 855.279 244.500 793.579 C 278.050 759.644, 305.909 731.001, 306.408 729.928 C 307.115 728.409, 306.450 726.707, 303.408 722.249 C 297.038 712.914, 259.448 676, 256.311 676 C 255.099 676, 232.073 698.479, 193.945 736.882 M 704 744.875 C 664.323 757.939, 626.786 795.893, 613.045 836.841 C 610.539 844.308, 607.350 862.683, 608.381 863.714 C 609.606 864.940, 626.062 861.047, 635.500 857.299 C 665.545 845.369, 691.401 822.085, 705.294 794.447 C 711.755 781.594, 718 757.942, 718 746.324 C 718 742.264, 717.832 742.002, 715.250 742.038 C 713.737 742.059, 708.675 743.336, 704 744.875" stroke="none" fill="#ffffff" fill-rule="evenodd"/><path d="M 564.889 123.645 C 562.366 124.090, 562.256 124.407, 561.601 133.090 C 561.228 138.031, 560.602 143.069, 560.211 144.287 C 559.332 147.022, 560.609 248.547, 561.704 263 C 562.142 268.775, 562.864 274.063, 563.309 274.750 C 564.450 276.513, 582.971 276.376, 602.040 274.464 C 617.422 272.921, 636.884 269.543, 651.167 265.936 C 655.383 264.871, 659.782 264, 660.941 264 C 663.434 264, 663.250 263.582, 671.507 287.960 C 674.946 298.113, 678.195 306.565, 678.726 306.742 C 680.076 307.192, 689.623 297.325, 692.509 292.495 C 694.589 289.015, 695.049 286.398, 696.027 272.495 C 696.645 263.698, 697.467 255.212, 697.853 253.637 C 698.577 250.691, 702.994 247.797, 725.463 235.549 C 734.646 230.543, 736.450 230.204, 740.750 232.671 C 743.523 234.263, 743.871 234.239, 748.081 232.170 C 750.511 230.976, 754.886 227.771, 757.802 225.049 L 763.103 220.100 761.406 216.800 C 756.433 207.131, 734.815 184.946, 719 173.283 C 681.418 145.567, 648.004 131.410, 606.500 125.619 C 595.197 124.042, 569.537 122.825, 564.889 123.645 M 587.240 200.250 L 587.500 248.500 596.500 248.342 C 614.290 248.029, 655 238.798, 655 235.077 C 655 232.916, 648.648 218.093, 643.879 209.127 C 634.666 191.801, 620.321 172.793, 608.526 162.281 C 603.167 157.505, 592.434 152, 588.480 152 C 587.165 152, 587.013 157.925, 587.240 200.250 M 648 166.647 C 648 167.553, 649.512 170.140, 651.360 172.397 C 658.129 180.661, 668.165 197.114, 674.082 209.646 C 677.421 216.716, 680.519 223.175, 680.967 224 C 682.261 226.383, 688.277 225.432, 697.850 221.331 C 709.282 216.434, 715.422 212.763, 715.843 210.574 C 717.026 204.433, 680.613 178.206, 656.645 167.937 C 648.700 164.533, 648 164.428, 648 166.647 M 792.482 215.216 C 786.657 221.762, 758.268 251.727, 732.052 279.004 C 719.098 292.480, 695.949 316.893, 680.608 333.254 C 665.267 349.614, 652.018 363, 651.164 363 C 650.311 363, 634.236 347.700, 615.442 329 L 581.270 295 557.715 295 L 534.159 295 533.532 301.250 C 533.187 304.688, 533.039 345.750, 533.203 392.500 L 533.500 477.500 551.927 477.773 C 565.999 477.982, 570.544 477.746, 571.161 476.773 C 571.606 476.073, 571.976 445.913, 571.985 409.750 C 571.996 361.124, 572.298 344, 573.143 344 C 573.771 344, 591.316 360.875, 612.132 381.500 C 632.948 402.125, 650.578 419, 651.309 419 C 652.040 419, 656.440 415.063, 661.086 410.250 C 687.665 382.721, 715.374 353.497, 775.357 289.731 C 782.978 281.629, 789.833 275, 790.590 275 C 794.995 275, 809.026 315.824, 813.446 341.500 C 817.752 366.511, 817.545 400.711, 812.944 424.553 C 802.590 478.204, 772.940 528.813, 731.661 563.290 C 712.346 579.423, 700.033 587.593, 677.091 599.500 C 669.672 603.350, 663.487 606.950, 663.346 607.500 C 663.101 608.452, 693.177 630.169, 695.617 630.802 C 698.755 631.617, 728.156 614.037, 745.657 600.880 C 778.661 576.069, 806.993 541.396, 826.044 502.500 C 842.858 468.174, 850.849 436.910, 853.031 396.925 C 855.293 355.475, 848.577 314.950, 832.826 275.008 C 824.896 254.897, 801.381 212.627, 797.383 211.294 C 796.784 211.095, 794.579 212.859, 792.482 215.216 M 467.500 232.826 C 462.249 235.309, 460.381 237.548, 458.882 243.153 C 455.411 256.130, 468.931 266.398, 481.583 260.394 C 488.608 257.060, 491.314 247.676, 487.543 239.730 C 483.985 232.235, 475.170 229.199, 467.500 232.826 M 314 381.500 C 314 381.776, 312.442 392.913, 310.539 406.250 C 307.411 428.167, 302.071 474.130, 299.009 505.500 C 292.364 573.578, 281.241 630.708, 269.926 654.888 C 267.767 659.502, 266 663.842, 266 664.533 C 266 665.556, 276.904 676.418, 316.431 714.773 C 316.586 714.923, 319.814 713.653, 323.606 711.951 C 347.210 701.357, 391.051 690.494, 426.500 686.457 C 433.650 685.643, 442.790 684.466, 446.812 683.841 L 454.123 682.706 457.678 675.603 C 466.855 657.270, 475.583 645.439, 490.175 631.555 C 496.253 625.772, 503.629 619.119, 506.566 616.770 C 509.502 614.422, 511.927 612.228, 511.953 611.896 C 511.979 611.565, 506.712 609.609, 500.250 607.551 C 419.002 581.676, 354.286 519.871, 328.883 443.892 C 323.883 428.936, 318.477 405.509, 316.833 391.666 C 316.136 385.800, 315.214 381, 314.783 381 C 314.352 381, 314 381.225, 314 381.500 M 461.708 457.033 C 450.817 462.944, 451.439 479.645, 462.753 485.122 C 476.094 491.581, 490.372 478.400, 484.711 464.852 C 481.212 456.476, 469.849 452.613, 461.708 457.033 M 342 554.383 C 342 554.594, 339.949 561.907, 337.442 570.633 C 334.935 579.360, 330.684 595.050, 327.997 605.500 C 325.309 615.950, 321.735 629.818, 320.055 636.318 C 318.375 642.817, 317 649.163, 317 650.419 C 317 653.328, 321.471 661.961, 324.163 664.250 C 327.074 666.725, 329.949 666.469, 344.052 662.476 C 350.899 660.538, 367.525 656.449, 381 653.389 C 430.287 642.196, 434 641.082, 434 637.491 C 434 635.922, 430.338 633.365, 420 627.715 C 411.424 623.027, 401.438 615.520, 388.413 603.970 C 376.196 593.136, 366.647 582.621, 356.675 569.021 C 348.369 557.693, 345.083 554, 343.313 554 C 342.591 554, 342 554.172, 342 554.383 M 591.449 612.750 C 587.877 637.942, 575.900 665.094, 558.456 687.551 C 536.492 715.827, 501.759 735.567, 470.250 737.681 L 461 738.302 461 744.020 C 461 751.652, 463.389 764.950, 466.596 775.171 C 474.731 801.097, 490.842 823.453, 513.896 840.807 C 531.969 854.412, 560.223 864.555, 582 865.258 L 589.500 865.500 589.785 862 C 590.378 854.714, 593.255 841.227, 596.176 832.036 C 602.773 811.284, 614.581 791.511, 631.774 772.433 C 654.141 747.613, 677.774 733.253, 708.315 725.929 L 718.129 723.575 717.489 718.538 C 711.212 669.183, 675.888 627.870, 627.559 613.361 C 618.236 610.562, 603.587 608.010, 596.811 608.004 L 592.123 608 591.449 612.750 M 557.442 611.440 C 518.513 621.506, 485.527 650.347, 470.068 687.836 C 466.527 696.421, 461.592 715.495, 462.380 717.549 C 463.114 719.461, 469.247 719.434, 480.510 717.470 C 505.808 713.059, 533.686 693.416, 550.178 668.384 C 560.714 652.391, 570.245 628.826, 571.625 615.356 L 572.276 609 569.388 609.049 C 567.800 609.076, 562.424 610.152, 557.442 611.440 M 704 744.875 C 664.323 757.939, 626.786 795.893, 613.045 836.841 C 610.539 844.308, 607.350 862.683, 608.381 863.714 C 609.606 864.940, 626.062 861.047, 635.500 857.299 C 665.545 845.369, 691.401 822.085, 705.294 794.447 C 711.755 781.594, 718 757.942, 718 746.324 C 718 742.264, 717.832 742.002, 715.250 742.038 C 713.737 742.059, 708.675 743.336, 704 744.875" stroke="none" fill="#2b8a53" fill-rule="evenodd"/><path d="M 542.448 125.537 C 529.493 127.429, 506.211 133.232, 494.180 137.568 C 470.330 146.164, 442.089 162.349, 422.824 178.462 C 405.189 193.212, 383.649 218.622, 370.831 239.798 C 354.768 266.333, 342.223 301.939, 338.894 330.444 C 337.079 345.979, 338.271 386.543, 340.968 401 C 345.892 427.406, 355.625 453.506, 368.749 475.500 C 383.296 499.879, 399.698 519.809, 418.500 535.956 C 444.803 558.544, 468.297 572.289, 497.982 582.457 C 523.944 591.349, 555.937 596.047, 563.385 592.061 C 566.909 590.176, 567.457 587.458, 566.390 577.154 C 565.383 567.426, 566.588 568.669, 552.500 562.834 C 538.593 557.073, 523.524 543.813, 508.938 524.500 C 501.490 514.638, 492 498.186, 492 495.135 C 492 494.520, 493.487 492.069, 495.304 489.689 C 497.121 487.308, 499.177 483.987, 499.872 482.310 C 501.135 479.261, 504.534 477, 507.856 477 C 508.825 477, 510.389 476.436, 511.332 475.746 C 512.789 474.681, 513.051 472.633, 513.074 462.129 C 513.088 455.330, 512.922 449.588, 512.704 449.371 C 512.486 449.153, 508.810 449.644, 504.534 450.462 L 496.759 451.950 492.945 448.685 C 489.293 445.559, 483.438 442.234, 477.916 440.151 C 475.508 439.242, 475.117 438.127, 472.192 423.838 C 468.484 405.729, 467.229 396.086, 466.809 382.500 L 466.500 372.500 489.969 372.231 C 502.877 372.083, 513.802 371.598, 514.246 371.154 C 515.385 370.015, 516.122 354.184, 515.224 350.147 L 514.478 346.793 490.726 346.944 C 469.012 347.082, 466.917 346.946, 466.307 345.358 C 464.559 340.802, 472.697 288.412, 476.273 281.203 C 477.167 279.401, 479.170 278.221, 483.647 276.860 C 487.932 275.557, 491.320 273.619, 494.830 270.463 L 499.866 265.935 512.683 268.449 C 531.171 272.074, 543.245 273.901, 553.513 274.626 L 562.527 275.262 562.242 266.881 C 562.085 262.271, 561.724 256.654, 561.439 254.398 L 560.922 250.296 551.211 249.649 C 532.386 248.397, 507.507 243.320, 505.230 240.265 C 504.531 239.328, 503.524 236.973, 502.992 235.031 C 502.123 231.859, 500.519 228.949, 496.797 223.794 C 495.215 221.602, 496.630 217.438, 502.677 206.500 C 514.871 184.444, 536.445 161.169, 557.830 147 C 559.579 145.841, 560.306 144.023, 561.027 139 C 561.540 135.425, 561.969 130.588, 561.980 128.250 L 562 124 556.750 124.107 C 553.862 124.167, 547.427 124.810, 542.448 125.537 M 487.939 167.321 C 476.192 172.619, 460.442 182.051, 449.743 190.196 C 438.719 198.588, 428 208.868, 428 211.049 C 428 212.889, 434.917 217.598, 444.225 222.093 L 448.951 224.375 453.571 221.056 C 456.113 219.231, 460.736 216.984, 463.846 216.064 L 469.500 214.390 475 204.324 C 483.481 188.802, 487.568 182.187, 494.040 173.504 C 503.041 161.429, 502.414 160.794, 487.939 167.321 M 406.683 235.250 C 396.338 247.990, 382.991 271.677, 376.676 288.500 C 371.199 303.093, 366.009 324.557, 364.563 338.600 C 364.088 343.211, 364.277 344.985, 365.335 345.863 C 366.355 346.710, 376.604 346.954, 403.113 346.763 L 439.490 346.500 440.697 335.500 C 442.309 320.805, 445.467 301.950, 448.571 288.500 C 452.630 270.909, 452.658 272.140, 448.056 266.634 C 445.494 263.569, 443.409 259.684, 442.422 256.134 C 441.560 253.035, 440.516 249.387, 440.103 248.026 C 439.532 246.148, 436.115 243.802, 425.925 238.292 C 418.541 234.299, 411.968 231.025, 411.317 231.016 C 410.666 231.007, 408.581 232.912, 406.683 235.250 M 467.500 232.826 C 462.249 235.309, 460.381 237.548, 458.882 243.153 C 455.411 256.130, 468.931 266.398, 481.583 260.394 C 488.608 257.060, 491.314 247.676, 487.543 239.730 C 483.985 232.235, 475.170 229.199, 467.500 232.826 M 762.353 327.750 C 755.224 335.313, 746.153 345.014, 742.196 349.309 L 735 357.119 735 414.994 C 735 450.503, 735.380 473.869, 735.983 475.456 L 736.967 478.042 756.733 477.771 L 776.500 477.500 776.756 395.750 C 776.897 350.788, 776.630 314, 776.163 314 C 775.697 314, 769.482 320.188, 762.353 327.750 M 365.384 379.250 C 367.300 399.934, 375.697 429.291, 385.477 449.500 C 394.095 467.307, 408.074 487, 412.097 487 C 414.219 487, 430.191 479.712, 433.977 477.016 C 436.192 475.439, 437.108 473.561, 438.355 468.037 C 440.307 459.396, 443.135 453.622, 447.800 448.759 L 451.389 445.017 448.737 434.759 C 445.200 421.077, 441.253 397.729, 440.493 386 C 440.154 380.775, 439.672 375.488, 439.420 374.250 L 438.962 372 401.837 372 L 364.713 372 365.384 379.250 M 682.921 437.307 C 680.953 438.044, 678.382 439.319, 677.208 440.142 C 672.360 443.537, 668 451.458, 668 456.869 C 668 458.964, 667.071 460.567, 664.750 462.475 C 659.847 466.506, 633.806 482.994, 631.358 483.617 C 630.179 483.917, 627.704 483.369, 625.858 482.398 C 623.659 481.242, 620.236 480.625, 615.939 480.611 C 607.894 480.583, 601.406 483.919, 597.228 490.231 C 594.818 493.871, 594.500 495.301, 594.500 502.495 C 594.500 509.687, 594.819 511.120, 597.228 514.764 C 601.288 520.906, 607.858 524.375, 615.429 524.375 C 619.162 524.375, 622.859 523.718, 624.925 522.688 C 626.785 521.759, 629.251 521.007, 630.404 521.015 C 632.852 521.033, 661.210 537.551, 665.250 541.312 C 667.316 543.236, 668.002 544.820, 668.009 547.686 C 668.022 552.839, 672.903 561.159, 677.624 564.077 C 688.439 570.761, 702.918 566.825, 708.465 555.694 C 717.780 537.002, 699.254 516.813, 680.279 524.975 L 675.137 527.187 662.319 519.395 C 639.492 505.519, 639 505.163, 639 502.522 C 639 500.657, 640.539 499.065, 645.750 495.539 C 658.241 487.088, 675.845 476, 676.773 476 C 677.279 476, 679.175 476.739, 680.986 477.643 C 687.568 480.927, 699.138 479.015, 704.834 473.702 C 711.851 467.157, 713.597 455.068, 708.723 446.777 C 703.759 438.331, 691.858 433.964, 682.921 437.307 M 461.708 457.033 C 450.817 462.944, 451.439 479.645, 462.753 485.122 C 476.094 491.581, 490.372 478.400, 484.711 464.852 C 481.212 456.476, 469.849 452.613, 461.708 457.033 M 436.503 499.834 C 432.104 503.013, 428.375 506.291, 428.216 507.119 C 427.523 510.715, 449.232 528.357, 467.708 539.213 C 477.961 545.238, 491.870 552, 494.009 552 C 496.156 552, 494.763 548.598, 489.596 541.218 C 482.568 531.181, 476.127 520.122, 472.580 512 C 468.903 503.581, 467.764 502.378, 462.709 501.569 C 460.399 501.200, 455.734 499.346, 452.342 497.449 C 448.950 495.552, 445.798 494.012, 445.338 494.027 C 444.877 494.042, 440.901 496.655, 436.503 499.834 M 193.945 736.882 C 155.511 775.594, 132.043 798.498, 129.500 799.780 C 127.300 800.888, 123.280 803.753, 120.566 806.147 C 117.853 808.541, 113.353 811.640, 110.566 813.034 C 104.969 815.835, 103 818.824, 102.225 825.698 C 101.213 834.678, 103.160 837.406, 128.388 862.355 C 141.100 874.925, 152.948 885.837, 154.718 886.605 C 161.924 889.730, 168.755 887.224, 171.602 880.411 C 172.349 878.622, 174.755 875.885, 176.949 874.329 C 181.879 870.832, 182.232 870.097, 182.935 861.890 L 183.500 855.279 244.500 793.579 C 278.050 759.644, 305.909 731.001, 306.408 729.928 C 307.115 728.409, 306.450 726.707, 303.408 722.249 C 297.038 712.914, 259.448 676, 256.311 676 C 255.099 676, 232.073 698.479, 193.945 736.882" stroke="none" fill="#214264" fill-rule="evenodd"/></svg>