<svg xmlns="http://www.w3.org/2000/svg" width="685" height="685" viewBox="0 0 685 685" version="1.1"><path d="M 362.029 83.961 C 361.220 84.473, 360.818 85.151, 361.136 85.469 C 361.924 86.257, 365 85.002, 365 83.893 C 365 82.753, 363.899 82.778, 362.029 83.961 M 370 84 C 370 84.550, 371.125 85, 372.500 85 C 373.875 85, 375 84.550, 375 84 C 375 83.450, 373.875 83, 372.500 83 C 371.125 83, 370 83.450, 370 84 M 343.718 87.556 C 332.825 90.545, 315.241 97.361, 310.816 100.310 C 308.992 101.525, 306.300 103.050, 304.834 103.700 C 301.731 105.074, 290.927 113.260, 291.483 113.816 C 291.690 114.023, 293.939 112.762, 296.481 111.013 C 310.492 101.374, 330.241 93.028, 351.002 87.974 C 354.026 87.237, 356.928 86.267, 357.450 85.817 C 359.225 84.290, 352.534 85.137, 343.718 87.556 M 363.500 103.099 C 358.859 106.552, 347 117.978, 347 118.997 C 347 119.377, 345.893 120.977, 344.540 122.551 C 343.187 124.126, 342.256 125.590, 342.471 125.804 C 342.685 126.019, 347.730 121.313, 353.681 115.347 C 359.631 109.381, 365.356 104.029, 366.401 103.453 C 367.447 102.878, 368.122 101.893, 367.901 101.265 C 367.656 100.566, 365.947 101.278, 363.500 103.099 M 280.221 121.750 C 270.559 129.693, 259.498 142.583, 252.500 154.057 C 249.750 158.566, 246.556 163.435, 245.402 164.877 C 243.540 167.205, 241.354 173, 242.338 173 C 242.545 173, 244.892 169.287, 247.552 164.750 C 250.213 160.213, 253.089 155.825, 253.945 155 C 254.800 154.175, 257.286 150.800, 259.468 147.500 C 261.651 144.200, 269.401 135.537, 276.691 128.250 C 283.981 120.963, 289.605 115, 289.189 115 C 288.773 115, 284.738 118.037, 280.221 121.750 M 304.503 122.675 C 295.170 128.916, 285 137.552, 285 139.236 C 285 140.857, 287.038 139.866, 290.202 136.706 C 295.052 131.861, 304.237 124.412, 306.250 123.690 C 307.212 123.345, 308 122.599, 308 122.031 C 308 121.464, 308.625 121, 309.389 121 C 311.111 121, 315.704 117.377, 314.947 116.616 C 314.643 116.311, 309.943 119.037, 304.503 122.675 M 317.746 136.163 C 315.526 141.712, 314.847 142.496, 310.936 144.025 C 308.547 144.959, 306.398 146.307, 306.160 147.021 C 305.853 147.941, 306.276 148.094, 307.614 147.546 C 308.651 147.121, 310.400 146.537, 311.500 146.249 C 314.128 145.559, 318 142.012, 318 140.294 C 318 139.548, 318.675 138.678, 319.500 138.362 C 320.325 138.045, 321 136.736, 321 135.452 C 321 134.168, 321.450 132.840, 322 132.500 C 323.469 131.592, 323.218 130, 321.606 130 C 320.831 130, 319.116 132.739, 317.746 136.163 M 332.526 139.950 C 330.767 143.352, 330.587 145, 331.974 145 C 333.005 145, 336 139.829, 336 138.050 C 336 135.975, 334.022 137.058, 332.526 139.950 M 332 151.734 C 332 152.309, 332.885 153.841, 333.967 155.139 C 335.461 156.933, 335.941 157.117, 335.967 155.905 C 335.985 155.028, 335.100 153.495, 334 152.500 C 332.900 151.505, 332 151.160, 332 151.734 M 269.406 156.835 C 262.083 165.510, 252.020 185.980, 245.483 205.500 C 243.999 209.931, 241.014 225.427, 241.004 228.750 C 240.996 231.157, 242.778 229.974, 243.261 227.250 C 245.420 215.091, 250.415 197.179, 253.553 190.349 C 254.349 188.616, 255 186.533, 255 185.721 C 255 184.909, 255.663 183.695, 256.474 183.022 C 257.284 182.349, 258.234 180.269, 258.585 178.400 C 258.936 176.530, 259.584 175, 260.025 175 C 260.467 175, 262.425 172.144, 264.377 168.653 C 266.330 165.162, 268.648 161.707, 269.529 160.976 C 270.411 160.244, 271.810 158.335, 272.638 156.733 C 273.881 154.329, 274.584 153.930, 276.656 154.450 C 278.276 154.856, 278.939 154.711, 278.525 154.040 C 277.111 151.753, 272.504 153.164, 269.406 156.835 M 341.247 163.242 C 341.442 163.826, 343.732 164.845, 346.335 165.506 C 349.525 166.316, 350.955 166.364, 350.717 165.652 C 350.524 165.072, 348.234 164.053, 345.629 163.388 C 342.421 162.570, 341.008 162.523, 341.247 163.242 M 357.403 166.844 C 357.707 167.335, 360.707 168.048, 364.071 168.429 C 367.434 168.809, 371.270 169.532, 372.593 170.035 C 374.429 170.733, 375 170.617, 375 169.543 C 375 168.768, 374.212 167.889, 373.250 167.588 C 369.944 166.556, 356.845 165.941, 357.403 166.844 M 294.721 167.612 C 293.673 168.661, 296.264 174.496, 299.134 177.548 C 302.340 180.957, 302.756 184.322, 300.506 188.636 C 299.685 190.211, 299.010 193.386, 299.006 195.691 C 299.003 197.996, 298.550 200.160, 298 200.500 C 296.740 201.279, 296.685 204, 297.929 204 C 298.440 204, 299.587 201.412, 300.477 198.250 C 301.367 195.088, 302.749 190.803, 303.548 188.730 C 305.568 183.484, 305.450 182.850, 301.525 177.891 C 299.614 175.476, 297.779 172.268, 297.448 170.761 C 296.828 167.938, 295.699 166.635, 294.721 167.612 M 306.144 171.465 C 306.348 172.545, 308.040 174.458, 309.905 175.715 C 315.135 179.239, 322.331 178.498, 325.718 174.087 C 327.794 171.383, 327.121 170.538, 324.702 172.810 C 320.074 177.158, 312.665 176.887, 308.302 172.210 C 306.166 169.919, 305.832 169.804, 306.144 171.465 M 239.602 176.158 C 238.721 177.416, 238 179.097, 238 179.894 C 238 180.691, 237.396 182.053, 236.657 182.921 C 235.918 183.790, 233.920 188.775, 232.217 194 C 227.236 209.276, 224.376 226.686, 225.973 232 C 226.983 235.359, 227.484 233.704, 229.001 222.016 C 229.678 216.800, 230.904 210.050, 231.727 207.016 C 232.550 203.982, 233.215 200.825, 233.206 200 C 233.186 198.302, 239.450 179.897, 241.090 176.832 C 242.629 173.956, 241.501 173.446, 239.602 176.158 M 330.044 179.447 C 329.383 180.243, 326.740 181.670, 324.171 182.617 C 321.602 183.564, 318.753 184.971, 317.840 185.743 C 315.434 187.778, 312.846 200.080, 310.160 222.250 C 309.510 227.608, 309.616 229, 310.671 229 C 311.402 229, 312.032 228.213, 312.071 227.250 C 312.324 221.016, 314.138 207.423, 315.506 201.500 C 316.396 197.650, 317.379 192.925, 317.691 191 C 318.330 187.060, 319.020 186.410, 324.048 185.016 C 327.407 184.084, 334.572 178, 332.310 178 C 331.724 178, 330.704 178.651, 330.044 179.447 M 344.215 179.145 C 344.636 180.410, 351.263 181.971, 361.804 183.287 C 364.822 183.664, 365.994 183.477, 365.727 182.662 C 365.517 182.023, 364.030 181.385, 362.423 181.244 C 358.837 180.930, 348.181 179.086, 345.632 178.338 C 344.353 177.963, 343.906 178.218, 344.215 179.145 M 508.750 220.155 C 503.387 225.621, 499 230.484, 499 230.962 C 499 231.441, 497.200 233.258, 495 235 L 491 238.168 491 250.025 C 491 257.139, 491.415 262.139, 492.038 262.523 C 492.722 262.946, 492.807 265.779, 492.288 270.832 C 491.322 280.234, 491.317 301.835, 492.281 304.313 C 494.401 309.766, 494.864 302.828, 494.400 272.561 L 493.903 240.175 500.520 232.588 C 504.160 228.414, 507.471 225, 507.877 225 C 508.284 225, 509.940 223.211, 511.558 221.024 C 513.176 218.837, 515.063 217.037, 515.750 217.024 C 517.139 216.997, 517.684 248.403, 517.098 294.750 C 516.807 317.770, 516.926 320, 518.445 320 C 519.974 320, 520.107 316.420, 520.069 276.250 C 520.046 252.188, 520.074 227.568, 520.131 221.539 C 520.188 215.510, 519.844 210.497, 519.367 210.397 C 518.890 210.298, 514.112 214.689, 508.750 220.155 M 295.485 216.892 C 295.915 220.018, 295.768 222.025, 295.079 222.451 C 294.486 222.818, 294 225.116, 294 227.559 L 294 232 270.500 232 C 255.500 232, 247 232.362, 247 233 C 247 234.042, 249.405 234.126, 276.999 234.051 C 287.099 234.023, 293.628 233.617, 293.832 233.003 C 294.016 232.451, 294.740 232, 295.441 232 C 296.265 232, 296.942 229.830, 297.358 225.853 C 298.442 215.479, 298.203 212, 296.406 212 C 295.073 212, 294.922 212.801, 295.485 216.892 M 328 233 C 328 233.550, 330.137 234.006, 332.750 234.014 C 341.353 234.038, 342 234.500, 342 240.617 C 342 243.577, 341.550 246, 341 246 C 340.450 246, 340 246.450, 340 247 C 340 247.550, 341.173 248, 342.607 248 C 344.573 248, 345.065 247.611, 344.607 246.418 C 344.273 245.548, 344 241.948, 344 238.418 L 344 232 336 232 C 331.333 232, 328 232.417, 328 233 M 226 246.333 C 226 251.100, 226.412 255, 226.916 255 C 227.935 255, 227.689 239.356, 226.654 238.321 C 226.294 237.961, 226 241.567, 226 246.333 M 294.500 257 C 294.036 260.374, 294.173 262.573, 294.893 263.293 C 295.502 263.902, 296 265.858, 296 267.641 C 296 269.424, 296.516 271.201, 297.147 271.591 C 297.993 272.113, 298.156 269.871, 297.768 263.071 C 297.149 252.209, 295.564 249.264, 294.500 257 M 310.302 259.766 C 311.043 269.371, 313.193 281, 314.228 281 C 315.312 281, 315.190 275.631, 314.039 272.602 C 313.510 271.211, 312.770 266.007, 312.395 261.037 C 312.020 256.067, 311.261 252, 310.708 252 C 310.070 252, 309.922 254.834, 310.302 259.766 M 227.476 264.623 C 228.096 274.240, 233.094 291.620, 236.017 294.320 C 237.015 295.242, 237.186 295.172, 236.797 294 C 234.979 288.515, 232.849 279.993, 230.924 270.500 C 229.698 264.450, 228.318 259.078, 227.859 258.562 C 227.400 258.047, 227.228 260.774, 227.476 264.623 M 244 266.550 C 244 269.150, 249.710 286.816, 251.041 288.337 C 252.434 289.928, 252.893 287.348, 251.648 284.928 C 250.961 283.593, 249.595 278.900, 248.613 274.500 C 247.631 270.100, 246.655 265.938, 246.445 265.250 C 245.758 263.003, 244 263.938, 244 266.550 M 297.440 279.250 C 297.505 281.038, 297.830 282.950, 298.162 283.500 C 298.493 284.050, 299.077 285.957, 299.459 287.739 C 299.841 289.520, 300.617 291.264, 301.184 291.614 C 301.806 291.998, 302.013 291.507, 301.705 290.375 C 301.425 289.344, 300.609 285.688, 299.892 282.250 C 298.485 275.511, 297.249 273.998, 297.440 279.250 M 314.359 287.043 C 315.127 290.883, 315.505 291.424, 316.846 290.595 C 318.161 289.783, 316.746 284.749, 315.044 284.181 C 314.013 283.838, 313.852 284.509, 314.359 287.043 M 252.572 293.250 C 253.296 295.554, 257.639 305.561, 258.835 307.678 C 260.811 311.180, 268.597 321.941, 269.173 321.968 C 270.231 322.018, 266.929 315.925, 263.376 311.270 C 261.600 308.944, 259.865 306.019, 259.521 304.770 C 258.446 300.880, 253.542 291.005, 252.683 291.002 C 252.233 291.001, 252.183 292.012, 252.572 293.250 M 454.971 294.093 C 450.865 296.475, 447 301.672, 447 304.812 C 447 308.320, 448.684 307.333, 449.314 303.455 C 449.937 299.616, 452.637 296.728, 457.750 294.432 C 459.538 293.630, 461 292.754, 461 292.487 C 461 291.433, 458.330 292.145, 454.971 294.093 M 319.525 294.959 C 319.198 295.489, 320.745 296.850, 322.965 297.982 C 325.184 299.114, 327 300.383, 327 300.801 C 327 302.304, 333.048 303.803, 336.984 303.275 L 341 302.737 341 310.868 C 341 319.073, 342.392 321.774, 343.516 315.750 C 343.849 313.962, 343.982 309.846, 343.811 306.602 L 343.500 300.703 336.330 300.602 C 330.506 300.519, 328.722 300.101, 326.830 298.375 C 323.478 295.318, 320.240 293.803, 319.525 294.959 M 469 295.344 C 469 295.534, 470.124 296.996, 471.499 298.594 C 472.873 300.193, 473.998 301.837, 473.999 302.250 C 473.999 302.663, 474.691 303, 475.535 303 C 476.802 303, 476.869 302.607, 475.918 300.750 C 474.342 297.671, 469 293.498, 469 295.344 M 239.479 302.826 C 242.109 311.516, 249.989 325, 252.437 325 C 252.917 325, 252.631 324.212, 251.802 323.250 C 250.973 322.288, 248.169 317.225, 245.571 312 C 240.779 302.359, 238.132 298.373, 239.479 302.826 M 307.750 303.572 C 306.238 304.393, 305 305.500, 305 306.034 C 305 306.567, 306.681 306.103, 308.735 305.002 C 313.384 302.510, 314.127 302.514, 319.103 305.053 C 321.974 306.517, 323.661 308.308, 324.993 311.303 C 326.357 314.372, 326.878 314.913, 326.929 313.315 C 327.211 304.618, 316.165 299.007, 307.750 303.572 M 440.250 312.674 C 436.654 315.183, 437.653 316.137, 441.500 313.867 C 443.425 312.732, 445 311.622, 445 311.401 C 445 310.497, 442.355 311.206, 440.250 312.674 M 451.732 316.454 C 449.336 318.206, 449.555 318.703, 452.750 318.773 C 454.262 318.807, 457.741 319.266, 460.479 319.793 C 465.037 320.671, 465.737 320.540, 468.756 318.237 C 470.570 316.853, 471.820 315.487, 471.533 315.200 C 471.247 314.913, 470.187 315.426, 469.177 316.339 C 466.909 318.393, 459.924 318.529, 456.182 316.594 C 453.973 315.452, 453.139 315.425, 451.732 316.454 M 492.489 318.018 C 491.574 319.498, 492.442 320.255, 494.577 319.838 C 496.140 319.534, 496.156 319.371, 494.745 318.201 C 493.620 317.269, 492.984 317.218, 492.489 318.018 M 428.571 331.571 C 427.512 332.346, 426.871 333.204, 427.146 333.479 C 427.421 333.754, 428.512 333.346, 429.571 332.571 C 430.630 331.797, 431.272 330.939, 430.997 330.664 C 430.722 330.389, 429.630 330.797, 428.571 331.571 M 260.417 337.750 C 265.331 344.171, 272 350.902, 272 349.441 C 272 348.917, 270.313 346.625, 268.250 344.346 C 266.188 342.067, 262.952 338.357, 261.060 336.101 C 255.877 329.923, 255.388 331.178, 260.417 337.750 M 330 338.780 C 330 339.909, 330.343 340.983, 330.763 341.167 C 331.182 341.350, 333.281 343.975, 335.427 347 C 340.781 354.547, 349.077 364, 350.346 364 C 350.922 364, 350.029 362.538, 348.363 360.750 C 346.697 358.962, 342.937 353.900, 340.007 349.500 C 337.077 345.100, 333.627 340.426, 332.340 339.114 C 330.088 336.817, 330 336.805, 330 338.780 M 285.924 342.858 C 286.471 343.880, 287.950 345.408, 289.209 346.254 C 290.469 347.099, 292.405 348.625, 293.510 349.645 C 299.357 355.039, 305.954 359.672, 312.586 363.044 C 321.605 367.629, 322.391 366.804, 313.750 361.822 C 310.313 359.840, 306.239 357.044, 304.698 355.609 C 303.158 354.174, 301.440 353, 300.882 353 C 299.402 353, 293.017 348.013, 289.677 344.250 C 286.508 340.680, 284.325 339.870, 285.924 342.858 M 319.082 348.199 C 320.715 352.159, 322.906 356.195, 323.951 357.169 C 324.996 358.142, 326.656 360.303, 327.641 361.969 C 328.626 363.636, 329.800 365, 330.251 365 C 331.151 365, 329.475 361.369, 327.481 359 C 326.786 358.175, 324.338 353.788, 322.041 349.250 C 319.743 344.712, 317.470 341, 316.988 341 C 316.507 341, 317.449 344.240, 319.082 348.199 M 400 345.487 C 400 346.383, 407.939 351, 409.480 351 C 412.144 351, 411.112 349.184, 408.069 348.515 C 406.457 348.161, 404.602 347.225, 403.947 346.436 C 402.831 345.091, 400 344.411, 400 345.487 M 438.441 346.471 C 440.792 348.323, 442.315 348.451, 441.755 346.750 C 441.529 346.063, 440.254 345.374, 438.922 345.221 C 436.577 344.950, 436.561 344.990, 438.441 346.471 M 455.667 350.667 C 454.123 352.210, 455.239 352.778, 458.861 352.292 C 463.746 351.637, 469.715 354.332, 471.904 358.181 C 473.469 360.934, 475.726 362.207, 474.684 359.750 C 472.581 354.786, 471.089 352.983, 467.933 351.590 C 464.300 349.988, 456.903 349.431, 455.667 350.667 M 279.109 357.631 C 280.628 359.462, 293.377 369.278, 299.500 373.331 C 301.700 374.787, 304.400 376.612, 305.500 377.387 C 308.243 379.319, 312 380.346, 312 379.165 C 312 378.632, 310.655 377.727, 309.011 377.154 C 307.367 376.580, 304.329 374.817, 302.261 373.235 C 300.192 371.653, 295.430 368.141, 291.677 365.429 C 287.924 362.718, 283.584 359.488, 282.032 358.250 C 278.737 355.622, 277.165 355.289, 279.109 357.631 M 356 369.731 C 356 370.571, 359.623 374, 360.511 374 C 360.780 374, 360.986 373.663, 360.969 373.250 C 360.925 372.204, 356 368.716, 356 369.731 M 447.586 369.747 C 446.837 370.496, 452.781 377.813, 455.183 379.098 C 458.917 381.096, 458.123 379.219, 453.119 374.214 C 450.369 371.464, 447.879 369.454, 447.586 369.747 M 470.134 373.085 C 468.283 375.238, 466.145 377, 465.384 377 C 464.623 377, 464 377.702, 464 378.559 C 464 380.405, 464.922 379.957, 470.750 375.278 C 473.087 373.401, 475 371.221, 475 370.433 C 475 368.186, 473.768 368.857, 470.134 373.085 M 374 379.868 C 374 380.426, 374.450 381.160, 375 381.500 C 375.550 381.840, 376 383.216, 376 384.559 C 376 385.902, 376.477 387, 377.060 387 C 377.674 387, 377.990 385.423, 377.810 383.258 C 377.593 380.643, 376.973 379.417, 375.750 379.185 C 374.788 379.003, 374 379.310, 374 379.868 M 325 385.941 C 325 386.523, 325.620 387, 326.378 387 C 327.135 387, 328.315 387.675, 329 388.500 C 329.685 389.325, 331.450 390, 332.922 390 C 334.395 390, 336.028 390.358, 336.550 390.796 C 338.786 392.669, 356.711 397.297, 358.190 396.383 C 359.870 395.344, 357.925 394.216, 353.262 393.524 C 349.220 392.924, 328.039 386.597, 325.750 385.305 C 325.337 385.072, 325 385.359, 325 385.941 M 376 393.500 C 376 394.446, 375.046 395, 373.417 395 C 371.996 395, 370.995 395.484, 371.192 396.075 C 371.389 396.666, 371.876 397.116, 372.275 397.075 C 372.674 397.034, 374.125 397, 375.500 397 C 377.500 397, 378 396.500, 378 394.500 C 378 393.125, 377.550 392, 377 392 C 376.450 392, 376 392.675, 376 393.500 M 146.451 476.250 C 133.223 489.588, 119.254 503.650, 115.407 507.500 C 100.975 521.944, 88.355 533.597, 84 536.500 C 81.525 538.150, 79.352 539.832, 79.171 540.238 C 78.989 540.644, 76.902 541.834, 74.533 542.882 C 66.989 546.219, 65.962 554.943, 72.106 563.499 C 73.884 565.974, 75.646 568, 76.022 568 C 76.397 568, 82.733 573.837, 90.102 580.970 C 102.986 593.443, 103.664 593.942, 107.771 593.970 C 111.487 593.996, 112.199 593.642, 113.242 591.250 C 114.321 588.776, 115.409 587.589, 121.166 582.609 C 122.415 581.528, 122.695 580.147, 122.285 577.088 L 121.738 573.009 149.119 545.714 C 164.179 530.702, 183.114 511.502, 191.198 503.046 C 204.426 489.209, 205.784 487.464, 204.783 485.586 C 203.487 483.157, 190.437 468.440, 187.500 466.096 C 186.400 465.218, 182.689 461.688, 179.253 458.250 C 175.818 454.813, 172.443 452, 171.753 452 C 171.064 452.001, 159.678 462.913, 146.451 476.250 M 154.934 470.166 C 144.053 481.247, 140.025 485.987, 140.369 487.303 C 140.634 488.318, 140.216 489.364, 139.422 489.668 C 137.818 490.284, 137.456 494, 139 494 C 139.550 494, 140 494.909, 140 496.019 C 140 497.633, 139.533 497.921, 137.676 497.455 C 136.244 497.095, 134.886 497.432, 134.139 498.332 C 133.472 499.136, 132.043 499.563, 130.963 499.280 C 129.610 498.926, 129 499.269, 129 500.383 C 129 501.479, 128.113 502.002, 126.250 502.007 C 122.336 502.017, 103.550 521.008, 104.499 523.996 C 104.881 525.201, 104.680 526, 103.996 526 C 101.943 526, 99.771 529.018, 100.319 531.110 C 101.022 533.801, 97.537 537.252, 94.125 537.244 C 92.681 537.240, 91.275 537.536, 91 537.900 C 89.313 540.139, 81.211 545, 79.168 545 C 77.827 545, 75.676 546.137, 74.387 547.527 C 72.375 549.698, 72.133 550.718, 72.663 554.777 C 73.003 557.375, 73.862 560.625, 74.573 562 C 75.731 564.240, 87.703 576.258, 94.046 581.546 C 95.396 582.671, 97.780 585.211, 99.345 587.190 C 102.725 591.463, 107.187 592.762, 110.664 590.485 C 111.949 589.643, 113 588.322, 113 587.550 C 113 586.777, 114.125 585.260, 115.500 584.179 C 116.875 583.097, 118 581.489, 118 580.606 C 118 579.723, 118.482 579, 119.072 579 C 119.661 579, 120.040 577.987, 119.913 576.750 C 119.517 572.870, 121.141 567, 122.611 567 C 123.375 567, 124 566.357, 124 565.571 C 124 564.786, 124.637 563.506, 125.415 562.728 C 126.192 561.950, 126.755 559.805, 126.665 557.961 C 126.507 554.750, 126.691 554.570, 131 553.709 C 133.475 553.215, 136.210 552.178, 137.079 551.405 C 137.947 550.632, 139.428 550, 140.370 550 C 141.312 550, 146.789 545.288, 152.541 539.529 C 160.117 531.943, 163 528.383, 163 526.610 C 163 525.123, 164.541 522.559, 166.928 520.075 C 169.088 517.826, 171.006 515.207, 171.189 514.255 C 171.373 513.302, 172.418 512.355, 173.511 512.150 C 174.605 511.945, 175.860 511.152, 176.300 510.389 C 176.740 509.625, 178.315 508.996, 179.800 508.991 C 181.833 508.983, 184.432 507.043, 190.326 501.131 C 194.630 496.813, 198.064 492.654, 197.957 491.890 C 197.502 488.631, 198.015 487.966, 200.500 488.589 C 202.391 489.064, 203 488.825, 203 487.608 C 203 486.724, 202.655 486, 202.234 486 C 201.813 486, 200.022 483.791, 198.254 481.091 C 194.870 475.921, 173.995 455.732, 171.458 455.174 C 170.609 454.988, 163.540 461.402, 154.934 470.166 M 79 552.300 C 79 553.741, 80.954 556, 82.200 556 C 83.480 556, 83.125 553.982, 81.571 552.429 C 79.797 550.654, 79 550.614, 79 552.300" stroke="none" fill="#000000" fill-rule="evenodd"/><path d="M 373.750 82.579 C 375.365 83.338, 375.295 90.428, 373.627 95.096 C 372.811 97.378, 372.654 99.536, 373.197 101.004 C 373.668 102.276, 373.928 117.871, 373.776 135.659 C 373.624 153.447, 373.837 168.001, 374.250 168 C 375.600 168, 375.119 183.778, 373.750 184.415 C 373.063 184.735, 379.925 184.805, 389 184.569 C 405.892 184.131, 417.747 182.586, 433.331 178.794 C 440.872 176.959, 442.292 176.853, 443.052 178.072 C 443.541 178.858, 445.854 185.290, 448.191 192.366 C 450.529 199.442, 453.072 205.474, 453.842 205.770 C 455.323 206.338, 460.897 200.569, 463.562 195.711 C 464.448 194.096, 465.519 188.006, 466.106 181.241 C 466.664 174.816, 467.585 169, 468.153 168.315 C 468.721 167.631, 474.154 164.303, 480.225 160.919 C 491.003 154.912, 491.353 154.796, 495.022 156.007 C 498.550 157.172, 499.046 157.064, 503.140 154.240 C 505.538 152.586, 508.361 150.276, 509.414 149.107 C 511.133 147.196, 511.184 146.708, 509.914 144.298 C 507.607 139.920, 492.126 124.206, 483.509 117.494 C 453.519 94.135, 424.833 83.560, 388.500 82.471 C 379.700 82.208, 373.063 82.256, 373.750 82.579 M 393 134.500 L 393 166 398.105 166 C 400.913 166, 408 165.072, 413.855 163.937 C 430.571 160.698, 437 158.570, 437 156.276 C 437 153.587, 429.095 137.866, 423.562 129.550 C 417.325 120.177, 406.462 108.067, 401.590 105.055 C 399.760 103.925, 397.080 103, 395.632 103 L 393 103 393 134.500 M 437 114.261 C 437 114.954, 439.003 118.507, 441.451 122.157 C 445.928 128.829, 454.162 144.488, 455.480 148.835 C 456.068 150.772, 456.641 151.057, 458.844 150.509 C 464.335 149.143, 478 142.105, 478 140.642 C 478 136.488, 444.535 113, 438.615 113 C 437.727 113, 437 113.567, 437 114.261 M 521.412 152.250 C 509.060 164.818, 481.637 193.748, 454.562 222.771 C 444.696 233.347, 436.158 242, 435.590 242 C 435.021 242, 424.418 231.912, 412.028 219.582 C 386.185 193.866, 389.527 195.661, 368.500 196.195 L 356.500 196.500 356 244.500 C 355.725 270.900, 355.662 298.630, 355.860 306.122 L 356.220 319.744 363.649 320.417 C 367.735 320.788, 373.761 320.787, 377.039 320.416 L 383 319.742 383 276.371 C 383 235.985, 383.119 233, 384.724 233 C 385.672 233, 397.280 243.800, 410.520 257 C 423.761 270.200, 435.084 281, 435.683 281 C 436.282 281, 443.435 273.913, 451.578 265.250 C 459.720 256.587, 472.259 243.410, 479.441 235.967 C 486.624 228.524, 500.358 214.011, 509.963 203.717 C 519.568 193.423, 527.933 185, 528.553 185 C 531.723 185, 540.914 214.161, 544.045 234.158 C 545.835 245.582, 544.744 277.093, 542.182 288 C 532.622 328.702, 507.501 365.695, 474.534 387.617 C 470.115 390.555, 461.577 395.781, 455.559 399.230 C 449.542 402.678, 444.496 405.950, 444.347 406.500 C 444.198 407.050, 448.571 410.816, 454.064 414.870 C 465.970 423.655, 465.964 423.655, 479.621 415.505 C 518.785 392.134, 548.599 355.580, 561.930 314.591 C 579.364 260.988, 573.130 206.516, 543.723 155.500 C 539.444 148.076, 534.284 141, 533.150 141 C 532.774 141, 527.492 146.063, 521.412 152.250 M 310.332 156.063 C 304.573 159.752, 303.469 166.878, 307.904 171.734 C 312.810 177.105, 319.952 177.336, 325.214 172.295 C 329.266 168.413, 329.136 162.363, 324.896 157.535 C 322.273 154.547, 321.151 154.003, 317.646 154.017 C 315.212 154.027, 312.192 154.872, 310.332 156.063 M 209.686 254.155 C 208.284 259.837, 201.917 310.832, 199.966 332 C 197.421 359.627, 194.584 379.514, 189.363 406.319 C 187.140 417.735, 183.297 430.550, 179.795 438.225 L 176.727 444.951 193.494 461.225 C 202.717 470.176, 210.795 477.629, 211.446 477.788 C 212.098 477.946, 216.840 476.469, 221.984 474.506 C 239.570 467.795, 268.325 461.320, 291.183 458.925 C 297.609 458.251, 303.234 457.430, 303.683 457.100 C 304.133 456.770, 305.783 453.800, 307.352 450.500 C 312.679 439.293, 324.345 425.260, 337.948 413.694 C 340.944 411.146, 343.145 408.812, 342.840 408.507 C 342.535 408.201, 338.960 407.030, 334.897 405.904 C 315.303 400.474, 290.463 386.882, 272.329 371.668 C 258.580 360.133, 242.282 341.454, 234.765 328.617 C 223.766 309.834, 212.062 273.358, 211.985 257.619 C 211.964 253.308, 210.456 251.036, 209.686 254.155 M 309.502 304.575 C 303.975 307.457, 303 308.939, 303 314.459 C 303 319.006, 303.399 319.995, 306.414 322.917 C 308.908 325.334, 311.012 326.360, 314.216 326.721 C 318.276 327.178, 318.842 326.944, 321.787 323.589 C 323.538 321.595, 325.256 318.827, 325.605 317.438 C 326.658 313.241, 323.908 307.795, 319.463 305.277 C 314.748 302.607, 313.453 302.516, 309.502 304.575 M 505.264 320.718 C 506.784 320.947, 509.034 320.941, 510.264 320.704 C 511.494 320.467, 510.250 320.279, 507.500 320.286 C 504.750 320.294, 503.744 320.488, 505.264 320.718 M 226.623 380.250 C 221.524 397.088, 213.589 428.661, 213.240 433.500 C 212.926 437.848, 213.259 438.951, 215.796 441.960 L 218.714 445.420 235.607 441.119 C 244.898 438.753, 258.575 435.543, 266 433.985 C 283.775 430.255, 287.430 428.998, 287.779 426.499 C 287.988 424.994, 286.753 423.786, 282.779 421.612 C 268.742 413.931, 248.417 395.384, 237.466 380.261 C 234.185 375.730, 230.965 372.017, 230.311 372.011 C 229.656 372.005, 227.997 375.712, 226.623 380.250 M 395.546 407.250 C 395.331 407.938, 394.607 410.975, 393.937 414 C 387.110 444.814, 369.228 470.061, 344.965 483.142 C 332.327 489.955, 330.053 490.711, 317.390 492.315 L 307.500 493.568 307.758 500.034 C 308.706 523.745, 325.234 551.547, 346.514 565.226 C 358.973 573.234, 376.394 579, 388.131 579 C 395.733 579, 394.814 580.242, 397.015 567 C 400.618 545.319, 415.555 521.378, 435.500 505.315 C 448.220 495.071, 457.342 490.694, 475.750 486.005 C 479.999 484.923, 480 484.921, 480 480.191 C 480 474.353, 476.922 462.989, 472.994 454.327 C 462.313 430.770, 439.262 413.473, 410.681 407.569 C 401.512 405.675, 396.075 405.561, 395.546 407.250 M 369 409.358 C 342.113 418.935, 322.546 437.453, 312.887 462.462 C 311.196 466.841, 309.560 472.863, 309.252 475.845 L 308.693 481.267 317.096 480.788 C 344.283 479.237, 372.714 451.899, 381.054 419.289 C 383.943 407.994, 383.796 406.996, 379.250 407.021 C 377.188 407.033, 372.575 408.084, 369 409.358 M 475.500 495.946 C 469.241 497.492, 456.431 503.492, 449.517 508.117 C 434.876 517.909, 420.677 534.382, 413.040 550.436 C 408.380 560.231, 404.613 577.025, 406.776 578.361 C 408.301 579.304, 420.635 576.284, 428.096 573.141 C 450.325 563.778, 468.649 544.019, 476.543 520.904 C 480.491 509.341, 481.991 494.681, 479.183 495.102 C 478.807 495.159, 477.150 495.538, 475.500 495.946" stroke="none" fill="#37865b" fill-rule="evenodd"/><path d="M 365 84.125 C 365 84.853, 363.892 85.028, 361.862 84.622 C 359.812 84.212, 358.339 84.453, 357.612 85.318 C 357 86.045, 354.026 87.242, 351.002 87.976 C 331.182 92.791, 309.486 101.821, 297.877 110.087 C 296.263 111.237, 293.381 112.608, 291.471 113.136 C 289.562 113.663, 288 114.691, 288 115.421 C 288 116.151, 282.482 122.317, 275.737 129.124 C 268.992 135.931, 261.680 144.200, 259.487 147.500 C 257.294 150.800, 254.810 154.175, 253.968 155 C 253.125 155.825, 250.486 159.762, 248.103 163.750 C 245.720 167.738, 243.195 171, 242.492 171 C 241.025 171, 239.722 173.740, 240.550 175.081 C 240.857 175.577, 239.295 181.049, 237.079 187.241 C 233.597 196.975, 228 222.142, 228 228.067 C 228 229.130, 227.325 230, 226.500 230 C 225.264 230, 225.001 231.802, 225.007 240.250 C 225.018 256.564, 225.983 264.183, 228.108 264.738 C 230.317 265.316, 232.348 273.739, 232.438 282.699 C 232.490 287.892, 232.805 288.977, 234.378 289.389 C 235.820 289.766, 236.134 290.516, 235.732 292.622 C 234.998 296.460, 238.765 306, 241.014 306 C 242.203 306, 244.054 308.678, 246.876 314.479 C 249.144 319.143, 251 323.649, 251 324.493 C 251 326.627, 255.244 332.973, 256.680 332.988 C 257.330 332.994, 258.005 334.013, 258.180 335.250 C 258.404 336.827, 259.282 337.591, 261.114 337.803 C 262.745 337.992, 264.152 339.037, 264.855 340.581 C 265.475 341.942, 266.662 343.317, 267.491 343.635 C 268.335 343.959, 269 345.438, 269 346.991 C 269 350.174, 275.738 357, 278.880 357 C 281.045 357, 282.614 358.641, 283.183 361.500 C 283.460 362.889, 284.269 363.425, 285.830 363.255 C 287.242 363.101, 291.051 365.147, 296.068 368.755 C 300.462 371.915, 305.384 375.175, 307.007 376 C 308.629 376.825, 309.966 378.227, 309.978 379.116 C 310.005 381.118, 322.908 387.098, 325.653 386.380 C 328.243 385.703, 333 387.625, 333 389.349 C 333 390.335, 334.255 390.736, 337.250 390.706 C 343.003 390.648, 358 394.179, 358 395.592 C 358 396.217, 360.088 397.014, 362.640 397.364 C 370.030 398.377, 372 398.172, 372 396.391 C 372 395.140, 372.781 394.872, 375.500 395.190 L 379 395.598 378.921 387.549 C 378.878 383.122, 378.615 380.063, 378.338 380.750 C 377.543 382.719, 375 382.208, 375 380.079 C 375 378.783, 374.078 377.956, 372.160 377.535 C 370.598 377.192, 366.959 375.356, 364.073 373.456 C 361.187 371.555, 358.626 370, 358.382 370 C 358.138 370, 356.581 368.453, 354.921 366.563 C 353.262 364.673, 350.916 362.986, 349.708 362.813 C 348.153 362.591, 347.363 361.626, 347 359.500 C 346.628 357.323, 345.856 356.410, 344.185 356.173 C 342.716 355.964, 340.255 353.610, 337.390 349.673 C 334.920 346.278, 332.246 342.707, 331.449 341.739 C 329.704 339.618, 329.602 338.299, 331.143 337.786 C 332.001 337.500, 332.001 336.871, 331.143 335.268 C 329.427 332.061, 329.709 330.601, 333.097 325.150 C 334.961 322.152, 337.151 319.928, 338.597 319.565 C 340.883 318.991, 341 318.574, 341 310.981 C 341 303.667, 340.833 303, 339 303 C 337.900 303, 337 302.550, 337 302 C 337 301.450, 336.550 301, 336 301 C 335.450 301, 335 301.675, 335 302.500 C 335 303.325, 334.571 304, 334.047 304 C 332.399 304, 327.532 301.593, 326.774 300.402 C 326.374 299.775, 324.761 298.730, 323.190 298.079 C 321.421 297.346, 319.817 295.581, 318.979 293.447 C 318.235 291.551, 317.044 290, 316.332 290 C 314.633 290, 313.277 284.741, 314.842 284.219 C 316.502 283.666, 316.296 279, 314.611 279 C 312.891 279, 311.310 271.730, 312.913 271.196 C 314.557 270.648, 314.215 268, 312.500 268 C 311.567 268, 311 267.056, 311 265.500 C 311 264.125, 311.496 263, 312.103 263 C 312.832 263, 313.086 260.715, 312.853 256.250 L 312.500 249.500 328.750 249.225 L 345 248.950 344.921 240.225 C 344.878 235.426, 344.615 232.063, 344.338 232.750 C 343.715 234.292, 328 234.533, 328 233 C 328 232.417, 324.667 232, 320 232 C 313.556 232, 312 231.708, 312 230.500 C 312 229.675, 311.550 229, 311 229 C 309.851 229, 309.722 225.310, 310.636 218.640 C 311.039 215.698, 311.771 214, 312.636 214 C 313.386 214, 314 213.100, 314 212 C 314 210.900, 313.535 210, 312.966 210 C 310.752 210, 314.904 188.910, 317.739 185.750 C 318.603 184.787, 319.839 184, 320.486 184 C 321.132 184, 323.812 182.911, 326.442 181.580 C 330.577 179.486, 332.562 179.167, 341.139 179.218 C 349.161 179.265, 351.235 179.584, 351.997 180.888 C 352.515 181.775, 352.953 181.970, 352.970 181.322 C 353.012 179.670, 364.160 180.813, 365.610 182.618 C 367.172 184.562, 372.023 184.338, 373.608 182.250 C 374.339 181.287, 374.951 178.351, 374.968 175.725 C 374.996 171.506, 374.701 170.837, 372.435 169.975 C 371.024 169.439, 368.774 169, 367.435 169 C 365.937 169, 365 168.423, 365 167.500 C 365 166.675, 364.325 166, 363.500 166 C 362.675 166, 362 166.450, 362 167 C 362 168.506, 358.216 168.201, 357.300 166.622 C 356.261 164.832, 350 163.411, 350 164.966 C 350 167.266, 342.592 164.856, 339.736 161.626 C 338.215 159.907, 336.151 157.600, 335.149 156.500 C 334.019 155.260, 333.282 152.824, 333.210 150.088 C 333.146 147.661, 332.550 145.340, 331.887 144.930 C 330.117 143.836, 332.721 138, 334.979 138 C 336.870 138, 344 127.351, 344 124.528 C 344 123.609, 344.563 122.241, 345.250 121.488 C 345.938 120.735, 347.591 118.630, 348.924 116.810 C 352.492 111.939, 364.140 102, 366.281 102 C 369.235 102, 372 100.089, 372 98.048 C 372 97.013, 372.458 96.014, 373.018 95.827 C 373.578 95.641, 374.316 93.128, 374.658 90.244 C 375.268 85.086, 375.235 85, 372.639 85 C 371.188 85, 370 84.550, 370 84 C 370 83.450, 368.875 83, 367.500 83 C 366.125 83, 365 83.506, 365 84.125 M 322.020 114.429 C 318.456 116.261, 315.003 117.555, 314.347 117.303 C 312.790 116.706, 295.731 128.179, 290.196 133.546 C 284.379 139.186, 284.960 141.634, 293.151 146 C 298.700 148.957, 299.362 149.092, 302.316 147.856 C 304.067 147.124, 305.902 146.653, 306.394 146.810 C 309.240 147.720, 312.704 145.707, 313.878 142.462 C 314.714 140.148, 315.767 139, 317.051 139 C 319.153 139, 322.450 132.616, 321.554 130.281 C 320.985 128.798, 326.658 119, 328.086 119 C 328.589 119, 329 118.380, 329 117.622 C 329 116.865, 329.675 115.685, 330.500 115 C 332.541 113.306, 332.394 110.989, 330.250 111.049 C 329.288 111.075, 325.584 112.596, 322.020 114.429 M 310.263 156.107 C 306.206 158.705, 304.358 164.127, 305.658 169.623 C 307.914 179.161, 322.338 181.130, 326.452 172.460 C 329.038 167.011, 328.475 161.611, 324.896 157.535 C 322.273 154.547, 321.151 154.003, 317.646 154.017 C 315.184 154.027, 312.186 154.876, 310.263 156.107 M 268.821 157.750 C 262.345 164.724, 251.331 187.501, 245.117 206.771 C 242.558 214.705, 241.290 225, 242.871 225 C 243.492 225, 244 226.250, 244 227.778 C 244 229.323, 244.892 231.320, 246.011 232.278 C 247.785 233.796, 250.671 234, 270.395 234 C 291.926 234, 292.786 233.925, 293.290 232 C 293.577 230.900, 294.530 230, 295.406 230 C 296.599 230, 297 228.993, 297 226 C 297 223.800, 296.550 222, 296 222 C 295.450 222, 295 220.875, 295 219.500 C 295 217.944, 295.567 217, 296.500 217 C 297.433 217, 298 216.056, 298 214.500 C 298 213.125, 297.550 212, 297 212 C 295.430 212, 295.831 206.312, 297.520 204.623 C 298.633 203.510, 298.866 202.017, 298.392 199.051 C 297.815 195.441, 297.964 195, 299.761 195 C 301.297 195, 301.944 194.113, 302.475 191.279 C 302.922 188.899, 302.782 187.427, 302.087 187.196 C 301.489 186.996, 301 185.547, 301 183.976 C 301 182.404, 300.532 180.829, 299.959 180.475 C 299.387 180.121, 299.171 179.038, 299.479 178.067 C 299.787 177.097, 299.358 174.997, 298.525 173.402 C 297.693 171.806, 297.010 169.938, 297.006 169.250 C 297.003 168.563, 296.377 168, 295.617 168 C 294.856 168, 294.006 167.131, 293.728 166.069 C 293.426 164.911, 290.374 162.703, 286.112 160.556 C 282.200 158.586, 279 156.531, 279 155.987 C 279 155.444, 277.284 155, 275.187 155 C 272.313 155, 270.745 155.677, 268.821 157.750 M 513.289 219.150 C 507.297 226.070, 501.466 231.022, 499.787 230.618 C 497.658 230.107, 495.598 232.477, 495.194 235.904 C 495.026 237.332, 494.661 243.787, 494.383 250.250 C 493.983 259.575, 493.582 262, 492.439 262 C 491.300 262, 491 263.770, 491 270.500 C 491 277.028, 491.318 279, 492.369 279 C 494.162 279, 494.975 284.200, 494.989 295.750 C 494.998 303.138, 494.710 305, 493.560 305 C 492.633 305, 491.981 303.665, 491.728 301.250 C 491.513 299.188, 491.261 302.295, 491.168 308.156 C 491.010 318.150, 491.117 318.782, 492.887 318.319 C 493.925 318.048, 495.077 318.315, 495.446 318.913 C 495.861 319.583, 500.119 320, 506.559 320 C 516.698 320, 517.002 319.935, 517.076 317.750 C 517.118 316.512, 517.213 300.988, 517.287 283.250 C 517.392 258.478, 517.708 251, 518.653 251 C 519.329 251, 520.155 250.558, 520.489 250.017 C 521.499 248.383, 519.873 242, 518.447 242 C 517.435 242, 517.110 239.727, 517.091 232.500 C 517.067 223.710, 517.212 223, 519.032 223 C 520.115 223, 521 222.550, 521 222 C 521 221.450, 520.325 221, 519.500 221 C 518.675 221, 518 220.127, 518 219.059 C 518 215.754, 516.200 215.789, 513.289 219.150 M 245.341 256.500 C 245.738 261.197, 245.606 264, 244.987 264 C 243.212 264, 243.889 268.335, 247.215 278.250 C 249.037 283.683, 251.041 288, 251.742 288 C 253.049 288, 253.337 289.018, 253.054 292.637 C 252.962 293.813, 254.037 297.159, 255.443 300.074 C 256.849 302.989, 258 305.759, 258 306.230 C 258 307.715, 266.188 318, 267.370 318 C 267.992 318, 269.757 319.575, 271.293 321.500 C 272.829 323.425, 274.979 325, 276.071 325 C 278.428 325, 289.158 319.738, 290.689 317.832 C 291.277 317.099, 292.476 313.996, 293.353 310.936 C 294.230 307.876, 296.327 303.468, 298.013 301.141 L 301.078 296.910 299.354 290.766 C 298.078 286.217, 297.938 284.521, 298.815 284.228 C 300.473 283.676, 300.301 281, 298.607 281 C 296.707 281, 295.956 278.686, 295.283 270.750 C 294.788 264.920, 294.934 264, 296.355 264 C 298.104 264, 298.343 262.881, 297.370 259.250 C 297.038 258.012, 296.150 257, 295.395 257 C 294.568 257, 293.770 255.411, 293.384 253 L 292.744 249 268.725 249 L 244.707 249 245.341 256.500 M 457.042 294.601 C 454.590 295.950, 452.057 296.852, 451.413 296.605 C 449.855 296.007, 448 297.961, 448 300.200 C 448 301.190, 447.600 302, 447.111 302 C 446.623 302, 445.935 303.532, 445.584 305.403 C 445.233 307.275, 444.283 309.061, 443.473 309.372 C 442.663 309.683, 442 310.851, 442 311.969 C 442 313.513, 441.340 314.005, 439.250 314.021 C 437.713 314.033, 433.416 316.041, 429.505 318.574 C 424.861 321.582, 421.835 322.920, 420.505 322.556 C 412.267 320.298, 403 321.253, 403 324.359 C 403 325.133, 402.094 326.004, 400.987 326.293 C 398.757 326.876, 396 332.519, 396 336.500 C 396 340.807, 398.659 346.068, 400.482 345.369 C 401.358 345.032, 402.845 345.434, 403.787 346.260 C 404.729 347.087, 406.625 348.102, 408 348.517 C 409.375 348.931, 410.748 349.654, 411.052 350.124 C 411.356 350.593, 414.056 350.468, 417.052 349.846 L 422.500 348.714 433.748 355.424 C 442.692 360.759, 445.114 362.683, 445.575 364.817 C 445.895 366.292, 446.530 368.400, 446.987 369.500 C 447.444 370.600, 448.057 372.253, 448.348 373.172 C 448.672 374.194, 449.583 374.664, 450.689 374.381 C 451.784 374.100, 453.809 375.119, 455.812 376.958 C 459.333 380.193, 464 381.071, 464 378.500 C 464 377.675, 464.587 377, 465.304 377 C 466.021 377, 468.134 375.425, 470 373.500 C 471.866 371.575, 473.979 370, 474.696 370 C 475.575 370, 476 368.532, 476 365.500 C 476 362.261, 475.599 361, 474.567 361 C 473.779 361, 472.853 360.112, 472.508 359.026 C 471.314 355.263, 466.321 352.828, 457.688 351.798 C 452.923 351.229, 448.196 350.022, 446.382 348.910 C 444.667 347.860, 442.305 347, 441.132 347 C 439.959 347, 439 346.422, 439 345.716 C 439 345.009, 437.538 343.594, 435.750 342.571 C 433.962 341.548, 431.488 339.798, 430.250 338.681 C 427.518 336.217, 427.204 332.005, 429.750 331.990 C 430.712 331.984, 435.708 329.243, 440.850 325.899 L 450.201 319.817 457.100 320.510 C 463.049 321.108, 464 320.982, 464 319.601 C 464 318.721, 464.681 318, 465.514 318 C 466.346 318, 467.809 317.583, 468.764 317.073 C 469.719 316.563, 471.308 315.894, 472.295 315.587 C 475.843 314.482, 478.767 303, 475.500 303 C 474.675 303, 474 302.635, 474 302.189 C 474 301.742, 473.061 300.369, 471.913 299.137 C 470.765 297.905, 470.081 296.230, 470.394 295.416 C 470.763 294.454, 470.071 293.597, 468.416 292.968 C 464.595 291.515, 461.964 291.893, 457.042 294.601 M 308.205 303.345 C 304.944 305.155, 303 309.477, 303 314.918 C 303 318.942, 303.484 320.077, 306.414 322.917 C 308.908 325.334, 311.012 326.360, 314.216 326.721 C 318.269 327.178, 318.844 326.942, 321.757 323.624 C 325.734 319.094, 327.588 313.271, 326.296 309.368 C 324.289 303.310, 314.276 299.975, 308.205 303.345 M 291.322 335.266 C 284.979 340.175, 284.628 346, 290.674 346 C 292.479 346, 293.375 346.778, 294.157 349.021 C 295.015 351.481, 295.703 351.992, 297.855 351.771 C 299.904 351.561, 300.569 351.983, 300.806 353.646 C 300.974 354.826, 301.916 356.519, 302.900 357.409 C 305.855 360.084, 316.185 364.998, 318.933 365.035 C 320.345 365.055, 322.625 365.714, 324 366.500 C 329.137 369.437, 330.445 367.838, 326.937 362.911 C 325.802 361.318, 325.182 359.514, 325.559 358.904 C 325.937 358.293, 325.207 355.576, 323.937 352.866 C 322.223 349.206, 321.141 348.010, 319.735 348.219 C 318.286 348.434, 317.292 347.207, 315.511 343.009 C 314.230 339.989, 312.579 337.229, 311.841 336.876 C 307.640 334.864, 299.183 332.002, 297.481 332.016 C 296.391 332.025, 293.620 333.487, 291.322 335.266 M 154.573 470.561 C 139.887 485.479, 138 487.772, 138 490.698 C 138 492.514, 138.450 494, 139 494 C 139.550 494, 140 494.675, 140 495.500 C 140 497.275, 135.851 497.526, 132.870 495.931 C 130.459 494.640, 128 496.252, 128 499.122 C 128 500.189, 127.298 501, 126.375 501 C 124.337 501, 103 522.182, 103 524.205 C 103 525.024, 102.109 526.721, 101.021 527.976 C 99.932 529.231, 99.310 530.693, 99.639 531.224 C 99.967 531.756, 99.657 533.273, 98.949 534.595 C 97.563 537.185, 94.187 537.787, 92.200 535.800 C 91.267 534.867, 91 535.051, 91 536.631 C 91 539.182, 86.960 541.440, 84.049 540.516 C 82.365 539.981, 81.739 540.284, 81.335 541.826 C 81.047 542.928, 79.742 544.099, 78.434 544.427 C 77.127 544.755, 75.579 545.918, 74.994 547.012 C 74.408 548.105, 73.222 549, 72.358 549 C 71.240 549, 71.004 549.505, 71.542 550.750 C 71.957 551.712, 72.380 553.850, 72.481 555.500 C 72.582 557.150, 73.384 559.850, 74.264 561.500 C 75.678 564.150, 87.269 575.896, 94.046 581.546 C 95.396 582.671, 97.784 585.215, 99.353 587.199 C 102.622 591.334, 105.941 592.318, 111.159 590.703 C 114.183 589.766, 114.790 589.132, 114.659 587.046 C 114.549 585.300, 115.193 584.215, 116.750 583.524 C 117.987 582.975, 119 581.732, 119 580.763 C 119 579.629, 119.763 579, 121.138 579 C 123.135 579, 123.234 578.647, 122.641 573.606 C 122.138 569.325, 122.316 568.093, 123.504 567.637 C 124.327 567.321, 125 565.972, 125 564.638 C 125 563.305, 125.685 561.951, 126.523 561.630 C 127.751 561.158, 127.817 560.681, 126.865 559.155 C 124.902 556.012, 126.456 554, 130.846 554 C 133.101 554, 135.282 553.365, 136 552.500 C 136.685 551.675, 138.133 551, 139.218 551 C 142.209 551, 163.978 528.631, 163.344 526.209 C 163.012 524.938, 164.185 522.930, 166.925 520.078 C 169.166 517.745, 171 515.140, 171 514.288 C 171 513.075, 171.762 512.862, 174.503 513.307 C 177.867 513.853, 177.981 513.772, 177.356 511.283 C 176.767 508.936, 176.931 508.749, 179.079 509.310 C 181.078 509.833, 182.836 508.558, 190.226 501.220 C 195.052 496.429, 199 491.975, 199 491.322 C 199 490.669, 199.900 489.849, 201 489.500 C 202.869 488.907, 203.902 486.008, 202.250 485.993 C 201.838 485.989, 200.405 484.302, 199.066 482.243 C 197.728 480.184, 193.953 475.725, 190.677 472.333 C 186.861 468.381, 184.930 465.624, 185.302 464.656 C 186.059 462.682, 183.720 460.786, 181.553 461.618 C 180.370 462.072, 178.525 460.969, 175.499 457.999 L 171.146 453.727 154.573 470.561" stroke="none" fill="#214274" fill-rule="evenodd"/></svg>